  0
SECTION
  2
HEADER
  9
$ACADVER
  1
AC1014
  9
$HANDSEED
  5
FFFF
  9
$INSUNITS
 70
     4
  9
$MEASUREMENT
 70
     1
  0
ENDSEC
  0
SECTION
  2
TABLES
  0
TABLE
  2
VPORT
  5
8
330
0
100
AcDbSymbolTable
 70
     4
  0
VPORT
  5
2E
330
8
100
AcDbSymbolTableRecord
100
AcDbViewportTableRecord
  2
*ACTIVE
 70
     0
 10
0.0
 20
0.0
 11
1.0
 21
1.0
 12
210.0
 22
148.5
 13
0.0
 23
0.0
 14
10.0
 24
10.0
 15
10.0
 25
10.0
 16
0.0
 26
0.0
 36
1.0
 17
0.0
 27
0.0
 37
0.0
 40
341.0
 41
1.24
 42
50.0
 43
0.0
 44
0.0
 50
0.0
 51
0.0
 71
     0
 72
   100
 73
     1
 74
     3
 75
     0
 76
     0
 77
     0
 78
     0
  0
ENDTAB
  0
TABLE
  2
LTYPE
  5
5
330
0
100
AcDbSymbolTable
 70
     1
  0
LTYPE
  5
14
330
5
100
AcDbSymbolTableRecord
100
AcDbLinetypeTableRecord
  2
BYBLOCK
 70
     0
  3

 72
    65
 73
     0
 40
0.0
  0
LTYPE
  5
15
330
5
100
AcDbSymbolTableRecord
100
AcDbLinetypeTableRecord
  2
BYLAYER
 70
     0
  3

 72
    65
 73
     0
 40
0.0
  0
LTYPE
  5
16
330
5
100
AcDbSymbolTableRecord
100
AcDbLinetypeTableRecord
  2
CONTINUOUS
 70
     0
  3
Solid line
 72
    65
 73
     0
 40
0.0
  0
ENDTAB
  0
TABLE
  2
LAYER
  5
2
100
AcDbSymbolTable
 70
3
  0
LAYER
  5
50
100
AcDbSymbolTableRecord
100
AcDbLayerTableRecord
  2
0
 70
0
  6
CONTINUOUS
  0
LAYER
  5
51
100
AcDbSymbolTableRecord
100
AcDbLayerTableRecord
  2
reindeer_cut_copy
 70
0
  6
CONTINUOUS
  0
LAYER
  5
52
100
AcDbSymbolTableRecord
100
AcDbLayerTableRecord
  2
fiducials
 70
0
  6
CONTINUOUS
  0
ENDTAB
  0
TABLE
  2
STYLE
  5
3
330
0
100
AcDbSymbolTable
 70
     1
  0
STYLE
  5
11
330
3
100
AcDbSymbolTableRecord
100
AcDbTextStyleTableRecord
  2
STANDARD
 70
     0
 40
0.0
 41
1.0
 50
0.0
 71
     0
 42
2.5
  3
txt
  4

  0
ENDTAB
  0
TABLE
  2
VIEW
  5
6
330
0
100
AcDbSymbolTable
 70
     0
  0
ENDTAB
  0
TABLE
  2
UCS
  5
7
330
0
100
AcDbSymbolTable
 70
     0
  0
ENDTAB
  0
TABLE
  2
APPID
  5
9
330
0
100
AcDbSymbolTable
 70
     2
  0
APPID
  5
12
330
9
100
AcDbSymbolTableRecord
100
AcDbRegAppTableRecord
  2
ACAD
 70
     0
  0
ENDTAB
  0
TABLE
  2
DIMSTYLE
  5
A
330
0
100
AcDbSymbolTable
 70
     1
  0
DIMSTYLE
105
27
330
A
100
AcDbSymbolTableRecord
100
AcDbDimStyleTableRecord
  2
ISO-25
 70
     0
  3

  4

  5

  6

  7

 40
1.0
 41
2.5
 42
0.625
 43
3.75
 44
1.25
 45
0.0
 46
0.0
 47
0.0
 48
0.0
140
2.5
141
2.5
142
0.0
143
0.03937007874016
144
1.0
145
0.0
146
1.0
147
0.625
 71
     0
 72
     0
 73
     0
 74
     0
 75
     0
 76
     0
 77
     1
 78
     8
170
     0
171
     3
172
     1
173
     0
174
     0
175
     0
176
     0
177
     0
178
     0
270
     2
271
     2
272
     2
273
     2
274
     3
340
11
275
     0
280
     0
281
     0
282
     0
283
     0
284
     8
285
     0
286
     0
287
     3
288
     0
  0
ENDTAB
  0
TABLE
  2
BLOCK_RECORD
  5
1
330
0
100
AcDbSymbolTable
 70
     1
  0
BLOCK_RECORD
  5
1F
330
1
100
AcDbSymbolTableRecord
100
AcDbBlockTableRecord
  2
*MODEL_SPACE
  0
BLOCK_RECORD
  5
1B
330
1
100
AcDbSymbolTableRecord
100
AcDbBlockTableRecord
  2
*PAPER_SPACE
  0
ENDTAB
  0
ENDSEC
  0
SECTION
  2
BLOCKS
  0
BLOCK
  5
20
330
1F
100
AcDbEntity
  8
0
100
AcDbBlockBegin
  2
*MODEL_SPACE
 70
     0
 10
0.0
 20
0.0
 30
0.0
  3
*MODEL_SPACE
  1

  0
ENDBLK
  5
21
330
1F
100
AcDbEntity
  8
0
100
AcDbBlockEnd
  0
BLOCK
  5
1C
330
1B
100
AcDbEntity
 67
     1
  8
0
100
AcDbBlockBegin
  2
*PAPER_SPACE
  1

  0
ENDBLK
  5
1D
330
1B
100
AcDbEntity
 67
     1
  8
0
100
AcDbBlockEnd
  0
ENDSEC
  0
SECTION
  2
ENTITIES
  0
SPLINE
  5
100
100
AcDbEntity
  8
reindeer_cut_copy
 62
7
100
AcDbSpline
 70
8
 71
3
 72
8
 73
4
 74
0
 40
0
 40
0
 40
0
 40
0
 40
1
 40
1
 40
1
 40
1
 10
86.922134
 20
45.601366
 30
0.0
 10
86.893028
 20
45.626564
 30
0.0
 10
86.861224
 20
45.648540
 30
0.0
 10
86.827173
 20
45.666090
 30
0.0
  0
SPLINE
  5
101
100
AcDbEntity
  8
reindeer_cut_copy
 62
7
100
AcDbSpline
 70
8
 71
3
 72
8
 73
4
 74
0
 40
0
 40
0
 40
0
 40
0
 40
1
 40
1
 40
1
 40
1
 10
86.827173
 20
45.666090
 30
0.0
 10
86.690961
 20
45.736296
 30
0.0
 10
86.552024
 20
45.739443
 30
0.0
 10
86.428976
 20
45.721373
 30
0.0
  0
SPLINE
  5
102
100
AcDbEntity
  8
reindeer_cut_copy
 62
7
100
AcDbSpline
 70
8
 71
3
 72
8
 73
4
 74
0
 40
0
 40
0
 40
0
 40
0
 40
1
 40
1
 40
1
 40
1
 10
86.428976
 20
45.721373
 30
0.0
 10
86.182882
 20
45.685236
 30
0.0
 10
85.948323
 20
45.568658
 30
0.0
 10
85.643331
 20
45.377630
 30
0.0
  0
SPLINE
  5
103
100
AcDbEntity
  8
reindeer_cut_copy
 62
7
100
AcDbSpline
 70
8
 71
3
 72
8
 73
4
 74
0
 40
0
 40
0
 40
0
 40
0
 40
1
 40
1
 40
1
 40
1
 10
85.643331
 20
45.377630
 30
0.0
 10
85.033343
 20
44.995575
 30
0.0
 10
84.170843
 20
44.287062
 30
0.0
 10
82.951496
 20
43.114646
 30
0.0
  0
SPLINE
  5
104
100
AcDbEntity
  8
reindeer_cut_copy
 62
7
100
AcDbSpline
 70
8
 71
3
 72
8
 73
4
 74
0
 40
0
 40
0
 40
0
 40
0
 40
1
 40
1
 40
1
 40
1
 10
82.951496
 20
43.114646
 30
0.0
 10
82.941199
 20
43.104680
 30
0.0
 10
82.931491
 20
43.094123
 30
0.0
 10
82.922421
 20
43.083028
 30
0.0
  0
SPLINE
  5
105
100
AcDbEntity
  8
reindeer_cut_copy
 62
7
100
AcDbSpline
 70
8
 71
3
 72
8
 73
4
 74
0
 40
0
 40
0
 40
0
 40
0
 40
1
 40
1
 40
1
 40
1
 10
82.922421
 20
43.083028
 30
0.0
 10
82.308638
 20
42.337343
 30
0.0
 10
81.235122
 20
40.734913
 30
0.0
 10
80.657126
 20
39.668700
 30
0.0
  0
SPLINE
  5
106
100
AcDbEntity
  8
reindeer_cut_copy
 62
7
100
AcDbSpline
 70
8
 71
3
 72
8
 73
4
 74
0
 40
0
 40
0
 40
0
 40
0
 40
1
 40
1
 40
1
 40
1
 10
80.656575
 20
39.667420
 30
0.0
 10
80.578799
 20
39.522676
 30
0.0
 10
80.524421
 20
39.426438
 30
0.0
 10
80.462209
 20
39.313937
 30
0.0
  0
SPLINE
  5
107
100
AcDbEntity
  8
reindeer_cut_copy
 62
7
100
AcDbSpline
 70
8
 71
3
 72
8
 73
4
 74
0
 40
0
 40
0
 40
0
 40
0
 40
1
 40
1
 40
1
 40
1
 10
80.462209
 20
39.313937
 30
0.0
 10
80.444992
 20
39.385807
 30
0.0
 10
80.432528
 20
39.455609
 30
0.0
 10
80.406618
 20
39.530045
 30
0.0
  0
LWPOLYLINE
  5
108
100
AcDbEntity
  8
reindeer_cut_copy
 62
7
100
AcDbPolyline
 90
2
 70
0
 10
80.657126
 20
39.668700
 30
0.0
 10
80.656575
 20
39.667420
 30
0.0
  0
SPLINE
  5
109
100
AcDbEntity
  8
reindeer_cut_copy
 62
7
100
AcDbSpline
 70
8
 71
3
 72
8
 73
4
 74
0
 40
0
 40
0
 40
0
 40
0
 40
1
 40
1
 40
1
 40
1
 10
80.414169
 20
39.505873
 30
0.0
 10
80.133768
 20
40.533297
 30
0.0
 10
79.891756
 20
41.116688
 30
0.0
 10
79.441354
 20
41.408454
 30
0.0
  0
SPLINE
  5
10a
100
AcDbEntity
  8
reindeer_cut_copy
 62
7
100
AcDbSpline
 70
8
 71
3
 72
8
 73
4
 74
0
 40
0
 40
0
 40
0
 40
0
 40
1
 40
1
 40
1
 40
1
 10
79.441354
 20
41.408454
 30
0.0
 10
79.216154
 20
41.554338
 30
0.0
 10
78.866957
 20
41.545963
 30
0.0
 10
78.658539
 20
41.390947
 30
0.0
  0
SPLINE
  5
10b
100
AcDbEntity
  8
reindeer_cut_copy
 62
7
100
AcDbSpline
 70
8
 71
3
 72
8
 73
4
 74
0
 40
0
 40
0
 40
0
 40
0
 40
1
 40
1
 40
1
 40
1
 10
78.658539
 20
41.390947
 30
0.0
 10
78.450106
 20
41.235936
 30
0.0
 10
78.337724
 20
41.018605
 30
0.0
 10
78.244122
 20
40.761105
 30
0.0
  0
SPLINE
  5
10c
100
AcDbEntity
  8
reindeer_cut_copy
 62
7
100
AcDbSpline
 70
8
 71
3
 72
8
 73
4
 74
0
 40
0
 40
0
 40
0
 40
0
 40
1
 40
1
 40
1
 40
1
 10
78.244122
 20
40.761105
 30
0.0
 10
77.872787
 20
39.739611
 30
0.0
 10
77.863622
 20
37.869363
 30
0.0
 10
78.459008
 20
35.834398
 30
0.0
  0
SPLINE
  5
10d
100
AcDbEntity
  8
reindeer_cut_copy
 62
7
100
AcDbSpline
 70
8
 71
3
 72
8
 73
4
 74
0
 40
0
 40
0
 40
0
 40
0
 40
1
 40
1
 40
1
 40
1
 10
78.459008
 20
35.834398
 30
0.0
 10
78.491736
 20
35.214767
 30
0.0
 10
78.501378
 20
35.013948
 30
0.0
 10
78.278283
 20
34.185264
 30
0.0
  0
SPLINE
  5
10e
100
AcDbEntity
  8
reindeer_cut_copy
 62
7
100
AcDbSpline
 70
8
 71
3
 72
8
 73
4
 74
0
 40
0
 40
0
 40
0
 40
0
 40
1
 40
1
 40
1
 40
1
 10
78.278283
 20
34.185264
 30
0.0
 10
78.142260
 20
33.680007
 30
0.0
 10
77.862528
 20
32.777801
 30
0.0
 10
77.503539
 20
31.627064
 30
0.0
  0
SPLINE
  5
10f
100
AcDbEntity
  8
reindeer_cut_copy
 62
7
100
AcDbSpline
 70
8
 71
3
 72
8
 73
4
 74
0
 40
0
 40
0
 40
0
 40
0
 40
1
 40
1
 40
1
 40
1
 10
77.503539
 20
31.627064
 30
0.0
 10
77.491118
 20
31.659574
 30
0.0
 10
77.478831
 20
31.690317
 30
0.0
 10
77.466358
 20
31.723497
 30
0.0
  0
SPLINE
  5
110
100
AcDbEntity
  8
reindeer_cut_copy
 62
7
100
AcDbSpline
 70
8
 71
3
 72
8
 73
4
 74
0
 40
0
 40
0
 40
0
 40
0
 40
1
 40
1
 40
1
 40
1
 10
77.466358
 20
31.723497
 30
0.0
 10
77.458398
 20
31.744686
 30
0.0
 10
77.445614
 20
31.763739
 30
0.0
 10
77.429035
 20
31.779145
 30
0.0
  0
SPLINE
  5
111
100
AcDbEntity
  8
reindeer_cut_copy
 62
7
100
AcDbSpline
 70
8
 71
3
 72
8
 73
4
 74
0
 40
0
 40
0
 40
0
 40
0
 40
1
 40
1
 40
1
 40
1
 10
77.429035
 20
31.779145
 30
0.0
 10
77.412449
 20
31.794552
 30
0.0
 10
77.392512
 20
31.805895
 30
0.0
 10
77.370803
 20
31.812280
 30
0.0
  0
SPLINE
  5
112
100
AcDbEntity
  8
reindeer_cut_copy
 62
7
100
AcDbSpline
 70
8
 71
3
 72
8
 73
4
 74
0
 40
0
 40
0
 40
0
 40
0
 40
1
 40
1
 40
1
 40
1
 10
77.370803
 20
31.812280
 30
0.0
 10
77.326795
 20
31.825220
 30
0.0
 10
77.279280
 20
31.816739
 30
0.0
 10
77.242453
 20
31.789389
 30
0.0
  0
SPLINE
  5
113
100
AcDbEntity
  8
reindeer_cut_copy
 62
7
100
AcDbSpline
 70
8
 71
3
 72
8
 73
4
 74
0
 40
0
 40
0
 40
0
 40
0
 40
1
 40
1
 40
1
 40
1
 10
77.242453
 20
31.789389
 30
0.0
 10
76.009850
 20
30.873887
 30
0.0
 10
75.512902
 20
29.924168
 30
0.0
 10
75.413508
 20
28.975956
 30
0.0
  0
SPLINE
  5
114
100
AcDbEntity
  8
reindeer_cut_copy
 62
7
100
AcDbSpline
 70
8
 71
3
 72
8
 73
4
 74
0
 40
0
 40
0
 40
0
 40
0
 40
1
 40
1
 40
1
 40
1
 10
75.413508
 20
28.975956
 30
0.0
 10
75.398567
 20
28.833422
 30
0.0
 10
75.393220
 20
28.691293
 30
0.0
 10
75.394307
 20
28.549475
 30
0.0
  0
SPLINE
  5
115
100
AcDbEntity
  8
reindeer_cut_copy
 62
7
100
AcDbSpline
 70
8
 71
3
 72
8
 73
4
 74
0
 40
0
 40
0
 40
0
 40
0
 40
1
 40
1
 40
1
 40
1
 10
75.394307
 20
28.549475
 30
0.0
 10
75.391709
 20
28.333982
 30
0.0
 10
75.400004
 20
28.118988
 30
0.0
 10
75.427563
 20
27.905098
 30
0.0
  0
SPLINE
  5
116
100
AcDbEntity
  8
reindeer_cut_copy
 62
7
100
AcDbSpline
 70
8
 71
3
 72
8
 73
4
 74
0
 40
0
 40
0
 40
0
 40
0
 40
1
 40
1
 40
1
 40
1
 10
75.427563
 20
27.905098
 30
0.0
 10
74.371193
 20
28.296426
 30
0.0
 10
73.288008
 20
28.417591
 30
0.0
 10
72.120031
 20
28.373686
 30
0.0
  0
SPLINE
  5
117
100
AcDbEntity
  8
reindeer_cut_copy
 62
7
100
AcDbSpline
 70
8
 71
3
 72
8
 73
4
 74
0
 40
0
 40
0
 40
0
 40
0
 40
1
 40
1
 40
1
 40
1
 10
72.120031
 20
28.373686
 30
0.0
 10
72.118530
 20
28.373645
 30
0.0
 10
72.117028
 20
28.373592
 30
0.0
 10
72.115528
 20
28.373529
 30
0.0
  0
SPLINE
  5
118
100
AcDbEntity
  8
reindeer_cut_copy
 62
7
100
AcDbSpline
 70
8
 71
3
 72
8
 73
4
 74
0
 40
0
 40
0
 40
0
 40
0
 40
1
 40
1
 40
1
 40
1
 10
72.115528
 20
28.373529
 30
0.0
 10
68.439933
 20
28.180487
 30
0.0
 10
65.942693
 20
27.872278
 30
0.0
 10
64.113654
 20
27.583854
 30
0.0
  0
SPLINE
  5
119
100
AcDbEntity
  8
reindeer_cut_copy
 62
7
100
AcDbSpline
 70
8
 71
3
 72
8
 73
4
 74
0
 40
0
 40
0
 40
0
 40
0
 40
1
 40
1
 40
1
 40
1
 10
64.113654
 20
27.583854
 30
0.0
 10
64.095138
 20
27.620471
 30
0.0
 10
64.071000
 20
27.650881
 30
0.0
 10
64.040717
 20
27.672457
 30
0.0
  0
LWPOLYLINE
  5
11a
100
AcDbEntity
  8
reindeer_cut_copy
 62
7
100
AcDbPolyline
 90
2
 70
0
 10
80.406618
 20
39.530045
 30
0.0
 10
80.414169
 20
39.505873
 30
0.0
  0
SPLINE
  5
11b
100
AcDbEntity
  8
reindeer_cut_copy
 62
7
100
AcDbSpline
 70
8
 71
3
 72
8
 73
4
 74
0
 40
0
 40
0
 40
0
 40
0
 40
1
 40
1
 40
1
 40
1
 10
64.040693
 20
27.672472
 30
0.0
 10
63.977228
 20
27.717689
 30
0.0
 10
63.912343
 20
27.718108
 30
0.0
 10
63.877559
 20
27.720455
 30
0.0
  0
SPLINE
  5
11c
100
AcDbEntity
  8
reindeer_cut_copy
 62
7
100
AcDbSpline
 70
8
 71
3
 72
8
 73
4
 74
0
 40
0
 40
0
 40
0
 40
0
 40
1
 40
1
 40
1
 40
1
 10
63.877559
 20
27.720455
 30
0.0
 10
63.765587
 20
27.728004
 30
0.0
 10
63.583327
 20
27.706387
 30
0.0
 10
63.359799
 20
27.674604
 30
0.0
  0
SPLINE
  5
11d
100
AcDbEntity
  8
reindeer_cut_copy
 62
7
100
AcDbSpline
 70
8
 71
3
 72
8
 73
4
 74
0
 40
0
 40
0
 40
0
 40
0
 40
1
 40
1
 40
1
 40
1
 10
63.359799
 20
27.674604
 30
0.0
 10
63.308331
 20
27.898363
 30
0.0
 10
63.187102
 20
28.107627
 30
0.0
 10
62.996425
 20
28.263926
 30
0.0
  0
SPLINE
  5
11e
100
AcDbEntity
  8
reindeer_cut_copy
 62
7
100
AcDbSpline
 70
8
 71
3
 72
8
 73
4
 74
0
 40
0
 40
0
 40
0
 40
0
 40
1
 40
1
 40
1
 40
1
 10
62.996425
 20
28.263926
 30
0.0
 10
62.538461
 20
28.639318
 30
0.0
 10
61.859051
 20
28.572246
 30
0.0
 10
61.483799
 20
28.114450
 30
0.0
  0
SPLINE
  5
11f
100
AcDbEntity
  8
reindeer_cut_copy
 62
7
100
AcDbSpline
 70
8
 71
3
 72
8
 73
4
 74
0
 40
0
 40
0
 40
0
 40
0
 40
1
 40
1
 40
1
 40
1
 10
61.483799
 20
28.114450
 30
0.0
 10
61.292173
 20
27.880674
 30
0.0
 10
61.220516
 20
27.589842
 30
0.0
 10
61.252906
 20
27.310520
 30
0.0
  0
SPLINE
  5
120
100
AcDbEntity
  8
reindeer_cut_copy
 62
7
100
AcDbSpline
 70
8
 71
3
 72
8
 73
4
 74
0
 40
0
 40
0
 40
0
 40
0
 40
1
 40
1
 40
1
 40
1
 10
61.252906
 20
27.310520
 30
0.0
 10
61.072283
 20
27.278590
 30
0.0
 10
60.920846
 20
27.252810
 30
0.0
 10
60.854087
 20
27.245582
 30
0.0
  0
SPLINE
  5
121
100
AcDbEntity
  8
reindeer_cut_copy
 62
7
100
AcDbSpline
 70
8
 71
3
 72
8
 73
4
 74
0
 40
0
 40
0
 40
0
 40
0
 40
1
 40
1
 40
1
 40
1
 10
60.854087
 20
27.245582
 30
0.0
 10
60.692799
 20
27.228124
 30
0.0
 10
60.584835
 20
27.154780
 30
0.0
 10
60.541839
 20
27.064813
 30
0.0
  0
SPLINE
  5
122
100
AcDbEntity
  8
reindeer_cut_copy
 62
7
100
AcDbSpline
 70
8
 71
3
 72
8
 73
4
 74
0
 40
0
 40
0
 40
0
 40
0
 40
1
 40
1
 40
1
 40
1
 10
60.541839
 20
27.064813
 30
0.0
 10
60.521787
 20
27.022857
 30
0.0
 10
60.512807
 20
26.984053
 30
0.0
 10
60.507909
 20
26.952297
 30
0.0
  0
SPLINE
  5
123
100
AcDbEntity
  8
reindeer_cut_copy
 62
7
100
AcDbSpline
 70
8
 71
3
 72
8
 73
4
 74
0
 40
0
 40
0
 40
0
 40
0
 40
1
 40
1
 40
1
 40
1
 10
60.507909
 20
26.952297
 30
0.0
 10
60.193835
 20
26.902950
 30
0.0
 10
59.917181
 20
26.869098
 30
0.0
 10
59.704358
 20
26.870965
 30
0.0
  0
SPLINE
  5
124
100
AcDbEntity
  8
reindeer_cut_copy
 62
7
100
AcDbSpline
 70
8
 71
3
 72
8
 73
4
 74
0
 40
0
 40
0
 40
0
 40
0
 40
1
 40
1
 40
1
 40
1
 10
59.704358
 20
26.870965
 30
0.0
 10
59.267874
 20
26.874776
 30
0.0
 10
58.975047
 20
26.969899
 30
0.0
 10
58.556445
 20
27.253680
 30
0.0
  0
SPLINE
  5
125
100
AcDbEntity
  8
reindeer_cut_copy
 62
7
100
AcDbSpline
 70
8
 71
3
 72
8
 73
4
 74
0
 40
0
 40
0
 40
0
 40
0
 40
1
 40
1
 40
1
 40
1
 10
58.556445
 20
27.253680
 30
0.0
 10
57.771220
 20
27.864433
 30
0.0
 10
56.968945
 20
28.443856
 30
0.0
 10
56.166181
 20
29.026714
 30
0.0
  0
SPLINE
  5
126
100
AcDbEntity
  8
reindeer_cut_copy
 62
7
100
AcDbSpline
 70
8
 71
3
 72
8
 73
4
 74
0
 40
0
 40
0
 40
0
 40
0
 40
1
 40
1
 40
1
 40
1
 10
56.166181
 20
29.026714
 30
0.0
 10
56.166181
 20
29.039279
 30
0.0
 10
56.166929
 20
29.052130
 30
0.0
 10
56.165787
 20
29.064174
 30
0.0
  0
SPLINE
  5
127
100
AcDbEntity
  8
reindeer_cut_copy
 62
7
100
AcDbSpline
 70
8
 71
3
 72
8
 73
4
 74
0
 40
0
 40
0
 40
0
 40
0
 40
1
 40
1
 40
1
 40
1
 10
56.165787
 20
29.064174
 30
0.0
 10
56.158854
 20
29.147555
 30
0.0
 10
56.135098
 20
29.219070
 30
0.0
 10
56.072071
 20
29.271943
 30
0.0
  0
SPLINE
  5
128
100
AcDbEntity
  8
reindeer_cut_copy
 62
7
100
AcDbSpline
 70
8
 71
3
 72
8
 73
4
 74
0
 40
0
 40
0
 40
0
 40
0
 40
1
 40
1
 40
1
 40
1
 10
56.072071
 20
29.271943
 30
0.0
 10
56.005579
 20
29.327728
 30
0.0
 10
55.858154
 20
29.441620
 30
0.0
 10
55.703445
 20
29.560427
 30
0.0
  0
SPLINE
  5
129
100
AcDbEntity
  8
reindeer_cut_copy
 62
7
100
AcDbSpline
 70
8
 71
3
 72
8
 73
4
 74
0
 40
0
 40
0
 40
0
 40
0
 40
1
 40
1
 40
1
 40
1
 10
55.703445
 20
29.560427
 30
0.0
 10
55.715437
 20
29.573938
 30
0.0
 10
55.728969
 20
29.585289
 30
0.0
 10
55.740520
 20
29.599380
 30
0.0
  0
SPLINE
  5
12a
100
AcDbEntity
  8
reindeer_cut_copy
 62
7
100
AcDbSpline
 70
8
 71
3
 72
8
 73
4
 74
0
 40
0
 40
0
 40
0
 40
0
 40
1
 40
1
 40
1
 40
1
 10
55.740520
 20
29.599380
 30
0.0
 10
56.230228
 20
30.196805
 30
0.0
 10
56.142205
 20
31.082201
 30
0.0
 10
55.544528
 20
31.572106
 30
0.0
  0
SPLINE
  5
12b
100
AcDbEntity
  8
reindeer_cut_copy
 62
7
100
AcDbSpline
 70
8
 71
3
 72
8
 73
4
 74
0
 40
0
 40
0
 40
0
 40
0
 40
1
 40
1
 40
1
 40
1
 10
55.544528
 20
31.572106
 30
0.0
 10
54.946886
 20
32.061991
 30
0.0
 10
54.061421
 20
31.974561
 30
0.0
 10
53.571713
 20
31.377137
 30
0.0
  0
SPLINE
  5
12c
100
AcDbEntity
  8
reindeer_cut_copy
 62
7
100
AcDbSpline
 70
8
 71
3
 72
8
 73
4
 74
0
 40
0
 40
0
 40
0
 40
0
 40
1
 40
1
 40
1
 40
1
 10
53.571713
 20
31.377137
 30
0.0
 10
53.507598
 20
31.298917
 30
0.0
 10
53.458350
 20
31.213828
 30
0.0
 10
53.413925
 20
31.127256
 30
0.0
  0
SPLINE
  5
12d
100
AcDbEntity
  8
reindeer_cut_copy
 62
7
100
AcDbSpline
 70
8
 71
3
 72
8
 73
4
 74
0
 40
0
 40
0
 40
0
 40
0
 40
1
 40
1
 40
1
 40
1
 10
53.413925
 20
31.127256
 30
0.0
 10
53.391000
 20
31.128244
 30
0.0
 10
53.367953
 20
31.126783
 30
0.0
 10
53.346323
 20
31.120494
 30
0.0
  0
SPLINE
  5
12e
100
AcDbEntity
  8
reindeer_cut_copy
 62
7
100
AcDbSpline
 70
8
 71
3
 72
8
 73
4
 74
0
 40
0
 40
0
 40
0
 40
0
 40
1
 40
1
 40
1
 40
1
 10
53.346323
 20
31.120494
 30
0.0
 10
53.345496
 20
31.120258
 30
0.0
 10
53.345024
 20
31.119809
 30
0.0
 10
53.344197
 20
31.119577
 30
0.0
  0
SPLINE
  5
12f
100
AcDbEntity
  8
reindeer_cut_copy
 62
7
100
AcDbSpline
 70
8
 71
3
 72
8
 73
4
 74
0
 40
0
 40
0
 40
0
 40
0
 40
1
 40
1
 40
1
 40
1
 10
53.344197
 20
31.119577
 30
0.0
 10
50.962909
 20
32.902402
 30
0.0
 10
48.582142
 20
34.861157
 30
0.0
 10
46.331449
 20
37.594587
 30
0.0
  0
SPLINE
  5
130
100
AcDbEntity
  8
reindeer_cut_copy
 62
7
100
AcDbSpline
 70
8
 71
3
 72
8
 73
4
 74
0
 40
0
 40
0
 40
0
 40
0
 40
1
 40
1
 40
1
 40
1
 10
46.331449
 20
37.594587
 30
0.0
 10
46.322757
 20
37.605129
 30
0.0
 10
46.313358
 20
37.615069
 30
0.0
 10
46.303319
 20
37.624337
 30
0.0
  0
SPLINE
  5
131
100
AcDbEntity
  8
reindeer_cut_copy
 62
7
100
AcDbSpline
 70
8
 71
3
 72
8
 73
4
 74
0
 40
0
 40
0
 40
0
 40
0
 40
1
 40
1
 40
1
 40
1
 10
46.303319
 20
37.624337
 30
0.0
 10
44.322150
 20
39.456319
 30
0.0
 10
42.564181
 20
40.423906
 30
0.0
 10
40.952083
 20
40.869252
 30
0.0
  0
SPLINE
  5
132
100
AcDbEntity
  8
reindeer_cut_copy
 62
7
100
AcDbSpline
 70
8
 71
3
 72
8
 73
4
 74
0
 40
0
 40
0
 40
0
 40
0
 40
1
 40
1
 40
1
 40
1
 10
40.952083
 20
40.869252
 30
0.0
 10
40.330209
 20
41.798541
 30
0.0
 10
39.878878
 20
42.573185
 30
0.0
 10
40.285732
 20
44.209121
 30
0.0
  0
SPLINE
  5
133
100
AcDbEntity
  8
reindeer_cut_copy
 62
7
100
AcDbSpline
 70
8
 71
3
 72
8
 73
4
 74
0
 40
0
 40
0
 40
0
 40
0
 40
1
 40
1
 40
1
 40
1
 10
40.285732
 20
44.209121
 30
0.0
 10
40.145882
 20
44.249378
 30
0.0
 10
39.190271
 20
43.919947
 30
0.0
 10
38.399991
 20
42.916096
 30
0.0
  0
SPLINE
  5
134
100
AcDbEntity
  8
reindeer_cut_copy
 62
7
100
AcDbSpline
 70
8
 71
3
 72
8
 73
4
 74
0
 40
0
 40
0
 40
0
 40
0
 40
1
 40
1
 40
1
 40
1
 10
38.399991
 20
42.916096
 30
0.0
 10
37.990670
 20
43.479976
 30
0.0
 10
37.639538
 20
44.042381
 30
0.0
 10
36.925207
 20
44.614071
 30
0.0
  0
SPLINE
  5
135
100
AcDbEntity
  8
reindeer_cut_copy
 62
7
100
AcDbSpline
 70
8
 71
3
 72
8
 73
4
 74
0
 40
0
 40
0
 40
0
 40
0
 40
1
 40
1
 40
1
 40
1
 10
36.925207
 20
44.614071
 30
0.0
 10
36.476360
 20
43.266911
 30
0.0
 10
36.628006
 20
42.069891
 30
0.0
 10
36.974974
 20
41.003352
 30
0.0
  0
SPLINE
  5
136
100
AcDbEntity
  8
reindeer_cut_copy
 62
7
100
AcDbSpline
 70
8
 71
3
 72
8
 73
4
 74
0
 40
0
 40
0
 40
0
 40
0
 40
1
 40
1
 40
1
 40
1
 10
36.974974
 20
41.003352
 30
0.0
 10
34.744088
 20
40.575915
 30
0.0
 10
32.752995
 20
39.522524
 30
0.0
 10
30.634282
 20
39.129039
 30
0.0
  0
SPLINE
  5
137
100
AcDbEntity
  8
reindeer_cut_copy
 62
7
100
AcDbSpline
 70
8
 71
3
 72
8
 73
4
 74
0
 40
0
 40
0
 40
0
 40
0
 40
1
 40
1
 40
1
 40
1
 10
30.634282
 20
39.129039
 30
0.0
 10
30.623147
 20
39.126951
 30
0.0
 10
30.612138
 20
39.124238
 30
0.0
 10
30.601307
 20
39.120912
 30
0.0
  0
SPLINE
  5
138
100
AcDbEntity
  8
reindeer_cut_copy
 62
7
100
AcDbSpline
 70
8
 71
3
 72
8
 73
4
 74
0
 40
0
 40
0
 40
0
 40
0
 40
1
 40
1
 40
1
 40
1
 10
30.601307
 20
39.120912
 30
0.0
 10
29.785826
 20
38.872100
 30
0.0
 10
29.206811
 20
38.794893
 30
0.0
 10
28.781849
 20
38.823297
 30
0.0
  0
SPLINE
  5
139
100
AcDbEntity
  8
reindeer_cut_copy
 62
7
100
AcDbSpline
 70
8
 71
3
 72
8
 73
4
 74
0
 40
0
 40
0
 40
0
 40
0
 40
1
 40
1
 40
1
 40
1
 10
28.781849
 20
38.823297
 30
0.0
 10
28.356891
 20
38.851691
 30
0.0
 10
28.082224
 20
38.974494
 30
0.0
 10
27.819201
 20
39.168032
 30
0.0
  0
SPLINE
  5
13a
100
AcDbEntity
  8
reindeer_cut_copy
 62
7
100
AcDbSpline
 70
8
 71
3
 72
8
 73
4
 74
0
 40
0
 40
0
 40
0
 40
0
 40
1
 40
1
 40
1
 40
1
 10
27.819201
 20
39.168032
 30
0.0
 10
27.295098
 20
39.553683
 30
0.0
 10
26.844776
 20
40.295332
 30
0.0
 10
25.840451
 20
40.927546
 30
0.0
  0
SPLINE
  5
13b
100
AcDbEntity
  8
reindeer_cut_copy
 62
7
100
AcDbSpline
 70
8
 71
3
 72
8
 73
4
 74
0
 40
0
 40
0
 40
0
 40
0
 40
1
 40
1
 40
1
 40
1
 10
25.840451
 20
40.927546
 30
0.0
 10
25.844747
 20
40.924278
 30
0.0
 10
25.849811
 20
40.921787
 30
0.0
 10
25.854091
 20
40.918513
 30
0.0
  0
LWPOLYLINE
  5
13c
100
AcDbEntity
  8
reindeer_cut_copy
 62
7
100
AcDbPolyline
 90
1
 70
1
 10
64.040717
 20
27.672457
 30
0.0
  0
SPLINE
  5
13d
100
AcDbEntity
  8
reindeer_cut_copy
 62
7
100
AcDbSpline
 70
8
 71
3
 72
8
 73
4
 74
0
 40
0
 40
0
 40
0
 40
0
 40
1
 40
1
 40
1
 40
1
 10
25.830778
 20
40.934666
 30
0.0
 10
25.834317
 20
40.932449
 30
0.0
 10
25.836598
 20
40.930047
 30
0.0
 10
25.840053
 20
40.927816
 30
0.0
  0
SPLINE
  5
13e
100
AcDbEntity
  8
reindeer_cut_copy
 62
7
100
AcDbSpline
 70
8
 71
3
 72
8
 73
4
 74
0
 40
0
 40
0
 40
0
 40
0
 40
1
 40
1
 40
1
 40
1
 10
25.840053
 20
40.927816
 30
0.0
 10
25.168931
 20
41.434037
 30
0.0
 10
24.152786
 20
41.611759
 30
0.0
 10
23.175022
 20
41.518423
 30
0.0
  0
SPLINE
  5
13f
100
AcDbEntity
  8
reindeer_cut_copy
 62
7
100
AcDbSpline
 70
8
 71
3
 72
8
 73
4
 74
0
 40
0
 40
0
 40
0
 40
0
 40
1
 40
1
 40
1
 40
1
 10
23.175022
 20
41.518423
 30
0.0
 10
22.258703
 20
41.430954
 30
0.0
 10
21.356723
 20
41.093224
 30
0.0
 10
20.857835
 20
40.407840
 30
0.0
  0
SPLINE
  5
140
100
AcDbEntity
  8
reindeer_cut_copy
 62
7
100
AcDbSpline
 70
8
 71
3
 72
8
 73
4
 74
0
 40
0
 40
0
 40
0
 40
0
 40
1
 40
1
 40
1
 40
1
 10
20.857835
 20
40.407840
 30
0.0
 10
18.704578
 20
40.439971
 30
0.0
 10
16.205765
 20
40.668673
 30
0.0
 10
14.090611
 20
41.109076
 30
0.0
  0
SPLINE
  5
141
100
AcDbEntity
  8
reindeer_cut_copy
 62
7
100
AcDbSpline
 70
8
 71
3
 72
8
 73
4
 74
0
 40
0
 40
0
 40
0
 40
0
 40
1
 40
1
 40
1
 40
1
 10
14.090611
 20
41.109076
 30
0.0
 10
13.863911
 20
41.294902
 30
0.0
 10
13.790780
 20
41.357341
 30
0.0
 10
13.697654
 20
41.462254
 30
0.0
  0
SPLINE
  5
142
100
AcDbEntity
  8
reindeer_cut_copy
 62
7
100
AcDbSpline
 70
8
 71
3
 72
8
 73
4
 74
0
 40
0
 40
0
 40
0
 40
0
 40
1
 40
1
 40
1
 40
1
 10
13.697654
 20
41.462254
 30
0.0
 10
13.594586
 20
41.578377
 30
0.0
 10
13.432991
 20
41.781217
 30
0.0
 10
12.979701
 20
42.283493
 30
0.0
  0
SPLINE
  5
143
100
AcDbEntity
  8
reindeer_cut_copy
 62
7
100
AcDbSpline
 70
8
 71
3
 72
8
 73
4
 74
0
 40
0
 40
0
 40
0
 40
0
 40
1
 40
1
 40
1
 40
1
 10
12.979701
 20
42.283493
 30
0.0
 10
12.888788
 20
42.384217
 30
0.0
 10
12.741822
 20
42.411864
 30
0.0
 10
12.620523
 20
42.351062
 30
0.0
  0
LWPOLYLINE
  5
144
100
AcDbEntity
  8
reindeer_cut_copy
 62
7
100
AcDbPolyline
 90
2
 70
0
 10
25.854091
 20
40.918513
 30
0.0
 10
25.830778
 20
40.934666
 30
0.0
  0
SPLINE
  5
145
100
AcDbEntity
  8
reindeer_cut_copy
 62
7
100
AcDbSpline
 70
8
 71
3
 72
8
 73
4
 74
0
 40
0
 40
0
 40
0
 40
0
 40
1
 40
1
 40
1
 40
1
 10
9.944938
 20
41.008969
 30
0.0
 10
9.796660
 20
40.934568
 30
0.0
 10
9.736264
 20
40.754415
 30
0.0
 10
9.809733
 20
40.605674
 30
0.0
  0
LWPOLYLINE
  5
146
100
AcDbEntity
  8
reindeer_cut_copy
 62
7
100
AcDbPolyline
 90
2
 70
0
 10
12.620523
 20
42.351062
 30
0.0
 10
9.944938
 20
41.008969
 30
0.0
  0
SPLINE
  5
147
100
AcDbEntity
  8
reindeer_cut_copy
 62
7
100
AcDbSpline
 70
8
 71
3
 72
8
 73
4
 74
0
 40
0
 40
0
 40
0
 40
0
 40
1
 40
1
 40
1
 40
1
 10
10.575733
 20
39.055500
 30
0.0
 10
10.603528
 20
38.999258
 30
0.0
 10
10.648164
 20
38.953079
 30
0.0
 10
10.703430
 20
38.923388
 30
0.0
  0
SPLINE
  5
148
100
AcDbEntity
  8
reindeer_cut_copy
 62
7
100
AcDbSpline
 70
8
 71
3
 72
8
 73
4
 74
0
 40
0
 40
0
 40
0
 40
0
 40
1
 40
1
 40
1
 40
1
 10
10.703430
 20
38.923388
 30
0.0
 10
10.980756
 20
38.774470
 30
0.0
 10
11.229151
 20
38.643428
 30
0.0
 10
11.483015
 20
38.508978
 30
0.0
  0
LWPOLYLINE
  5
149
100
AcDbEntity
  8
reindeer_cut_copy
 62
7
100
AcDbPolyline
 90
2
 70
0
 10
9.809733
 20
40.605674
 30
0.0
 10
10.575733
 20
39.055500
 30
0.0
  0
SPLINE
  5
14a
100
AcDbEntity
  8
reindeer_cut_copy
 62
7
100
AcDbSpline
 70
8
 71
3
 72
8
 73
4
 74
0
 40
0
 40
0
 40
0
 40
0
 40
1
 40
1
 40
1
 40
1
 10
11.358375
 20
38.389778
 30
0.0
 10
11.252492
 20
38.288454
 30
0.0
 10
11.234733
 20
38.125697
 30
0.0
 10
11.316271
 20
38.003921
 30
0.0
  0
SPLINE
  5
14b
100
AcDbEntity
  8
reindeer_cut_copy
 62
7
100
AcDbSpline
 70
8
 71
3
 72
8
 73
4
 74
0
 40
0
 40
0
 40
0
 40
0
 40
1
 40
1
 40
1
 40
1
 10
11.316271
 20
38.003921
 30
0.0
 10
11.906716
 20
37.122066
 30
0.0
 10
13.352338
 20
36.357649
 30
0.0
 10
14.716861
 20
35.720125
 30
0.0
  0
SPLINE
  5
14c
100
AcDbEntity
  8
reindeer_cut_copy
 62
7
100
AcDbSpline
 70
8
 71
3
 72
8
 73
4
 74
0
 40
0
 40
0
 40
0
 40
0
 40
1
 40
1
 40
1
 40
1
 10
14.716861
 20
35.720125
 30
0.0
 10
15.399119
 20
35.401362
 30
0.0
 10
16.058822
 20
35.127460
 30
0.0
 10
16.571241
 20
34.926630
 30
0.0
  0
SPLINE
  5
14d
100
AcDbEntity
  8
reindeer_cut_copy
 62
7
100
AcDbSpline
 70
8
 71
3
 72
8
 73
4
 74
0
 40
0
 40
0
 40
0
 40
0
 40
1
 40
1
 40
1
 40
1
 10
16.571241
 20
34.926630
 30
0.0
 10
17.066744
 20
34.732435
 30
0.0
 10
17.373739
 20
34.622603
 30
0.0
 10
17.524125
 20
34.579524
 30
0.0
  0
SPLINE
  5
14e
100
AcDbEntity
  8
reindeer_cut_copy
 62
7
100
AcDbSpline
 70
8
 71
3
 72
8
 73
4
 74
0
 40
0
 40
0
 40
0
 40
0
 40
1
 40
1
 40
1
 40
1
 10
17.524125
 20
34.579524
 30
0.0
 10
17.571271
 20
34.556970
 30
0.0
 10
17.607853
 20
34.546572
 30
0.0
 10
17.640378
 20
34.538282
 30
0.0
  0
SPLINE
  5
14f
100
AcDbEntity
  8
reindeer_cut_copy
 62
7
100
AcDbSpline
 70
8
 71
3
 72
8
 73
4
 74
0
 40
0
 40
0
 40
0
 40
0
 40
1
 40
1
 40
1
 40
1
 10
17.640378
 20
34.538282
 30
0.0
 10
17.675689
 20
34.529279
 30
0.0
 10
17.705966
 20
34.523049
 30
0.0
 10
17.734346
 20
34.516841
 30
0.0
  0
SPLINE
  5
150
100
AcDbEntity
  8
reindeer_cut_copy
 62
7
100
AcDbSpline
 70
8
 71
3
 72
8
 73
4
 74
0
 40
0
 40
0
 40
0
 40
0
 40
1
 40
1
 40
1
 40
1
 10
17.734346
 20
34.516841
 30
0.0
 10
17.838594
 20
34.478396
 30
0.0
 10
17.949296
 20
34.432770
 30
0.0
 10
18.073446
 20
34.390446
 30
0.0
  0
SPLINE
  5
151
100
AcDbEntity
  8
reindeer_cut_copy
 62
7
100
AcDbSpline
 70
8
 71
3
 72
8
 73
4
 74
0
 40
0
 40
0
 40
0
 40
0
 40
1
 40
1
 40
1
 40
1
 10
18.073446
 20
34.390446
 30
0.0
 10
18.095573
 20
34.382888
 30
0.0
 10
18.118504
 20
34.377928
 30
0.0
 10
18.141777
 20
34.375665
 30
0.0
  0
SPLINE
  5
152
100
AcDbEntity
  8
reindeer_cut_copy
 62
7
100
AcDbSpline
 70
8
 71
3
 72
8
 73
4
 74
0
 40
0
 40
0
 40
0
 40
0
 40
1
 40
1
 40
1
 40
1
 10
18.141777
 20
34.375665
 30
0.0
 10
18.628227
 20
34.328664
 30
0.0
 10
19.104964
 20
34.344261
 30
0.0
 10
19.566441
 20
34.356713
 30
0.0
  0
SPLINE
  5
153
100
AcDbEntity
  8
reindeer_cut_copy
 62
7
100
AcDbSpline
 70
8
 71
3
 72
8
 73
4
 74
0
 40
0
 40
0
 40
0
 40
0
 40
1
 40
1
 40
1
 40
1
 10
19.566441
 20
34.356713
 30
0.0
 10
19.567374
 20
34.356722
 30
0.0
 10
19.568308
 20
34.356735
 30
0.0
 10
19.569241
 20
34.356752
 30
0.0
  0
SPLINE
  5
154
100
AcDbEntity
  8
reindeer_cut_copy
 62
7
100
AcDbSpline
 70
8
 71
3
 72
8
 73
4
 74
0
 40
0
 40
0
 40
0
 40
0
 40
1
 40
1
 40
1
 40
1
 10
19.569241
 20
34.356752
 30
0.0
 10
19.911122
 20
34.369147
 30
0.0
 10
20.252648
 20
34.388473
 30
0.0
 10
20.593570
 20
34.414215
 30
0.0
  0
SPLINE
  5
155
100
AcDbEntity
  8
reindeer_cut_copy
 62
7
100
AcDbSpline
 70
8
 71
3
 72
8
 73
4
 74
0
 40
0
 40
0
 40
0
 40
0
 40
1
 40
1
 40
1
 40
1
 10
20.593570
 20
34.414215
 30
0.0
 10
20.594800
 20
34.414299
 30
0.0
 10
20.596030
 20
34.414391
 30
0.0
 10
20.597259
 20
34.414491
 30
0.0
  0
SPLINE
  5
156
100
AcDbEntity
  8
reindeer_cut_copy
 62
7
100
AcDbSpline
 70
8
 71
3
 72
8
 73
4
 74
0
 40
0
 40
0
 40
0
 40
0
 40
1
 40
1
 40
1
 40
1
 10
20.597259
 20
34.414491
 30
0.0
 10
20.617359
 20
34.416246
 30
0.0
 10
20.655141
 20
34.419085
 30
0.0
 10
20.685872
 20
34.421602
 30
0.0
  0
SPLINE
  5
157
100
AcDbEntity
  8
reindeer_cut_copy
 62
7
100
AcDbSpline
 70
8
 71
3
 72
8
 73
4
 74
0
 40
0
 40
0
 40
0
 40
0
 40
1
 40
1
 40
1
 40
1
 10
20.685872
 20
34.421602
 30
0.0
 10
21.383994
 20
34.478186
 30
0.0
 10
22.083180
 20
34.561200
 30
0.0
 10
22.777400
 20
34.689131
 30
0.0
  0
SPLINE
  5
158
100
AcDbEntity
  8
reindeer_cut_copy
 62
7
100
AcDbSpline
 70
8
 71
3
 72
8
 73
4
 74
0
 40
0
 40
0
 40
0
 40
0
 40
1
 40
1
 40
1
 40
1
 10
22.777400
 20
34.689131
 30
0.0
 10
22.778451
 20
34.689323
 30
0.0
 10
22.779501
 20
34.689521
 30
0.0
 10
22.780550
 20
34.689725
 30
0.0
  0
SPLINE
  5
159
100
AcDbEntity
  8
reindeer_cut_copy
 62
7
100
AcDbSpline
 70
8
 71
3
 72
8
 73
4
 74
0
 40
0
 40
0
 40
0
 40
0
 40
1
 40
1
 40
1
 40
1
 10
22.780550
 20
34.689725
 30
0.0
 10
22.857826
 20
34.704805
 30
0.0
 10
22.943155
 20
34.708713
 30
0.0
 10
23.031425
 20
34.708379
 30
0.0
  0
SPLINE
  5
15a
100
AcDbEntity
  8
reindeer_cut_copy
 62
7
100
AcDbSpline
 70
8
 71
3
 72
8
 73
4
 74
0
 40
0
 40
0
 40
0
 40
0
 40
1
 40
1
 40
1
 40
1
 10
23.031425
 20
34.708379
 30
0.0
 10
23.391125
 20
34.196623
 30
0.0
 10
24.021407
 20
33.161677
 30
0.0
 10
25.034474
 20
32.062190
 30
0.0
  0
SPLINE
  5
15b
100
AcDbEntity
  8
reindeer_cut_copy
 62
7
100
AcDbSpline
 70
8
 71
3
 72
8
 73
4
 74
0
 40
0
 40
0
 40
0
 40
0
 40
1
 40
1
 40
1
 40
1
 10
25.034474
 20
32.062190
 30
0.0
 10
25.930843
 20
31.089357
 30
0.0
 10
27.138223
 20
30.078407
 30
0.0
 10
28.737965
 20
29.338927
 30
0.0
  0
LWPOLYLINE
  5
15c
100
AcDbEntity
  8
reindeer_cut_copy
 62
7
100
AcDbPolyline
 90
2
 70
0
 10
11.483015
 20
38.508978
 30
0.0
 10
11.358375
 20
38.389778
 30
0.0
  0
SPLINE
  5
15d
100
AcDbEntity
  8
reindeer_cut_copy
 62
7
100
AcDbSpline
 70
8
 71
3
 72
8
 73
4
 74
0
 40
0
 40
0
 40
0
 40
0
 40
1
 40
1
 40
1
 40
1
 10
53.672311
 20
1.980055
 30
0.0
 10
53.675146
 20
1.983480
 30
0.0
 10
53.678335
 20
1.986594
 30
0.0
 10
53.681169
 20
1.989992
 30
0.0
  0
LWPOLYLINE
  5
15e
100
AcDbEntity
  8
reindeer_cut_copy
 62
7
100
AcDbPolyline
 90
2
 70
0
 10
28.737965
 20
29.338927
 30
0.0
 10
53.672311
 20
1.980055
 30
0.0
  0
SPLINE
  5
15f
100
AcDbEntity
  8
reindeer_cut_copy
 62
7
100
AcDbSpline
 70
8
 71
3
 72
8
 73
4
 74
0
 40
0
 40
0
 40
0
 40
0
 40
1
 40
1
 40
1
 40
1
 10
54.008795
 20
2.123291
 30
0.0
 10
54.011315
 20
2.124276
 30
0.0
 10
54.013740
 20
2.125220
 30
0.0
 10
54.016240
 20
2.126205
 30
0.0
  0
SPLINE
  5
160
100
AcDbEntity
  8
reindeer_cut_copy
 62
7
100
AcDbSpline
 70
8
 71
3
 72
8
 73
4
 74
0
 40
0
 40
0
 40
0
 40
0
 40
1
 40
1
 40
1
 40
1
 10
54.016240
 20
2.126205
 30
0.0
 10
54.278280
 20
2.232594
 30
0.0
 10
54.535535
 20
2.317154
 30
0.0
 10
54.791945
 20
2.397756
 30
0.0
  0
SPLINE
  5
161
100
AcDbEntity
  8
reindeer_cut_copy
 62
7
100
AcDbSpline
 70
8
 71
3
 72
8
 73
4
 74
0
 40
0
 40
0
 40
0
 40
0
 40
1
 40
1
 40
1
 40
1
 10
54.791945
 20
2.397756
 30
0.0
 10
54.987972
 20
2.456756
 30
0.0
 10
55.183358
 20
2.509543
 30
0.0
 10
55.378906
 20
2.557906
 30
0.0
  0
LWPOLYLINE
  5
162
100
AcDbEntity
  8
reindeer_cut_copy
 62
7
100
AcDbPolyline
 90
2
 70
0
 10
53.681169
 20
1.989992
 30
0.0
 10
54.008795
 20
2.123291
 30
0.0
  0
SPLINE
  5
163
100
AcDbEntity
  8
reindeer_cut_copy
 62
7
100
AcDbSpline
 70
8
 71
3
 72
8
 73
4
 74
0
 40
0
 40
0
 40
0
 40
0
 40
1
 40
1
 40
1
 40
1
 10
55.555421
 20
2.601551
 30
0.0
 10
57.543461
 20
3.055327
 30
0.0
 10
59.392965
 20
2.840059
 30
0.0
 10
61.282335
 20
2.586520
 30
0.0
  0
SPLINE
  5
164
100
AcDbEntity
  8
reindeer_cut_copy
 62
7
100
AcDbSpline
 70
8
 71
3
 72
8
 73
4
 74
0
 40
0
 40
0
 40
0
 40
0
 40
1
 40
1
 40
1
 40
1
 10
61.282335
 20
2.586520
 30
0.0
 10
61.401296
 20
2.570542
 30
0.0
 10
61.518415
 20
2.626598
 30
0.0
 10
61.580587
 20
2.729272
 30
0.0
  0
SPLINE
  5
165
100
AcDbEntity
  8
reindeer_cut_copy
 62
7
100
AcDbSpline
 70
8
 71
3
 72
8
 73
4
 74
0
 40
0
 40
0
 40
0
 40
0
 40
1
 40
1
 40
1
 40
1
 10
61.580587
 20
2.729272
 30
0.0
 10
62.139283
 20
3.652654
 30
0.0
 10
63.129791
 20
4.895106
 30
0.0
 10
63.915587
 20
5.975327
 30
0.0
  0
SPLINE
  5
166
100
AcDbEntity
  8
reindeer_cut_copy
 62
7
100
AcDbSpline
 70
8
 71
3
 72
8
 73
4
 74
0
 40
0
 40
0
 40
0
 40
0
 40
1
 40
1
 40
1
 40
1
 10
63.915587
 20
5.975327
 30
0.0
 10
64.308488
 20
6.515441
 30
0.0
 10
64.650709
 20
7.014154
 30
0.0
 10
64.870614
 20
7.436748
 30
0.0
  0
SPLINE
  5
167
100
AcDbEntity
  8
reindeer_cut_copy
 62
7
100
AcDbSpline
 70
8
 71
3
 72
8
 73
4
 74
0
 40
0
 40
0
 40
0
 40
0
 40
1
 40
1
 40
1
 40
1
 10
64.870614
 20
7.436748
 30
0.0
 10
64.980567
 20
7.648039
 30
0.0
 10
65.061925
 20
7.838803
 30
0.0
 10
65.098512
 20
8.028697
 30
0.0
  0
SPLINE
  5
168
100
AcDbEntity
  8
reindeer_cut_copy
 62
7
100
AcDbSpline
 70
8
 71
3
 72
8
 73
4
 74
0
 40
0
 40
0
 40
0
 40
0
 40
1
 40
1
 40
1
 40
1
 10
65.098512
 20
8.028697
 30
0.0
 10
65.135102
 20
8.218591
 30
0.0
 10
65.122957
 20
8.449984
 30
0.0
 10
64.961185
 20
8.615146
 30
0.0
  0
LWPOLYLINE
  5
169
100
AcDbEntity
  8
reindeer_cut_copy
 62
7
100
AcDbPolyline
 90
2
 70
0
 10
55.378906
 20
2.557906
 30
0.0
 10
55.555421
 20
2.601551
 30
0.0
  0
SPLINE
  5
16a
100
AcDbEntity
  8
reindeer_cut_copy
 62
7
100
AcDbSpline
 70
8
 71
3
 72
8
 73
4
 74
0
 40
0
 40
0
 40
0
 40
0
 40
1
 40
1
 40
1
 40
1
 10
64.990543
 20
8.580331
 30
0.0
 10
64.343193
 20
9.479870
 30
0.0
 10
62.721764
 20
12.898496
 30
0.0
 10
62.343720
 20
14.198741
 30
0.0
  0
SPLINE
  5
16b
100
AcDbEntity
  8
reindeer_cut_copy
 62
7
100
AcDbSpline
 70
8
 71
3
 72
8
 73
4
 74
0
 40
0
 40
0
 40
0
 40
0
 40
1
 40
1
 40
1
 40
1
 10
62.343720
 20
14.198741
 30
0.0
 10
62.117138
 20
15.131191
 30
0.0
 10
62.313091
 20
15.965502
 30
0.0
 10
62.655634
 20
16.665100
 30
0.0
  0
SPLINE
  5
16c
100
AcDbEntity
  8
reindeer_cut_copy
 62
7
100
AcDbSpline
 70
8
 71
3
 72
8
 73
4
 74
0
 40
0
 40
0
 40
0
 40
0
 40
1
 40
1
 40
1
 40
1
 10
62.655634
 20
16.665100
 30
0.0
 10
62.695516
 20
16.635793
 30
0.0
 10
62.744945
 20
16.618049
 30
0.0
 10
62.792382
 20
16.619154
 30
0.0
  0
SPLINE
  5
16d
100
AcDbEntity
  8
reindeer_cut_copy
 62
7
100
AcDbSpline
 70
8
 71
3
 72
8
 73
4
 74
0
 40
0
 40
0
 40
0
 40
0
 40
1
 40
1
 40
1
 40
1
 10
62.792382
 20
16.619154
 30
0.0
 10
62.854476
 20
16.620602
 30
0.0
 10
62.906650
 20
16.645466
 30
0.0
 10
62.953354
 20
16.676962
 30
0.0
  0
SPLINE
  5
16e
100
AcDbEntity
  8
reindeer_cut_copy
 62
7
100
AcDbSpline
 70
8
 71
3
 72
8
 73
4
 74
0
 40
0
 40
0
 40
0
 40
0
 40
1
 40
1
 40
1
 40
1
 10
62.953354
 20
16.676962
 30
0.0
 10
63.046764
 20
16.739946
 30
0.0
 10
63.128740
 20
16.837198
 30
0.0
 10
63.213449
 20
16.950788
 30
0.0
  0
SPLINE
  5
16f
100
AcDbEntity
  8
reindeer_cut_copy
 62
7
100
AcDbSpline
 70
8
 71
3
 72
8
 73
4
 74
0
 40
0
 40
0
 40
0
 40
0
 40
1
 40
1
 40
1
 40
1
 10
63.213449
 20
16.950788
 30
0.0
 10
63.232921
 20
16.976905
 30
0.0
 10
63.287909
 20
17.044853
 30
0.0
 10
63.321350
 20
17.088012
 30
0.0
  0
SPLINE
  5
170
100
AcDbEntity
  8
reindeer_cut_copy
 62
7
100
AcDbSpline
 70
8
 71
3
 72
8
 73
4
 74
0
 40
0
 40
0
 40
0
 40
0
 40
1
 40
1
 40
1
 40
1
 10
63.321350
 20
17.088012
 30
0.0
 10
63.749528
 20
16.905702
 30
0.0
 10
64.259539
 20
17.000636
 30
0.0
 10
64.568748
 20
17.377863
 30
0.0
  0
SPLINE
  5
171
100
AcDbEntity
  8
reindeer_cut_copy
 62
7
100
AcDbSpline
 70
8
 71
3
 72
8
 73
4
 74
0
 40
0
 40
0
 40
0
 40
0
 40
1
 40
1
 40
1
 40
1
 10
64.568748
 20
17.377863
 30
0.0
 10
64.845941
 20
17.716025
 30
0.0
 10
64.877114
 20
18.172839
 30
0.0
 10
64.692154
 20
18.540939
 30
0.0
  0
SPLINE
  5
172
100
AcDbEntity
  8
reindeer_cut_copy
 62
7
100
AcDbSpline
 70
8
 71
3
 72
8
 73
4
 74
0
 40
0
 40
0
 40
0
 40
0
 40
1
 40
1
 40
1
 40
1
 10
64.692154
 20
18.540939
 30
0.0
 10
64.826461
 20
18.649756
 30
0.0
 10
64.960937
 20
18.747102
 30
0.0
 10
65.091437
 20
18.822943
 30
0.0
  0
SPLINE
  5
173
100
AcDbEntity
  8
reindeer_cut_copy
 62
7
100
AcDbSpline
 70
8
 71
3
 72
8
 73
4
 74
0
 40
0
 40
0
 40
0
 40
0
 40
1
 40
1
 40
1
 40
1
 10
65.091437
 20
18.822943
 30
0.0
 10
65.160091
 20
18.862843
 30
0.0
 10
65.220201
 20
18.925570
 30
0.0
 10
65.243075
 20
19.007068
 30
0.0
  0
SPLINE
  5
174
100
AcDbEntity
  8
reindeer_cut_copy
 62
7
100
AcDbSpline
 70
8
 71
3
 72
8
 73
4
 74
0
 40
0
 40
0
 40
0
 40
0
 40
1
 40
1
 40
1
 40
1
 10
65.243075
 20
19.007068
 30
0.0
 10
65.259287
 20
19.064850
 30
0.0
 10
65.256283
 20
19.125665
 30
0.0
 10
65.240476
 20
19.188384
 30
0.0
  0
SPLINE
  5
175
100
AcDbEntity
  8
reindeer_cut_copy
 62
7
100
AcDbSpline
 70
8
 71
3
 72
8
 73
4
 74
0
 40
0
 40
0
 40
0
 40
0
 40
1
 40
1
 40
1
 40
1
 10
65.240476
 20
19.188384
 30
0.0
 10
65.632870
 20
19.331711
 30
0.0
 10
66.086752
 20
19.481575
 30
0.0
 10
66.614280
 20
19.637728
 30
0.0
  0
SPLINE
  5
176
100
AcDbEntity
  8
reindeer_cut_copy
 62
7
100
AcDbSpline
 70
8
 71
3
 72
8
 73
4
 74
0
 40
0
 40
0
 40
0
 40
0
 40
1
 40
1
 40
1
 40
1
 10
66.614280
 20
19.637728
 30
0.0
 10
67.798520
 20
19.988237
 30
0.0
 10
69.196835
 20
20.355837
 30
0.0
 10
70.312142
 20
20.698977
 30
0.0
  0
SPLINE
  5
177
100
AcDbEntity
  8
reindeer_cut_copy
 62
7
100
AcDbSpline
 70
8
 71
3
 72
8
 73
4
 74
0
 40
0
 40
0
 40
0
 40
0
 40
1
 40
1
 40
1
 40
1
 10
70.312142
 20
20.698977
 30
0.0
 10
71.562598
 20
20.879431
 30
0.0
 10
72.161539
 20
20.531211
 30
0.0
 10
72.635484
 20
20.080909
 30
0.0
  0
SPLINE
  5
178
100
AcDbEntity
  8
reindeer_cut_copy
 62
7
100
AcDbSpline
 70
8
 71
3
 72
8
 73
4
 74
0
 40
0
 40
0
 40
0
 40
0
 40
1
 40
1
 40
1
 40
1
 10
72.635484
 20
20.080909
 30
0.0
 10
73.519252
 20
18.949817
 30
0.0
 10
74.408055
 20
17.803200
 30
0.0
 10
75.516972
 20
16.984496
 30
0.0
  0
SPLINE
  5
179
100
AcDbEntity
  8
reindeer_cut_copy
 62
7
100
AcDbSpline
 70
8
 71
3
 72
8
 73
4
 74
0
 40
0
 40
0
 40
0
 40
0
 40
1
 40
1
 40
1
 40
1
 10
75.516972
 20
16.984496
 30
0.0
 10
76.545024
 20
16.225493
 30
0.0
 10
77.781169
 20
15.769124
 30
0.0
 10
79.307988
 20
15.896451
 30
0.0
  0
SPLINE
  5
17a
100
AcDbEntity
  8
reindeer_cut_copy
 62
7
100
AcDbSpline
 70
8
 71
3
 72
8
 73
4
 74
0
 40
0
 40
0
 40
0
 40
0
 40
1
 40
1
 40
1
 40
1
 10
79.307988
 20
15.896451
 30
0.0
 10
79.419866
 20
15.750505
 30
0.0
 10
79.552232
 20
15.616228
 30
0.0
 10
79.697283
 20
15.497327
 30
0.0
  0
SPLINE
  5
17b
100
AcDbEntity
  8
reindeer_cut_copy
 62
7
100
AcDbSpline
 70
8
 71
3
 72
8
 73
4
 74
0
 40
0
 40
0
 40
0
 40
0
 40
1
 40
1
 40
1
 40
1
 10
79.697283
 20
15.497327
 30
0.0
 10
80.018921
 20
15.233685
 30
0.0
 10
80.394701
 20
15.120773
 30
0.0
 10
80.755213
 20
15.164588
 30
0.0
  0
SPLINE
  5
17c
100
AcDbEntity
  8
reindeer_cut_copy
 62
7
100
AcDbSpline
 70
8
 71
3
 72
8
 73
4
 74
0
 40
0
 40
0
 40
0
 40
0
 40
1
 40
1
 40
1
 40
1
 10
80.755213
 20
15.164588
 30
0.0
 10
81.115748
 20
15.208381
 30
0.0
 10
81.454697
 20
15.405846
 30
0.0
 10
81.716272
 20
15.724953
 30
0.0
  0
SPLINE
  5
17d
100
AcDbEntity
  8
reindeer_cut_copy
 62
7
100
AcDbSpline
 70
8
 71
3
 72
8
 73
4
 74
0
 40
0
 40
0
 40
0
 40
0
 40
1
 40
1
 40
1
 40
1
 10
81.716272
 20
15.724953
 30
0.0
 10
81.984732
 20
16.052465
 30
0.0
 10
82.066661
 20
16.442210
 30
0.0
 10
81.990850
 20
16.802519
 30
0.0
  0
SPLINE
  5
17e
100
AcDbEntity
  8
reindeer_cut_copy
 62
7
100
AcDbSpline
 70
8
 71
3
 72
8
 73
4
 74
0
 40
0
 40
0
 40
0
 40
0
 40
1
 40
1
 40
1
 40
1
 10
81.990850
 20
16.802519
 30
0.0
 10
81.915043
 20
17.162827
 30
0.0
 10
81.692461
 20
17.493174
 30
0.0
 10
81.377551
 20
17.751304
 30
0.0
  0
SPLINE
  5
17f
100
AcDbEntity
  8
reindeer_cut_copy
 62
7
100
AcDbSpline
 70
8
 71
3
 72
8
 73
4
 74
0
 40
0
 40
0
 40
0
 40
0
 40
1
 40
1
 40
1
 40
1
 10
81.377551
 20
17.751304
 30
0.0
 10
81.036646
 20
18.030743
 30
0.0
 10
80.609728
 20
18.137863
 30
0.0
 10
80.203244
 20
18.083943
 30
0.0
  0
SPLINE
  5
180
100
AcDbEntity
  8
reindeer_cut_copy
 62
7
100
AcDbSpline
 70
8
 71
3
 72
8
 73
4
 74
0
 40
0
 40
0
 40
0
 40
0
 40
1
 40
1
 40
1
 40
1
 10
80.203244
 20
18.083943
 30
0.0
 10
80.166268
 20
18.167780
 30
0.0
 10
80.134854
 20
18.259750
 30
0.0
 10
80.116315
 20
18.375895
 30
0.0
  0
SPLINE
  5
181
100
AcDbEntity
  8
reindeer_cut_copy
 62
7
100
AcDbSpline
 70
8
 71
3
 72
8
 73
4
 74
0
 40
0
 40
0
 40
0
 40
0
 40
1
 40
1
 40
1
 40
1
 10
80.116315
 20
18.375895
 30
0.0
 10
80.073854
 20
18.641924
 30
0.0
 10
80.087819
 20
18.984906
 30
0.0
 10
80.139236
 20
19.356909
 30
0.0
  0
SPLINE
  5
182
100
AcDbEntity
  8
reindeer_cut_copy
 62
7
100
AcDbSpline
 70
8
 71
3
 72
8
 73
4
 74
0
 40
0
 40
0
 40
0
 40
0
 40
1
 40
1
 40
1
 40
1
 10
80.139236
 20
19.356909
 30
0.0
 10
80.241744
 20
20.098535
 30
0.0
 10
80.486390
 20
20.947057
 30
0.0
 10
80.616539
 20
21.641257
 30
0.0
  0
SPLINE
  5
183
100
AcDbEntity
  8
reindeer_cut_copy
 62
7
100
AcDbSpline
 70
8
 71
3
 72
8
 73
4
 74
0
 40
0
 40
0
 40
0
 40
0
 40
1
 40
1
 40
1
 40
1
 10
80.616539
 20
21.641257
 30
0.0
 10
80.683531
 20
21.953310
 30
0.0
 10
80.588449
 20
22.267824
 30
0.0
 10
80.439433
 20
22.667972
 30
0.0
  0
SPLINE
  5
184
100
AcDbEntity
  8
reindeer_cut_copy
 62
7
100
AcDbSpline
 70
8
 71
3
 72
8
 73
4
 74
0
 40
0
 40
0
 40
0
 40
0
 40
1
 40
1
 40
1
 40
1
 10
80.439433
 20
22.667972
 30
0.0
 10
80.290252
 20
23.068548
 30
0.0
 10
80.063807
 20
23.533001
 30
0.0
 10
79.779307
 20
24.016783
 30
0.0
  0
SPLINE
  5
185
100
AcDbEntity
  8
reindeer_cut_copy
 62
7
100
AcDbSpline
 70
8
 71
3
 72
8
 73
4
 74
0
 40
0
 40
0
 40
0
 40
0
 40
1
 40
1
 40
1
 40
1
 10
79.779307
 20
24.016783
 30
0.0
 10
79.697016
 20
24.156715
 30
0.0
 10
79.600374
 20
24.299106
 30
0.0
 10
79.508976
 20
24.440896
 30
0.0
  0
SPLINE
  5
186
100
AcDbEntity
  8
reindeer_cut_copy
 62
7
100
AcDbSpline
 70
8
 71
3
 72
8
 73
4
 74
0
 40
0
 40
0
 40
0
 40
0
 40
1
 40
1
 40
1
 40
1
 10
79.508976
 20
24.440896
 30
0.0
 10
79.790665
 20
24.758139
 30
0.0
 10
80.160390
 20
25.171398
 30
0.0
 10
80.541689
 20
25.587277
 30
0.0
  0
SPLINE
  5
187
100
AcDbEntity
  8
reindeer_cut_copy
 62
7
100
AcDbSpline
 70
8
 71
3
 72
8
 73
4
 74
0
 40
0
 40
0
 40
0
 40
0
 40
1
 40
1
 40
1
 40
1
 10
80.541689
 20
25.587277
 30
0.0
 10
80.930504
 20
26.011355
 30
0.0
 10
81.327874
 20
26.434308
 30
0.0
 10
81.638976
 20
26.743615
 30
0.0
  0
SPLINE
  5
188
100
AcDbEntity
  8
reindeer_cut_copy
 62
7
100
AcDbSpline
 70
8
 71
3
 72
8
 73
4
 74
0
 40
0
 40
0
 40
0
 40
0
 40
1
 40
1
 40
1
 40
1
 10
81.638976
 20
26.743615
 30
0.0
 10
81.794524
 20
26.898270
 30
0.0
 10
81.929650
 20
27.025062
 30
0.0
 10
82.023217
 20
27.103802
 30
0.0
  0
SPLINE
  5
189
100
AcDbEntity
  8
reindeer_cut_copy
 62
7
100
AcDbSpline
 70
8
 71
3
 72
8
 73
4
 74
0
 40
0
 40
0
 40
0
 40
0
 40
1
 40
1
 40
1
 40
1
 10
82.023217
 20
27.103802
 30
0.0
 10
82.055028
 20
27.130584
 30
0.0
 10
82.071035
 20
27.141502
 30
0.0
 10
82.089583
 20
27.155031
 30
0.0
  0
SPLINE
  5
18a
100
AcDbEntity
  8
reindeer_cut_copy
 62
7
100
AcDbSpline
 70
8
 71
3
 72
8
 73
4
 74
0
 40
0
 40
0
 40
0
 40
0
 40
1
 40
1
 40
1
 40
1
 10
82.089583
 20
27.155031
 30
0.0
 10
82.569437
 20
27.132828
 30
0.0
 10
83.233685
 20
27.246776
 30
0.0
 10
83.896760
 20
27.469536
 30
0.0
  0
SPLINE
  5
18b
100
AcDbEntity
  8
reindeer_cut_copy
 62
7
100
AcDbSpline
 70
8
 71
3
 72
8
 73
4
 74
0
 40
0
 40
0
 40
0
 40
0
 40
1
 40
1
 40
1
 40
1
 10
83.896760
 20
27.469536
 30
0.0
 10
84.255457
 20
27.590043
 30
0.0
 10
84.601898
 20
27.741915
 30
0.0
 10
84.892004
 20
27.941326
 30
0.0
  0
SPLINE
  5
18c
100
AcDbEntity
  8
reindeer_cut_copy
 62
7
100
AcDbSpline
 70
8
 71
3
 72
8
 73
4
 74
0
 40
0
 40
0
 40
0
 40
0
 40
1
 40
1
 40
1
 40
1
 10
84.892004
 20
27.941326
 30
0.0
 10
85.182110
 20
28.140738
 30
0.0
 10
85.436909
 20
28.397332
 30
0.0
 10
85.512992
 20
28.757304
 30
0.0
  0
SPLINE
  5
18d
100
AcDbEntity
  8
reindeer_cut_copy
 62
7
100
AcDbSpline
 70
8
 71
3
 72
8
 73
4
 74
0
 40
0
 40
0
 40
0
 40
0
 40
1
 40
1
 40
1
 40
1
 10
85.512992
 20
28.757304
 30
0.0
 10
85.588028
 20
29.112342
 30
0.0
 10
85.391146
 20
29.461454
 30
0.0
 10
85.148453
 20
29.635039
 30
0.0
  0
SPLINE
  5
18e
100
AcDbEntity
  8
reindeer_cut_copy
 62
7
100
AcDbSpline
 70
8
 71
3
 72
8
 73
4
 74
0
 40
0
 40
0
 40
0
 40
0
 40
1
 40
1
 40
1
 40
1
 10
85.148453
 20
29.635039
 30
0.0
 10
84.905760
 20
29.808624
 30
0.0
 10
84.624563
 20
29.890624
 30
0.0
 10
84.349870
 20
29.948205
 30
0.0
  0
SPLINE
  5
18f
100
AcDbEntity
  8
reindeer_cut_copy
 62
7
100
AcDbSpline
 70
8
 71
3
 72
8
 73
4
 74
0
 40
0
 40
0
 40
0
 40
0
 40
1
 40
1
 40
1
 40
1
 10
84.349870
 20
29.948205
 30
0.0
 10
84.261657
 20
29.966693
 30
0.0
 10
84.176862
 20
29.977430
 30
0.0
 10
84.091063
 20
29.990105
 30
0.0
  0
SPLINE
  5
190
100
AcDbEntity
  8
reindeer_cut_copy
 62
7
100
AcDbSpline
 70
8
 71
3
 72
8
 73
4
 74
0
 40
0
 40
0
 40
0
 40
0
 40
1
 40
1
 40
1
 40
1
 10
84.091063
 20
29.990105
 30
0.0
 10
85.449087
 20
31.185944
 30
0.0
 10
86.975169
 20
31.576841
 30
0.0
 10
88.176587
 20
32.086110
 30
0.0
  0
SPLINE
  5
191
100
AcDbEntity
  8
reindeer_cut_copy
 62
7
100
AcDbSpline
 70
8
 71
3
 72
8
 73
4
 74
0
 40
0
 40
0
 40
0
 40
0
 40
1
 40
1
 40
1
 40
1
 10
88.176587
 20
32.086110
 30
0.0
 10
88.735634
 20
32.267049
 30
0.0
 10
89.249331
 20
32.524575
 30
0.0
 10
89.664559
 20
32.802220
 30
0.0
  0
SPLINE
  5
192
100
AcDbEntity
  8
reindeer_cut_copy
 62
7
100
AcDbSpline
 70
8
 71
3
 72
8
 73
4
 74
0
 40
0
 40
0
 40
0
 40
0
 40
1
 40
1
 40
1
 40
1
 10
89.664559
 20
32.802220
 30
0.0
 10
90.084965
 20
33.083330
 30
0.0
 10
90.406268
 20
33.363874
 30
0.0
 10
90.581504
 20
33.695291
 30
0.0
  0
SPLINE
  5
193
100
AcDbEntity
  8
reindeer_cut_copy
 62
7
100
AcDbSpline
 70
8
 71
3
 72
8
 73
4
 74
0
 40
0
 40
0
 40
0
 40
0
 40
1
 40
1
 40
1
 40
1
 10
90.581504
 20
33.695291
 30
0.0
 10
90.669114
 20
33.861002
 30
0.0
 10
90.732626
 20
34.080152
 30
0.0
 10
90.635228
 20
34.303418
 30
0.0
  0
SPLINE
  5
194
100
AcDbEntity
  8
reindeer_cut_copy
 62
7
100
AcDbSpline
 70
8
 71
3
 72
8
 73
4
 74
0
 40
0
 40
0
 40
0
 40
0
 40
1
 40
1
 40
1
 40
1
 10
90.635228
 20
34.303418
 30
0.0
 10
90.537831
 20
34.526678
 30
0.0
 10
90.314457
 20
34.640079
 30
0.0
 10
90.105421
 20
34.680612
 30
0.0
  0
SPLINE
  5
195
100
AcDbEntity
  8
reindeer_cut_copy
 62
7
100
AcDbSpline
 70
8
 71
3
 72
8
 73
4
 74
0
 40
0
 40
0
 40
0
 40
0
 40
1
 40
1
 40
1
 40
1
 10
90.105421
 20
34.680612
 30
0.0
 10
89.687398
 20
34.761644
 30
0.0
 10
89.146929
 20
34.674670
 30
0.0
 10
88.299110
 20
34.426056
 30
0.0
  0
SPLINE
  5
196
100
AcDbEntity
  8
reindeer_cut_copy
 62
7
100
AcDbSpline
 70
8
 71
3
 72
8
 73
4
 74
0
 40
0
 40
0
 40
0
 40
0
 40
1
 40
1
 40
1
 40
1
 10
88.299110
 20
34.426056
 30
0.0
 10
88.134390
 20
34.377756
 30
0.0
 10
88.034949
 20
34.370348
 30
0.0
 10
87.968354
 20
34.370286
 30
0.0
  0
SPLINE
  5
197
100
AcDbEntity
  8
reindeer_cut_copy
 62
7
100
AcDbSpline
 70
8
 71
3
 72
8
 73
4
 74
0
 40
0
 40
0
 40
0
 40
0
 40
1
 40
1
 40
1
 40
1
 10
87.968354
 20
34.370286
 30
0.0
 10
88.020929
 20
34.496461
 30
0.0
 10
88.173957
 20
34.774035
 30
0.0
 10
88.430000
 20
35.000529
 30
0.0
  0
SPLINE
  5
198
100
AcDbEntity
  8
reindeer_cut_copy
 62
7
100
AcDbSpline
 70
8
 71
3
 72
8
 73
4
 74
0
 40
0
 40
0
 40
0
 40
0
 40
1
 40
1
 40
1
 40
1
 10
88.430000
 20
35.000529
 30
0.0
 10
90.686740
 20
36.578104
 30
0.0
 10
91.819850
 20
37.616779
 30
0.0
 10
92.262138
 20
38.367225
 30
0.0
  0
SPLINE
  5
199
100
AcDbEntity
  8
reindeer_cut_copy
 62
7
100
AcDbSpline
 70
8
 71
3
 72
8
 73
4
 74
0
 40
0
 40
0
 40
0
 40
0
 40
1
 40
1
 40
1
 40
1
 10
92.262138
 20
38.367225
 30
0.0
 10
92.373138
 20
38.555570
 30
0.0
 10
92.447087
 20
38.731694
 30
0.0
 10
92.456476
 20
38.929272
 30
0.0
  0
SPLINE
  5
19a
100
AcDbEntity
  8
reindeer_cut_copy
 62
7
100
AcDbSpline
 70
8
 71
3
 72
8
 73
4
 74
0
 40
0
 40
0
 40
0
 40
0
 40
1
 40
1
 40
1
 40
1
 10
92.456476
 20
38.929272
 30
0.0
 10
92.465870
 20
39.126852
 30
0.0
 10
92.370118
 20
39.355175
 30
0.0
 10
92.209783
 20
39.477380
 30
0.0
  0
SPLINE
  5
19b
100
AcDbEntity
  8
reindeer_cut_copy
 62
7
100
AcDbSpline
 70
8
 71
3
 72
8
 73
4
 74
0
 40
0
 40
0
 40
0
 40
0
 40
1
 40
1
 40
1
 40
1
 10
92.209783
 20
39.477380
 30
0.0
 10
91.889134
 20
39.721779
 30
0.0
 10
91.529394
 20
39.671343
 30
0.0
 10
91.114134
 20
39.583124
 30
0.0
  0
SPLINE
  5
19c
100
AcDbEntity
  8
reindeer_cut_copy
 62
7
100
AcDbSpline
 70
8
 71
3
 72
8
 73
4
 74
0
 40
0
 40
0
 40
0
 40
0
 40
1
 40
1
 40
1
 40
1
 10
91.114134
 20
39.583124
 30
0.0
 10
90.283602
 20
39.406689
 30
0.0
 10
89.153984
 20
38.875583
 30
0.0
 10
88.028437
 20
38.062847
 30
0.0
  0
SPLINE
  5
19d
100
AcDbEntity
  8
reindeer_cut_copy
 62
7
100
AcDbSpline
 70
8
 71
3
 72
8
 73
4
 74
0
 40
0
 40
0
 40
0
 40
0
 40
1
 40
1
 40
1
 40
1
 10
88.028437
 20
38.062847
 30
0.0
 10
87.237154
 20
37.491480
 30
0.0
 10
86.456614
 20
36.777595
 30
0.0
 10
85.816835
 20
35.944533
 30
0.0
  0
SPLINE
  5
19e
100
AcDbEntity
  8
reindeer_cut_copy
 62
7
100
AcDbSpline
 70
8
 71
3
 72
8
 73
4
 74
0
 40
0
 40
0
 40
0
 40
0
 40
1
 40
1
 40
1
 40
1
 10
85.816835
 20
35.944533
 30
0.0
 10
85.808335
 20
36.005450
 30
0.0
 10
85.802492
 20
36.069024
 30
0.0
 10
85.790898
 20
36.126684
 30
0.0
  0
SPLINE
  5
19f
100
AcDbEntity
  8
reindeer_cut_copy
 62
7
100
AcDbSpline
 70
8
 71
3
 72
8
 73
4
 74
0
 40
0
 40
0
 40
0
 40
0
 40
1
 40
1
 40
1
 40
1
 10
85.790898
 20
36.126684
 30
0.0
 10
85.746602
 20
36.346856
 30
0.0
 10
85.682697
 20
36.543235
 30
0.0
 10
85.568705
 20
36.715074
 30
0.0
  0
SPLINE
  5
1a0
100
AcDbEntity
  8
reindeer_cut_copy
 62
7
100
AcDbSpline
 70
8
 71
3
 72
8
 73
4
 74
0
 40
0
 40
0
 40
0
 40
0
 40
1
 40
1
 40
1
 40
1
 10
85.568705
 20
36.715074
 30
0.0
 10
85.454677
 20
36.886941
 30
0.0
 10
85.248106
 20
37.052894
 30
0.0
 10
84.995551
 20
37.053131
 30
0.0
  0
SPLINE
  5
1a1
100
AcDbEntity
  8
reindeer_cut_copy
 62
7
100
AcDbSpline
 70
8
 71
3
 72
8
 73
4
 74
0
 40
0
 40
0
 40
0
 40
0
 40
1
 40
1
 40
1
 40
1
 10
84.995551
 20
37.053131
 30
0.0
 10
84.742992
 20
37.053367
 30
0.0
 10
84.541004
 20
36.913280
 30
0.0
 10
84.373193
 20
36.730867
 30
0.0
  0
SPLINE
  5
1a2
100
AcDbEntity
  8
reindeer_cut_copy
 62
7
100
AcDbSpline
 70
8
 71
3
 72
8
 73
4
 74
0
 40
0
 40
0
 40
0
 40
0
 40
1
 40
1
 40
1
 40
1
 10
84.373193
 20
36.730867
 30
0.0
 10
84.205386
 20
36.548453
 30
0.0
 10
84.051929
 20
36.302845
 30
0.0
 10
83.891406
 20
35.970467
 30
0.0
  0
SPLINE
  5
1a3
100
AcDbEntity
  8
reindeer_cut_copy
 62
7
100
AcDbSpline
 70
8
 71
3
 72
8
 73
4
 74
0
 40
0
 40
0
 40
0
 40
0
 40
1
 40
1
 40
1
 40
1
 10
83.891406
 20
35.970467
 30
0.0
 10
83.776449
 20
35.732441
 30
0.0
 10
83.657815
 20
35.430867
 30
0.0
 10
83.537417
 20
35.096442
 30
0.0
  0
SPLINE
  5
1a4
100
AcDbEntity
  8
reindeer_cut_copy
 62
7
100
AcDbSpline
 70
8
 71
3
 72
8
 73
4
 74
0
 40
0
 40
0
 40
0
 40
0
 40
1
 40
1
 40
1
 40
1
 10
83.537417
 20
35.096442
 30
0.0
 10
83.325063
 20
35.223168
 30
0.0
 10
83.071276
 20
35.267135
 30
0.0
 10
82.780571
 20
35.258371
 30
0.0
  0
SPLINE
  5
1a5
100
AcDbEntity
  8
reindeer_cut_copy
 62
7
100
AcDbSpline
 70
8
 71
3
 72
8
 73
4
 74
0
 40
0
 40
0
 40
0
 40
0
 40
1
 40
1
 40
1
 40
1
 10
82.780571
 20
35.258371
 30
0.0
 10
82.264098
 20
35.242803
 30
0.0
 10
81.596500
 20
35.063195
 30
0.0
 10
80.749902
 20
34.690560
 30
0.0
  0
SPLINE
  5
1a6
100
AcDbEntity
  8
reindeer_cut_copy
 62
7
100
AcDbSpline
 70
8
 71
3
 72
8
 73
4
 74
0
 40
0
 40
0
 40
0
 40
0
 40
1
 40
1
 40
1
 40
1
 10
80.749902
 20
34.690560
 30
0.0
 10
81.035067
 20
35.476296
 30
0.0
 10
81.376390
 20
35.961311
 30
0.0
 10
81.772220
 20
36.319585
 30
0.0
  0
SPLINE
  5
1a7
100
AcDbEntity
  8
reindeer_cut_copy
 62
7
100
AcDbSpline
 70
8
 71
3
 72
8
 73
4
 74
0
 40
0
 40
0
 40
0
 40
0
 40
1
 40
1
 40
1
 40
1
 10
81.772220
 20
36.319585
 30
0.0
 10
82.285705
 20
36.784354
 30
0.0
 10
82.928713
 20
37.054337
 30
0.0
 10
83.719276
 20
37.430437
 30
0.0
  0
SPLINE
  5
1a8
100
AcDbEntity
  8
reindeer_cut_copy
 62
7
100
AcDbSpline
 70
8
 71
3
 72
8
 73
4
 74
0
 40
0
 40
0
 40
0
 40
0
 40
1
 40
1
 40
1
 40
1
 10
83.719276
 20
37.430437
 30
0.0
 10
85.172705
 20
38.055497
 30
0.0
 10
86.030898
 20
38.556731
 30
0.0
 10
86.504083
 20
38.998963
 30
0.0
  0
SPLINE
  5
1a9
100
AcDbEntity
  8
reindeer_cut_copy
 62
7
100
AcDbSpline
 70
8
 71
3
 72
8
 73
4
 74
0
 40
0
 40
0
 40
0
 40
0
 40
1
 40
1
 40
1
 40
1
 10
86.504083
 20
38.998963
 30
0.0
 10
86.741457
 20
39.220800
 30
0.0
 10
86.908146
 20
39.433517
 30
0.0
 10
86.931421
 20
39.720188
 30
0.0
  0
SPLINE
  5
1aa
100
AcDbEntity
  8
reindeer_cut_copy
 62
7
100
AcDbSpline
 70
8
 71
3
 72
8
 73
4
 74
0
 40
0
 40
0
 40
0
 40
0
 40
1
 40
1
 40
1
 40
1
 10
86.931421
 20
39.720188
 30
0.0
 10
86.954689
 20
40.006866
 30
0.0
 10
86.739260
 20
40.272481
 30
0.0
 10
86.519000
 20
40.378769
 30
0.0
  0
SPLINE
  5
1ab
100
AcDbEntity
  8
reindeer_cut_copy
 62
7
100
AcDbSpline
 70
8
 71
3
 72
8
 73
4
 74
0
 40
0
 40
0
 40
0
 40
0
 40
1
 40
1
 40
1
 40
1
 10
86.519000
 20
40.378769
 30
0.0
 10
86.078484
 20
40.591348
 30
0.0
 10
85.513016
 20
40.561580
 30
0.0
 10
84.847811
 20
40.432806
 30
0.0
  0
SPLINE
  5
1ac
100
AcDbEntity
  8
reindeer_cut_copy
 62
7
100
AcDbSpline
 70
8
 71
3
 72
8
 73
4
 74
0
 40
0
 40
0
 40
0
 40
0
 40
1
 40
1
 40
1
 40
1
 10
84.847811
 20
40.432806
 30
0.0
 10
84.515343
 20
40.368450
 30
0.0
 10
84.163283
 20
40.270650
 30
0.0
 10
83.811150
 20
40.137261
 30
0.0
  0
SPLINE
  5
1ad
100
AcDbEntity
  8
reindeer_cut_copy
 62
7
100
AcDbSpline
 70
8
 71
3
 72
8
 73
4
 74
0
 40
0
 40
0
 40
0
 40
0
 40
1
 40
1
 40
1
 40
1
 10
83.811150
 20
40.137261
 30
0.0
 10
83.916740
 20
40.307991
 30
0.0
 10
84.029193
 20
40.483209
 30
0.0
 10
84.149193
 20
40.656614
 30
0.0
  0
SPLINE
  5
1ae
100
AcDbEntity
  8
reindeer_cut_copy
 62
7
100
AcDbSpline
 70
8
 71
3
 72
8
 73
4
 74
0
 40
0
 40
0
 40
0
 40
0
 40
1
 40
1
 40
1
 40
1
 10
84.149193
 20
40.656614
 30
0.0
 10
84.555760
 20
41.244145
 30
0.0
 10
85.017339
 20
41.830358
 30
0.0
 10
85.255874
 20
42.084806
 30
0.0
  0
SPLINE
  5
1af
100
AcDbEntity
  8
reindeer_cut_copy
 62
7
100
AcDbSpline
 70
8
 71
3
 72
8
 73
4
 74
0
 40
0
 40
0
 40
0
 40
0
 40
1
 40
1
 40
1
 40
1
 10
85.255874
 20
42.084806
 30
0.0
 10
85.827701
 20
42.694781
 30
0.0
 10
86.309295
 20
43.329185
 30
0.0
 10
86.641587
 20
43.879791
 30
0.0
  0
SPLINE
  5
1b0
100
AcDbEntity
  8
reindeer_cut_copy
 62
7
100
AcDbSpline
 70
8
 71
3
 72
8
 73
4
 74
0
 40
0
 40
0
 40
0
 40
0
 40
1
 40
1
 40
1
 40
1
 10
86.641587
 20
43.879791
 30
0.0
 10
86.807732
 20
44.155093
 30
0.0
 10
86.936862
 20
44.408427
 30
0.0
 10
87.021591
 20
44.639337
 30
0.0
  0
SPLINE
  5
1b1
100
AcDbEntity
  8
reindeer_cut_copy
 62
7
100
AcDbSpline
 70
8
 71
3
 72
8
 73
4
 74
0
 40
0
 40
0
 40
0
 40
0
 40
1
 40
1
 40
1
 40
1
 10
87.021591
 20
44.639337
 30
0.0
 10
87.106323
 20
44.870244
 30
0.0
 10
87.171063
 20
45.073366
 30
0.0
 10
87.099083
 20
45.326621
 30
0.0
  0
SPLINE
  5
1b2
100
AcDbEntity
  8
reindeer_cut_copy
 62
7
100
AcDbSpline
 70
8
 71
3
 72
8
 73
4
 74
0
 40
0
 40
0
 40
0
 40
0
 40
1
 40
1
 40
1
 40
1
 10
87.099083
 20
45.326621
 30
0.0
 10
87.072094
 20
45.421591
 30
0.0
 10
87.008953
 20
45.525446
 30
0.0
 10
86.921618
 20
45.601021
 30
0.0
  0
LWPOLYLINE
  5
1b3
100
AcDbEntity
  8
reindeer_cut_copy
 62
7
100
AcDbPolyline
 90
2
 70
0
 10
64.961185
 20
8.615146
 30
0.0
 10
64.990543
 20
8.580331
 30
0.0
  0
SPLINE
  5
1b4
100
AcDbEntity
  8
reindeer_cut_copy
 62
7
100
AcDbSpline
 70
8
 71
3
 72
8
 73
4
 74
0
 40
0
 40
0
 40
0
 40
0
 40
1
 40
1
 40
1
 40
1
 10
82.886157
 20
32.862831
 30
0.0
 10
82.880445
 20
32.839334
 30
0.0
 10
82.875016
 20
32.820868
 30
0.0
 10
82.869291
 20
32.797127
 30
0.0
  0
SPLINE
  5
1b5
100
AcDbEntity
  8
reindeer_cut_copy
 62
7
100
AcDbSpline
 70
8
 71
3
 72
8
 73
4
 74
0
 40
0
 40
0
 40
0
 40
0
 40
1
 40
1
 40
1
 40
1
 10
82.869291
 20
32.797127
 30
0.0
 10
82.419012
 20
31.224137
 30
0.0
 10
80.751835
 20
29.391918
 30
0.0
 10
78.954004
 20
27.688198
 30
0.0
  0
SPLINE
  5
1b6
100
AcDbEntity
  8
reindeer_cut_copy
 62
7
100
AcDbSpline
 70
8
 71
3
 72
8
 73
4
 74
0
 40
0
 40
0
 40
0
 40
0
 40
1
 40
1
 40
1
 40
1
 10
78.954004
 20
27.688198
 30
0.0
 10
78.953610
 20
27.924615
 30
0.0
 10
78.924890
 20
28.146678
 30
0.0
 10
78.871417
 20
28.367259
 30
0.0
  0
SPLINE
  5
1b7
100
AcDbEntity
  8
reindeer_cut_copy
 62
7
100
AcDbSpline
 70
8
 71
3
 72
8
 73
4
 74
0
 40
0
 40
0
 40
0
 40
0
 40
1
 40
1
 40
1
 40
1
 10
78.871417
 20
28.367259
 30
0.0
 10
78.860350
 20
28.412900
 30
0.0
 10
78.847772
 20
28.458335
 30
0.0
 10
78.834835
 20
28.503762
 30
0.0
  0
LWPOLYLINE
  5
1b8
100
AcDbEntity
  8
reindeer_cut_copy
 62
7
100
AcDbPolyline
 90
2
 70
0
 10
86.921618
 20
45.601021
 30
0.0
 10
86.922134
 20
45.601366
 30
0.0
  0
SPLINE
  5
1b9
100
AcDbEntity
  8
reindeer_cut_copy
 62
7
100
AcDbSpline
 70
8
 71
3
 72
8
 73
4
 74
0
 40
0
 40
0
 40
0
 40
0
 40
1
 40
1
 40
1
 40
1
 10
80.055713
 20
31.425388
 30
0.0
 10
81.200445
 20
31.797535
 30
0.0
 10
82.105445
 20
32.267253
 30
0.0
 10
82.748524
 20
32.749315
 30
0.0
  0
SPLINE
  5
1ba
100
AcDbEntity
  8
reindeer_cut_copy
 62
7
100
AcDbSpline
 70
8
 71
3
 72
8
 73
4
 74
0
 40
0
 40
0
 40
0
 40
0
 40
1
 40
1
 40
1
 40
1
 10
82.748524
 20
32.749315
 30
0.0
 10
82.799303
 20
32.787376
 30
0.0
 10
82.838276
 20
32.824942
 30
0.0
 10
82.886157
 20
32.862831
 30
0.0
  0
LWPOLYLINE
  5
1bb
100
AcDbEntity
  8
reindeer_cut_copy
 62
7
100
AcDbPolyline
 90
2
 70
0
 10
78.834835
 20
28.503762
 30
0.0
 10
80.055713
 20
31.425388
 30
0.0
  0
LWPOLYLINE
  5
1bc
100
AcDbEntity
  8
reindeer_cut_copy
 62
7
100
AcDbPolyline
 90
1
 70
1
 10
82.886157
 20
32.862831
 30
0.0
  0
LWPOLYLINE
  5
1bd
100
AcDbEntity
  8
fiducials
 62
7
100
AcDbPolyline
 90
4
 70
1
 10
1.058216
 20
46.350075
 30
0.0
 10
95.038515
 20
46.350075
 30
0.0
 10
95.038515
 20
1.369780
 30
0.0
 10
1.058216
 20
1.369780
 30
0.0
  0
ENDSEC
  0
SECTION
  2
OBJECTS
  0
DICTIONARY
  5
C
330
0
100
AcDbDictionary
  3
ACAD_GROUP
350
D
  3
ACAD_MLINESTYLE
350
17
  0
DICTIONARY
  5
D
330
C
100
AcDbDictionary
  0
DICTIONARY
  5
1A
330
C
100
AcDbDictionary
  0
DICTIONARY
  5
17
330
C
100
AcDbDictionary
  3
STANDARD
350
18
  0
DICTIONARY
  5
19
330
C
100
AcDbDictionary
  0
ENDSEC
  0
EOF
