  0
SECTION
  2
HEADER
  9
$ACADVER
  1
AC1014
  9
$HANDSEED
  5
FFFF
  9
$INSUNITS
 70
     4
  9
$MEASUREMENT
 70
     1
  0
ENDSEC
  0
SECTION
  2
TABLES
  0
TABLE
  2
VPORT
  5
8
330
0
100
AcDbSymbolTable
 70
     4
  0
VPORT
  5
2E
330
8
100
AcDbSymbolTableRecord
100
AcDbViewportTableRecord
  2
*ACTIVE
 70
     0
 10
0.0
 20
0.0
 11
1.0
 21
1.0
 12
210.0
 22
148.5
 13
0.0
 23
0.0
 14
10.0
 24
10.0
 15
10.0
 25
10.0
 16
0.0
 26
0.0
 36
1.0
 17
0.0
 27
0.0
 37
0.0
 40
341.0
 41
1.24
 42
50.0
 43
0.0
 44
0.0
 50
0.0
 51
0.0
 71
     0
 72
   100
 73
     1
 74
     3
 75
     0
 76
     0
 77
     0
 78
     0
  0
ENDTAB
  0
TABLE
  2
LTYPE
  5
5
330
0
100
AcDbSymbolTable
 70
     1
  0
LTYPE
  5
14
330
5
100
AcDbSymbolTableRecord
100
AcDbLinetypeTableRecord
  2
BYBLOCK
 70
     0
  3

 72
    65
 73
     0
 40
0.0
  0
LTYPE
  5
15
330
5
100
AcDbSymbolTableRecord
100
AcDbLinetypeTableRecord
  2
BYLAYER
 70
     0
  3

 72
    65
 73
     0
 40
0.0
  0
LTYPE
  5
16
330
5
100
AcDbSymbolTableRecord
100
AcDbLinetypeTableRecord
  2
CONTINUOUS
 70
     0
  3
Solid line
 72
    65
 73
     0
 40
0.0
  0
ENDTAB
  0
TABLE
  2
LAYER
  5
2
100
AcDbSymbolTable
 70
3
  0
LAYER
  5
50
100
AcDbSymbolTableRecord
100
AcDbLayerTableRecord
  2
0
 70
0
  6
CONTINUOUS
  0
LAYER
  5
51
100
AcDbSymbolTableRecord
100
AcDbLayerTableRecord
  2
reindeer_cut_copy
 70
0
  6
CONTINUOUS
  0
LAYER
  5
52
100
AcDbSymbolTableRecord
100
AcDbLayerTableRecord
  2
fiducials
 70
0
  6
CONTINUOUS
  0
ENDTAB
  0
TABLE
  2
STYLE
  5
3
330
0
100
AcDbSymbolTable
 70
     1
  0
STYLE
  5
11
330
3
100
AcDbSymbolTableRecord
100
AcDbTextStyleTableRecord
  2
STANDARD
 70
     0
 40
0.0
 41
1.0
 50
0.0
 71
     0
 42
2.5
  3
txt
  4

  0
ENDTAB
  0
TABLE
  2
VIEW
  5
6
330
0
100
AcDbSymbolTable
 70
     0
  0
ENDTAB
  0
TABLE
  2
UCS
  5
7
330
0
100
AcDbSymbolTable
 70
     0
  0
ENDTAB
  0
TABLE
  2
APPID
  5
9
330
0
100
AcDbSymbolTable
 70
     2
  0
APPID
  5
12
330
9
100
AcDbSymbolTableRecord
100
AcDbRegAppTableRecord
  2
ACAD
 70
     0
  0
ENDTAB
  0
TABLE
  2
DIMSTYLE
  5
A
330
0
100
AcDbSymbolTable
 70
     1
  0
DIMSTYLE
105
27
330
A
100
AcDbSymbolTableRecord
100
AcDbDimStyleTableRecord
  2
ISO-25
 70
     0
  3

  4

  5

  6

  7

 40
1.0
 41
2.5
 42
0.625
 43
3.75
 44
1.25
 45
0.0
 46
0.0
 47
0.0
 48
0.0
140
2.5
141
2.5
142
0.0
143
0.03937007874016
144
1.0
145
0.0
146
1.0
147
0.625
 71
     0
 72
     0
 73
     0
 74
     0
 75
     0
 76
     0
 77
     1
 78
     8
170
     0
171
     3
172
     1
173
     0
174
     0
175
     0
176
     0
177
     0
178
     0
270
     2
271
     2
272
     2
273
     2
274
     3
340
11
275
     0
280
     0
281
     0
282
     0
283
     0
284
     8
285
     0
286
     0
287
     3
288
     0
  0
ENDTAB
  0
TABLE
  2
BLOCK_RECORD
  5
1
330
0
100
AcDbSymbolTable
 70
     1
  0
BLOCK_RECORD
  5
1F
330
1
100
AcDbSymbolTableRecord
100
AcDbBlockTableRecord
  2
*MODEL_SPACE
  0
BLOCK_RECORD
  5
1B
330
1
100
AcDbSymbolTableRecord
100
AcDbBlockTableRecord
  2
*PAPER_SPACE
  0
ENDTAB
  0
ENDSEC
  0
SECTION
  2
BLOCKS
  0
BLOCK
  5
20
330
1F
100
AcDbEntity
  8
0
100
AcDbBlockBegin
  2
*MODEL_SPACE
 70
     0
 10
0.0
 20
0.0
 30
0.0
  3
*MODEL_SPACE
  1

  0
ENDBLK
  5
21
330
1F
100
AcDbEntity
  8
0
100
AcDbBlockEnd
  0
BLOCK
  5
1C
330
1B
100
AcDbEntity
 67
     1
  8
0
100
AcDbBlockBegin
  2
*PAPER_SPACE
  1

  0
ENDBLK
  5
1D
330
1B
100
AcDbEntity
 67
     1
  8
0
100
AcDbBlockEnd
  0
ENDSEC
  0
SECTION
  2
ENTITIES
  0
SPLINE
  5
100
100
AcDbEntity
  8
reindeer_cut_copy
 62
7
100
AcDbSpline
 70
8
 71
3
 72
8
 73
4
 74
0
 40
0
 40
0
 40
0
 40
0
 40
1
 40
1
 40
1
 40
1
 10
9.174596
 20
45.601366
 30
0.0
 10
9.203702
 20
45.626564
 30
0.0
 10
9.235505
 20
45.648540
 30
0.0
 10
9.269556
 20
45.666090
 30
0.0
  0
SPLINE
  5
101
100
AcDbEntity
  8
reindeer_cut_copy
 62
7
100
AcDbSpline
 70
8
 71
3
 72
8
 73
4
 74
0
 40
0
 40
0
 40
0
 40
0
 40
1
 40
1
 40
1
 40
1
 10
9.269556
 20
45.666090
 30
0.0
 10
9.405769
 20
45.736296
 30
0.0
 10
9.544706
 20
45.739443
 30
0.0
 10
9.667753
 20
45.721373
 30
0.0
  0
SPLINE
  5
102
100
AcDbEntity
  8
reindeer_cut_copy
 62
7
100
AcDbSpline
 70
8
 71
3
 72
8
 73
4
 74
0
 40
0
 40
0
 40
0
 40
0
 40
1
 40
1
 40
1
 40
1
 10
9.667753
 20
45.721373
 30
0.0
 10
9.913848
 20
45.685236
 30
0.0
 10
10.148407
 20
45.568658
 30
0.0
 10
10.453399
 20
45.377630
 30
0.0
  0
SPLINE
  5
103
100
AcDbEntity
  8
reindeer_cut_copy
 62
7
100
AcDbSpline
 70
8
 71
3
 72
8
 73
4
 74
0
 40
0
 40
0
 40
0
 40
0
 40
1
 40
1
 40
1
 40
1
 10
10.453399
 20
45.377630
 30
0.0
 10
11.063387
 20
44.995575
 30
0.0
 10
11.925887
 20
44.287062
 30
0.0
 10
13.145233
 20
43.114646
 30
0.0
  0
SPLINE
  5
104
100
AcDbEntity
  8
reindeer_cut_copy
 62
7
100
AcDbSpline
 70
8
 71
3
 72
8
 73
4
 74
0
 40
0
 40
0
 40
0
 40
0
 40
1
 40
1
 40
1
 40
1
 10
13.145233
 20
43.114646
 30
0.0
 10
13.155531
 20
43.104680
 30
0.0
 10
13.165239
 20
43.094123
 30
0.0
 10
13.174308
 20
43.083028
 30
0.0
  0
SPLINE
  5
105
100
AcDbEntity
  8
reindeer_cut_copy
 62
7
100
AcDbSpline
 70
8
 71
3
 72
8
 73
4
 74
0
 40
0
 40
0
 40
0
 40
0
 40
1
 40
1
 40
1
 40
1
 10
13.174308
 20
43.083028
 30
0.0
 10
13.788092
 20
42.337343
 30
0.0
 10
14.861607
 20
40.734913
 30
0.0
 10
15.439604
 20
39.668700
 30
0.0
  0
SPLINE
  5
106
100
AcDbEntity
  8
reindeer_cut_copy
 62
7
100
AcDbSpline
 70
8
 71
3
 72
8
 73
4
 74
0
 40
0
 40
0
 40
0
 40
0
 40
1
 40
1
 40
1
 40
1
 10
15.439604
 20
39.668700
 30
0.0
 10
15.439788
 20
39.668273
 30
0.0
 10
15.439972
 20
39.667847
 30
0.0
 10
15.440155
 20
39.667420
 30
0.0
  0
SPLINE
  5
107
100
AcDbEntity
  8
reindeer_cut_copy
 62
7
100
AcDbSpline
 70
8
 71
3
 72
8
 73
4
 74
0
 40
0
 40
0
 40
0
 40
0
 40
1
 40
1
 40
1
 40
1
 10
15.440155
 20
39.667420
 30
0.0
 10
15.517930
 20
39.522676
 30
0.0
 10
15.572308
 20
39.426438
 30
0.0
 10
15.634521
 20
39.313937
 30
0.0
  0
SPLINE
  5
108
100
AcDbEntity
  8
reindeer_cut_copy
 62
7
100
AcDbSpline
 70
8
 71
3
 72
8
 73
4
 74
0
 40
0
 40
0
 40
0
 40
0
 40
1
 40
1
 40
1
 40
1
 10
15.634521
 20
39.313937
 30
0.0
 10
15.651737
 20
39.385807
 30
0.0
 10
15.664202
 20
39.455609
 30
0.0
 10
15.690111
 20
39.530045
 30
0.0
  0
SPLINE
  5
109
100
AcDbEntity
  8
reindeer_cut_copy
 62
7
100
AcDbSpline
 70
8
 71
3
 72
8
 73
4
 74
0
 40
0
 40
0
 40
0
 40
0
 40
1
 40
1
 40
1
 40
1
 10
15.682560
 20
39.505873
 30
0.0
 10
15.962962
 20
40.533297
 30
0.0
 10
16.204974
 20
41.116688
 30
0.0
 10
16.655375
 20
41.408454
 30
0.0
  0
SPLINE
  5
10a
100
AcDbEntity
  8
reindeer_cut_copy
 62
7
100
AcDbSpline
 70
8
 71
3
 72
8
 73
4
 74
0
 40
0
 40
0
 40
0
 40
0
 40
1
 40
1
 40
1
 40
1
 10
16.655375
 20
41.408454
 30
0.0
 10
16.880576
 20
41.554338
 30
0.0
 10
17.229773
 20
41.545963
 30
0.0
 10
17.438190
 20
41.390947
 30
0.0
  0
SPLINE
  5
10b
100
AcDbEntity
  8
reindeer_cut_copy
 62
7
100
AcDbSpline
 70
8
 71
3
 72
8
 73
4
 74
0
 40
0
 40
0
 40
0
 40
0
 40
1
 40
1
 40
1
 40
1
 10
17.438190
 20
41.390947
 30
0.0
 10
17.646623
 20
41.235936
 30
0.0
 10
17.759005
 20
41.018605
 30
0.0
 10
17.852607
 20
40.761105
 30
0.0
  0
SPLINE
  5
10c
100
AcDbEntity
  8
reindeer_cut_copy
 62
7
100
AcDbSpline
 70
8
 71
3
 72
8
 73
4
 74
0
 40
0
 40
0
 40
0
 40
0
 40
1
 40
1
 40
1
 40
1
 10
17.852607
 20
40.761105
 30
0.0
 10
18.223942
 20
39.739611
 30
0.0
 10
18.233107
 20
37.869363
 30
0.0
 10
17.637722
 20
35.834398
 30
0.0
  0
SPLINE
  5
10d
100
AcDbEntity
  8
reindeer_cut_copy
 62
7
100
AcDbSpline
 70
8
 71
3
 72
8
 73
4
 74
0
 40
0
 40
0
 40
0
 40
0
 40
1
 40
1
 40
1
 40
1
 10
17.637722
 20
35.834398
 30
0.0
 10
17.604993
 20
35.214767
 30
0.0
 10
17.595352
 20
35.013948
 30
0.0
 10
17.818446
 20
34.185264
 30
0.0
  0
SPLINE
  5
10e
100
AcDbEntity
  8
reindeer_cut_copy
 62
7
100
AcDbSpline
 70
8
 71
3
 72
8
 73
4
 74
0
 40
0
 40
0
 40
0
 40
0
 40
1
 40
1
 40
1
 40
1
 10
17.818446
 20
34.185264
 30
0.0
 10
17.954470
 20
33.680007
 30
0.0
 10
18.234202
 20
32.777801
 30
0.0
 10
18.593190
 20
31.627064
 30
0.0
  0
SPLINE
  5
10f
100
AcDbEntity
  8
reindeer_cut_copy
 62
7
100
AcDbSpline
 70
8
 71
3
 72
8
 73
4
 74
0
 40
0
 40
0
 40
0
 40
0
 40
1
 40
1
 40
1
 40
1
 10
18.593190
 20
31.627064
 30
0.0
 10
18.605611
 20
31.659574
 30
0.0
 10
18.617899
 20
31.690317
 30
0.0
 10
18.630371
 20
31.723497
 30
0.0
  0
SPLINE
  5
110
100
AcDbEntity
  8
reindeer_cut_copy
 62
7
100
AcDbSpline
 70
8
 71
3
 72
8
 73
4
 74
0
 40
0
 40
0
 40
0
 40
0
 40
1
 40
1
 40
1
 40
1
 10
18.630371
 20
31.723497
 30
0.0
 10
18.638332
 20
31.744686
 30
0.0
 10
18.651115
 20
31.763739
 30
0.0
 10
18.667694
 20
31.779145
 30
0.0
  0
SPLINE
  5
111
100
AcDbEntity
  8
reindeer_cut_copy
 62
7
100
AcDbSpline
 70
8
 71
3
 72
8
 73
4
 74
0
 40
0
 40
0
 40
0
 40
0
 40
1
 40
1
 40
1
 40
1
 10
18.667694
 20
31.779145
 30
0.0
 10
18.684281
 20
31.794552
 30
0.0
 10
18.704218
 20
31.805895
 30
0.0
 10
18.725926
 20
31.812280
 30
0.0
  0
SPLINE
  5
112
100
AcDbEntity
  8
reindeer_cut_copy
 62
7
100
AcDbSpline
 70
8
 71
3
 72
8
 73
4
 74
0
 40
0
 40
0
 40
0
 40
0
 40
1
 40
1
 40
1
 40
1
 10
18.725926
 20
31.812280
 30
0.0
 10
18.769934
 20
31.825220
 30
0.0
 10
18.817450
 20
31.816739
 30
0.0
 10
18.854277
 20
31.789389
 30
0.0
  0
SPLINE
  5
113
100
AcDbEntity
  8
reindeer_cut_copy
 62
7
100
AcDbSpline
 70
8
 71
3
 72
8
 73
4
 74
0
 40
0
 40
0
 40
0
 40
0
 40
1
 40
1
 40
1
 40
1
 10
18.854277
 20
31.789389
 30
0.0
 10
20.086879
 20
30.873887
 30
0.0
 10
20.583828
 20
29.924168
 30
0.0
 10
20.683222
 20
28.975956
 30
0.0
  0
SPLINE
  5
114
100
AcDbEntity
  8
reindeer_cut_copy
 62
7
100
AcDbSpline
 70
8
 71
3
 72
8
 73
4
 74
0
 40
0
 40
0
 40
0
 40
0
 40
1
 40
1
 40
1
 40
1
 10
20.683222
 20
28.975956
 30
0.0
 10
20.698163
 20
28.833422
 30
0.0
 10
20.703509
 20
28.691293
 30
0.0
 10
20.702422
 20
28.549475
 30
0.0
  0
SPLINE
  5
115
100
AcDbEntity
  8
reindeer_cut_copy
 62
7
100
AcDbSpline
 70
8
 71
3
 72
8
 73
4
 74
0
 40
0
 40
0
 40
0
 40
0
 40
1
 40
1
 40
1
 40
1
 10
20.702422
 20
28.549475
 30
0.0
 10
20.705021
 20
28.333982
 30
0.0
 10
20.696726
 20
28.118988
 30
0.0
 10
20.669167
 20
27.905098
 30
0.0
  0
SPLINE
  5
116
100
AcDbEntity
  8
reindeer_cut_copy
 62
7
100
AcDbSpline
 70
8
 71
3
 72
8
 73
4
 74
0
 40
0
 40
0
 40
0
 40
0
 40
1
 40
1
 40
1
 40
1
 10
20.669167
 20
27.905098
 30
0.0
 10
21.725537
 20
28.296426
 30
0.0
 10
22.808722
 20
28.417591
 30
0.0
 10
23.976698
 20
28.373686
 30
0.0
  0
SPLINE
  5
117
100
AcDbEntity
  8
reindeer_cut_copy
 62
7
100
AcDbSpline
 70
8
 71
3
 72
8
 73
4
 74
0
 40
0
 40
0
 40
0
 40
0
 40
1
 40
1
 40
1
 40
1
 10
23.976698
 20
28.373686
 30
0.0
 10
23.978200
 20
28.373645
 30
0.0
 10
23.979701
 20
28.373592
 30
0.0
 10
23.981202
 20
28.373529
 30
0.0
  0
SPLINE
  5
118
100
AcDbEntity
  8
reindeer_cut_copy
 62
7
100
AcDbSpline
 70
8
 71
3
 72
8
 73
4
 74
0
 40
0
 40
0
 40
0
 40
0
 40
1
 40
1
 40
1
 40
1
 10
23.981202
 20
28.373529
 30
0.0
 10
27.656796
 20
28.180487
 30
0.0
 10
30.154037
 20
27.872278
 30
0.0
 10
31.983076
 20
27.583854
 30
0.0
  0
SPLINE
  5
119
100
AcDbEntity
  8
reindeer_cut_copy
 62
7
100
AcDbSpline
 70
8
 71
3
 72
8
 73
4
 74
0
 40
0
 40
0
 40
0
 40
0
 40
1
 40
1
 40
1
 40
1
 10
31.983076
 20
27.583854
 30
0.0
 10
32.001592
 20
27.620471
 30
0.0
 10
32.025730
 20
27.650881
 30
0.0
 10
32.056013
 20
27.672457
 30
0.0
  0
LWPOLYLINE
  5
11a
100
AcDbEntity
  8
reindeer_cut_copy
 62
7
100
AcDbPolyline
 90
2
 70
0
 10
15.690111
 20
39.530045
 30
0.0
 10
15.682560
 20
39.505873
 30
0.0
  0
SPLINE
  5
11b
100
AcDbEntity
  8
reindeer_cut_copy
 62
7
100
AcDbSpline
 70
8
 71
3
 72
8
 73
4
 74
0
 40
0
 40
0
 40
0
 40
0
 40
1
 40
1
 40
1
 40
1
 10
32.056037
 20
27.672472
 30
0.0
 10
32.119501
 20
27.717689
 30
0.0
 10
32.184387
 20
27.718108
 30
0.0
 10
32.219170
 20
27.720455
 30
0.0
  0
SPLINE
  5
11c
100
AcDbEntity
  8
reindeer_cut_copy
 62
7
100
AcDbSpline
 70
8
 71
3
 72
8
 73
4
 74
0
 40
0
 40
0
 40
0
 40
0
 40
1
 40
1
 40
1
 40
1
 10
32.219170
 20
27.720455
 30
0.0
 10
32.331143
 20
27.728004
 30
0.0
 10
32.513403
 20
27.706387
 30
0.0
 10
32.736930
 20
27.674604
 30
0.0
  0
SPLINE
  5
11d
100
AcDbEntity
  8
reindeer_cut_copy
 62
7
100
AcDbSpline
 70
8
 71
3
 72
8
 73
4
 74
0
 40
0
 40
0
 40
0
 40
0
 40
1
 40
1
 40
1
 40
1
 10
32.736930
 20
27.674604
 30
0.0
 10
32.788399
 20
27.898363
 30
0.0
 10
32.909627
 20
28.107627
 30
0.0
 10
33.100304
 20
28.263926
 30
0.0
  0
SPLINE
  5
11e
100
AcDbEntity
  8
reindeer_cut_copy
 62
7
100
AcDbSpline
 70
8
 71
3
 72
8
 73
4
 74
0
 40
0
 40
0
 40
0
 40
0
 40
1
 40
1
 40
1
 40
1
 10
33.100304
 20
28.263926
 30
0.0
 10
33.558269
 20
28.639318
 30
0.0
 10
34.237678
 20
28.572246
 30
0.0
 10
34.612930
 20
28.114450
 30
0.0
  0
SPLINE
  5
11f
100
AcDbEntity
  8
reindeer_cut_copy
 62
7
100
AcDbSpline
 70
8
 71
3
 72
8
 73
4
 74
0
 40
0
 40
0
 40
0
 40
0
 40
1
 40
1
 40
1
 40
1
 10
34.612930
 20
28.114450
 30
0.0
 10
34.804556
 20
27.880674
 30
0.0
 10
34.876214
 20
27.589842
 30
0.0
 10
34.843824
 20
27.310520
 30
0.0
  0
SPLINE
  5
120
100
AcDbEntity
  8
reindeer_cut_copy
 62
7
100
AcDbSpline
 70
8
 71
3
 72
8
 73
4
 74
0
 40
0
 40
0
 40
0
 40
0
 40
1
 40
1
 40
1
 40
1
 10
34.843824
 20
27.310520
 30
0.0
 10
35.024446
 20
27.278590
 30
0.0
 10
35.175883
 20
27.252810
 30
0.0
 10
35.242643
 20
27.245582
 30
0.0
  0
SPLINE
  5
121
100
AcDbEntity
  8
reindeer_cut_copy
 62
7
100
AcDbSpline
 70
8
 71
3
 72
8
 73
4
 74
0
 40
0
 40
0
 40
0
 40
0
 40
1
 40
1
 40
1
 40
1
 10
35.242643
 20
27.245582
 30
0.0
 10
35.403930
 20
27.228124
 30
0.0
 10
35.511895
 20
27.154780
 30
0.0
 10
35.554891
 20
27.064813
 30
0.0
  0
SPLINE
  5
122
100
AcDbEntity
  8
reindeer_cut_copy
 62
7
100
AcDbSpline
 70
8
 71
3
 72
8
 73
4
 74
0
 40
0
 40
0
 40
0
 40
0
 40
1
 40
1
 40
1
 40
1
 10
35.554891
 20
27.064813
 30
0.0
 10
35.574942
 20
27.022857
 30
0.0
 10
35.583922
 20
26.984053
 30
0.0
 10
35.588820
 20
26.952297
 30
0.0
  0
SPLINE
  5
123
100
AcDbEntity
  8
reindeer_cut_copy
 62
7
100
AcDbSpline
 70
8
 71
3
 72
8
 73
4
 74
0
 40
0
 40
0
 40
0
 40
0
 40
1
 40
1
 40
1
 40
1
 10
35.588820
 20
26.952297
 30
0.0
 10
35.902895
 20
26.902950
 30
0.0
 10
36.179548
 20
26.869098
 30
0.0
 10
36.392371
 20
26.870965
 30
0.0
  0
SPLINE
  5
124
100
AcDbEntity
  8
reindeer_cut_copy
 62
7
100
AcDbSpline
 70
8
 71
3
 72
8
 73
4
 74
0
 40
0
 40
0
 40
0
 40
0
 40
1
 40
1
 40
1
 40
1
 10
36.392371
 20
26.870965
 30
0.0
 10
36.828856
 20
26.874776
 30
0.0
 10
37.121682
 20
26.969899
 30
0.0
 10
37.540285
 20
27.253680
 30
0.0
  0
SPLINE
  5
125
100
AcDbEntity
  8
reindeer_cut_copy
 62
7
100
AcDbSpline
 70
8
 71
3
 72
8
 73
4
 74
0
 40
0
 40
0
 40
0
 40
0
 40
1
 40
1
 40
1
 40
1
 10
37.540285
 20
27.253680
 30
0.0
 10
38.325509
 20
27.864433
 30
0.0
 10
39.127785
 20
28.443856
 30
0.0
 10
39.930551
 20
29.026714
 30
0.0
  0
SPLINE
  5
126
100
AcDbEntity
  8
reindeer_cut_copy
 62
7
100
AcDbSpline
 70
8
 71
3
 72
8
 73
4
 74
0
 40
0
 40
0
 40
0
 40
0
 40
1
 40
1
 40
1
 40
1
 10
39.930551
 20
29.026714
 30
0.0
 10
39.930551
 20
29.039279
 30
0.0
 10
39.929803
 20
29.052130
 30
0.0
 10
39.930945
 20
29.064174
 30
0.0
  0
SPLINE
  5
127
100
AcDbEntity
  8
reindeer_cut_copy
 62
7
100
AcDbSpline
 70
8
 71
3
 72
8
 73
4
 74
0
 40
0
 40
0
 40
0
 40
0
 40
1
 40
1
 40
1
 40
1
 10
39.930945
 20
29.064174
 30
0.0
 10
39.937878
 20
29.147555
 30
0.0
 10
39.961634
 20
29.219070
 30
0.0
 10
40.024661
 20
29.271943
 30
0.0
  0
SPLINE
  5
128
100
AcDbEntity
  8
reindeer_cut_copy
 62
7
100
AcDbSpline
 70
8
 71
3
 72
8
 73
4
 74
0
 40
0
 40
0
 40
0
 40
0
 40
1
 40
1
 40
1
 40
1
 10
40.024661
 20
29.271943
 30
0.0
 10
40.091154
 20
29.327728
 30
0.0
 10
40.238579
 20
29.441620
 30
0.0
 10
40.393287
 20
29.560427
 30
0.0
  0
SPLINE
  5
129
100
AcDbEntity
  8
reindeer_cut_copy
 62
7
100
AcDbSpline
 70
8
 71
3
 72
8
 73
4
 74
0
 40
0
 40
0
 40
0
 40
0
 40
1
 40
1
 40
1
 40
1
 10
40.393287
 20
29.560427
 30
0.0
 10
40.381295
 20
29.573938
 30
0.0
 10
40.367764
 20
29.585289
 30
0.0
 10
40.356213
 20
29.599380
 30
0.0
  0
SPLINE
  5
12a
100
AcDbEntity
  8
reindeer_cut_copy
 62
7
100
AcDbSpline
 70
8
 71
3
 72
8
 73
4
 74
0
 40
0
 40
0
 40
0
 40
0
 40
1
 40
1
 40
1
 40
1
 10
40.356213
 20
29.599380
 30
0.0
 10
39.866504
 20
30.196805
 30
0.0
 10
39.954528
 20
31.082201
 30
0.0
 10
40.552205
 20
31.572106
 30
0.0
  0
SPLINE
  5
12b
100
AcDbEntity
  8
reindeer_cut_copy
 62
7
100
AcDbSpline
 70
8
 71
3
 72
8
 73
4
 74
0
 40
0
 40
0
 40
0
 40
0
 40
1
 40
1
 40
1
 40
1
 10
40.552205
 20
31.572106
 30
0.0
 10
41.149846
 20
32.061991
 30
0.0
 10
42.035311
 20
31.974561
 30
0.0
 10
42.525020
 20
31.377137
 30
0.0
  0
SPLINE
  5
12c
100
AcDbEntity
  8
reindeer_cut_copy
 62
7
100
AcDbSpline
 70
8
 71
3
 72
8
 73
4
 74
0
 40
0
 40
0
 40
0
 40
0
 40
1
 40
1
 40
1
 40
1
 10
42.525020
 20
31.377137
 30
0.0
 10
42.589134
 20
31.298917
 30
0.0
 10
42.638382
 20
31.213828
 30
0.0
 10
42.682807
 20
31.127256
 30
0.0
  0
SPLINE
  5
12d
100
AcDbEntity
  8
reindeer_cut_copy
 62
7
100
AcDbSpline
 70
8
 71
3
 72
8
 73
4
 74
0
 40
0
 40
0
 40
0
 40
0
 40
1
 40
1
 40
1
 40
1
 10
42.682807
 20
31.127256
 30
0.0
 10
42.705732
 20
31.128244
 30
0.0
 10
42.728780
 20
31.126783
 30
0.0
 10
42.750409
 20
31.120494
 30
0.0
  0
SPLINE
  5
12e
100
AcDbEntity
  8
reindeer_cut_copy
 62
7
100
AcDbSpline
 70
8
 71
3
 72
8
 73
4
 74
0
 40
0
 40
0
 40
0
 40
0
 40
1
 40
1
 40
1
 40
1
 10
42.750409
 20
31.120494
 30
0.0
 10
42.751236
 20
31.120258
 30
0.0
 10
42.751709
 20
31.119809
 30
0.0
 10
42.752535
 20
31.119577
 30
0.0
  0
SPLINE
  5
12f
100
AcDbEntity
  8
reindeer_cut_copy
 62
7
100
AcDbSpline
 70
8
 71
3
 72
8
 73
4
 74
0
 40
0
 40
0
 40
0
 40
0
 40
1
 40
1
 40
1
 40
1
 10
42.752535
 20
31.119577
 30
0.0
 10
45.133823
 20
32.902402
 30
0.0
 10
47.514591
 20
34.861157
 30
0.0
 10
49.765283
 20
37.594587
 30
0.0
  0
SPLINE
  5
130
100
AcDbEntity
  8
reindeer_cut_copy
 62
7
100
AcDbSpline
 70
8
 71
3
 72
8
 73
4
 74
0
 40
0
 40
0
 40
0
 40
0
 40
1
 40
1
 40
1
 40
1
 10
49.765283
 20
37.594587
 30
0.0
 10
49.773976
 20
37.605129
 30
0.0
 10
49.783374
 20
37.615069
 30
0.0
 10
49.793413
 20
37.624337
 30
0.0
  0
SPLINE
  5
131
100
AcDbEntity
  8
reindeer_cut_copy
 62
7
100
AcDbSpline
 70
8
 71
3
 72
8
 73
4
 74
0
 40
0
 40
0
 40
0
 40
0
 40
1
 40
1
 40
1
 40
1
 10
49.793413
 20
37.624337
 30
0.0
 10
51.774583
 20
39.456319
 30
0.0
 10
53.532551
 20
40.423906
 30
0.0
 10
55.144650
 20
40.869252
 30
0.0
  0
SPLINE
  5
132
100
AcDbEntity
  8
reindeer_cut_copy
 62
7
100
AcDbSpline
 70
8
 71
3
 72
8
 73
4
 74
0
 40
0
 40
0
 40
0
 40
0
 40
1
 40
1
 40
1
 40
1
 10
55.144650
 20
40.869252
 30
0.0
 10
55.766524
 20
41.798541
 30
0.0
 10
56.217854
 20
42.573185
 30
0.0
 10
55.811000
 20
44.209121
 30
0.0
  0
SPLINE
  5
133
100
AcDbEntity
  8
reindeer_cut_copy
 62
7
100
AcDbSpline
 70
8
 71
3
 72
8
 73
4
 74
0
 40
0
 40
0
 40
0
 40
0
 40
1
 40
1
 40
1
 40
1
 10
55.811000
 20
44.209121
 30
0.0
 10
55.950850
 20
44.249378
 30
0.0
 10
56.906461
 20
43.919947
 30
0.0
 10
57.696740
 20
42.916096
 30
0.0
  0
SPLINE
  5
134
100
AcDbEntity
  8
reindeer_cut_copy
 62
7
100
AcDbSpline
 70
8
 71
3
 72
8
 73
4
 74
0
 40
0
 40
0
 40
0
 40
0
 40
1
 40
1
 40
1
 40
1
 10
57.696740
 20
42.916096
 30
0.0
 10
58.106063
 20
43.479976
 30
0.0
 10
58.457193
 20
44.042381
 30
0.0
 10
59.171524
 20
44.614071
 30
0.0
  0
SPLINE
  5
135
100
AcDbEntity
  8
reindeer_cut_copy
 62
7
100
AcDbSpline
 70
8
 71
3
 72
8
 73
4
 74
0
 40
0
 40
0
 40
0
 40
0
 40
1
 40
1
 40
1
 40
1
 10
59.171524
 20
44.614071
 30
0.0
 10
59.620370
 20
43.266911
 30
0.0
 10
59.468724
 20
42.069891
 30
0.0
 10
59.121756
 20
41.003352
 30
0.0
  0
SPLINE
  5
136
100
AcDbEntity
  8
reindeer_cut_copy
 62
7
100
AcDbSpline
 70
8
 71
3
 72
8
 73
4
 74
0
 40
0
 40
0
 40
0
 40
0
 40
1
 40
1
 40
1
 40
1
 10
59.121756
 20
41.003352
 30
0.0
 10
61.352642
 20
40.575915
 30
0.0
 10
63.343736
 20
39.522524
 30
0.0
 10
65.462449
 20
39.129039
 30
0.0
  0
SPLINE
  5
137
100
AcDbEntity
  8
reindeer_cut_copy
 62
7
100
AcDbSpline
 70
8
 71
3
 72
8
 73
4
 74
0
 40
0
 40
0
 40
0
 40
0
 40
1
 40
1
 40
1
 40
1
 10
65.462449
 20
39.129039
 30
0.0
 10
65.473585
 20
39.126951
 30
0.0
 10
65.484594
 20
39.124238
 30
0.0
 10
65.495425
 20
39.120912
 30
0.0
  0
SPLINE
  5
138
100
AcDbEntity
  8
reindeer_cut_copy
 62
7
100
AcDbSpline
 70
8
 71
3
 72
8
 73
4
 74
0
 40
0
 40
0
 40
0
 40
0
 40
1
 40
1
 40
1
 40
1
 10
65.495425
 20
39.120912
 30
0.0
 10
66.310906
 20
38.872100
 30
0.0
 10
66.889921
 20
38.794893
 30
0.0
 10
67.314882
 20
38.823297
 30
0.0
  0
SPLINE
  5
139
100
AcDbEntity
  8
reindeer_cut_copy
 62
7
100
AcDbSpline
 70
8
 71
3
 72
8
 73
4
 74
0
 40
0
 40
0
 40
0
 40
0
 40
1
 40
1
 40
1
 40
1
 10
67.314882
 20
38.823297
 30
0.0
 10
67.739839
 20
38.851691
 30
0.0
 10
68.014508
 20
38.974494
 30
0.0
 10
68.277531
 20
39.168032
 30
0.0
  0
SPLINE
  5
13a
100
AcDbEntity
  8
reindeer_cut_copy
 62
7
100
AcDbSpline
 70
8
 71
3
 72
8
 73
4
 74
0
 40
0
 40
0
 40
0
 40
0
 40
1
 40
1
 40
1
 40
1
 10
68.277531
 20
39.168032
 30
0.0
 10
68.801634
 20
39.553683
 30
0.0
 10
69.251957
 20
40.295332
 30
0.0
 10
70.256280
 20
40.927546
 30
0.0
  0
SPLINE
  5
13b
100
AcDbEntity
  8
reindeer_cut_copy
 62
7
100
AcDbSpline
 70
8
 71
3
 72
8
 73
4
 74
0
 40
0
 40
0
 40
0
 40
0
 40
1
 40
1
 40
1
 40
1
 10
70.256280
 20
40.927546
 30
0.0
 10
70.251984
 20
40.924278
 30
0.0
 10
70.246921
 20
40.921787
 30
0.0
 10
70.242642
 20
40.918513
 30
0.0
  0
LWPOLYLINE
  5
13c
100
AcDbEntity
  8
reindeer_cut_copy
 62
7
100
AcDbPolyline
 90
1
 70
1
 10
32.056013
 20
27.672457
 30
0.0
  0
SPLINE
  5
13d
100
AcDbEntity
  8
reindeer_cut_copy
 62
7
100
AcDbSpline
 70
8
 71
3
 72
8
 73
4
 74
0
 40
0
 40
0
 40
0
 40
0
 40
1
 40
1
 40
1
 40
1
 10
70.265953
 20
40.934666
 30
0.0
 10
70.262409
 20
40.932449
 30
0.0
 10
70.260134
 20
40.930047
 30
0.0
 10
70.256677
 20
40.927816
 30
0.0
  0
SPLINE
  5
13e
100
AcDbEntity
  8
reindeer_cut_copy
 62
7
100
AcDbSpline
 70
8
 71
3
 72
8
 73
4
 74
0
 40
0
 40
0
 40
0
 40
0
 40
1
 40
1
 40
1
 40
1
 10
70.256677
 20
40.927816
 30
0.0
 10
70.927799
 20
41.434037
 30
0.0
 10
71.943945
 20
41.611759
 30
0.0
 10
72.921709
 20
41.518423
 30
0.0
  0
SPLINE
  5
13f
100
AcDbEntity
  8
reindeer_cut_copy
 62
7
100
AcDbSpline
 70
8
 71
3
 72
8
 73
4
 74
0
 40
0
 40
0
 40
0
 40
0
 40
1
 40
1
 40
1
 40
1
 10
72.921709
 20
41.518423
 30
0.0
 10
73.838028
 20
41.430954
 30
0.0
 10
74.740008
 20
41.093224
 30
0.0
 10
75.238898
 20
40.407840
 30
0.0
  0
SPLINE
  5
140
100
AcDbEntity
  8
reindeer_cut_copy
 62
7
100
AcDbSpline
 70
8
 71
3
 72
8
 73
4
 74
0
 40
0
 40
0
 40
0
 40
0
 40
1
 40
1
 40
1
 40
1
 10
75.238898
 20
40.407840
 30
0.0
 10
77.392154
 20
40.439971
 30
0.0
 10
79.890969
 20
40.668673
 30
0.0
 10
82.006122
 20
41.109076
 30
0.0
  0
SPLINE
  5
141
100
AcDbEntity
  8
reindeer_cut_copy
 62
7
100
AcDbSpline
 70
8
 71
3
 72
8
 73
4
 74
0
 40
0
 40
0
 40
0
 40
0
 40
1
 40
1
 40
1
 40
1
 10
82.006122
 20
41.109076
 30
0.0
 10
82.232819
 20
41.294902
 30
0.0
 10
82.305953
 20
41.357341
 30
0.0
 10
82.399079
 20
41.462254
 30
0.0
  0
SPLINE
  5
142
100
AcDbEntity
  8
reindeer_cut_copy
 62
7
100
AcDbSpline
 70
8
 71
3
 72
8
 73
4
 74
0
 40
0
 40
0
 40
0
 40
0
 40
1
 40
1
 40
1
 40
1
 10
82.399079
 20
41.462254
 30
0.0
 10
82.502146
 20
41.578377
 30
0.0
 10
82.663740
 20
41.781217
 30
0.0
 10
83.117031
 20
42.283493
 30
0.0
  0
SPLINE
  5
143
100
AcDbEntity
  8
reindeer_cut_copy
 62
7
100
AcDbSpline
 70
8
 71
3
 72
8
 73
4
 74
0
 40
0
 40
0
 40
0
 40
0
 40
1
 40
1
 40
1
 40
1
 10
83.117031
 20
42.283493
 30
0.0
 10
83.207945
 20
42.384216
 30
0.0
 10
83.354910
 20
42.411863
 30
0.0
 10
83.476209
 20
42.351062
 30
0.0
  0
LWPOLYLINE
  5
144
100
AcDbEntity
  8
reindeer_cut_copy
 62
7
100
AcDbPolyline
 90
2
 70
0
 10
70.242642
 20
40.918513
 30
0.0
 10
70.265953
 20
40.934666
 30
0.0
  0
SPLINE
  5
145
100
AcDbEntity
  8
reindeer_cut_copy
 62
7
100
AcDbSpline
 70
8
 71
3
 72
8
 73
4
 74
0
 40
0
 40
0
 40
0
 40
0
 40
1
 40
1
 40
1
 40
1
 10
86.151795
 20
41.008969
 30
0.0
 10
86.300071
 20
40.934567
 30
0.0
 10
86.360466
 20
40.754414
 30
0.0
 10
86.286996
 20
40.605674
 30
0.0
  0
LWPOLYLINE
  5
146
100
AcDbEntity
  8
reindeer_cut_copy
 62
7
100
AcDbPolyline
 90
2
 70
0
 10
83.476209
 20
42.351062
 30
0.0
 10
86.151795
 20
41.008969
 30
0.0
  0
SPLINE
  5
147
100
AcDbEntity
  8
reindeer_cut_copy
 62
7
100
AcDbSpline
 70
8
 71
3
 72
8
 73
4
 74
0
 40
0
 40
0
 40
0
 40
0
 40
1
 40
1
 40
1
 40
1
 10
85.521000
 20
39.055500
 30
0.0
 10
85.493204
 20
38.999258
 30
0.0
 10
85.448568
 20
38.953079
 30
0.0
 10
85.393303
 20
38.923388
 30
0.0
  0
SPLINE
  5
148
100
AcDbEntity
  8
reindeer_cut_copy
 62
7
100
AcDbSpline
 70
8
 71
3
 72
8
 73
4
 74
0
 40
0
 40
0
 40
0
 40
0
 40
1
 40
1
 40
1
 40
1
 10
85.393303
 20
38.923388
 30
0.0
 10
85.115976
 20
38.774470
 30
0.0
 10
84.867579
 20
38.643428
 30
0.0
 10
84.613717
 20
38.508978
 30
0.0
  0
LWPOLYLINE
  5
149
100
AcDbEntity
  8
reindeer_cut_copy
 62
7
100
AcDbPolyline
 90
2
 70
0
 10
86.286996
 20
40.605674
 30
0.0
 10
85.521000
 20
39.055500
 30
0.0
  0
SPLINE
  5
14a
100
AcDbEntity
  8
reindeer_cut_copy
 62
7
100
AcDbSpline
 70
8
 71
3
 72
8
 73
4
 74
0
 40
0
 40
0
 40
0
 40
0
 40
1
 40
1
 40
1
 40
1
 10
84.738354
 20
38.389778
 30
0.0
 10
84.844238
 20
38.288454
 30
0.0
 10
84.861998
 20
38.125697
 30
0.0
 10
84.780461
 20
38.003921
 30
0.0
  0
SPLINE
  5
14b
100
AcDbEntity
  8
reindeer_cut_copy
 62
7
100
AcDbSpline
 70
8
 71
3
 72
8
 73
4
 74
0
 40
0
 40
0
 40
0
 40
0
 40
1
 40
1
 40
1
 40
1
 10
84.780461
 20
38.003921
 30
0.0
 10
84.190016
 20
37.122066
 30
0.0
 10
82.744394
 20
36.357649
 30
0.0
 10
81.379870
 20
35.720125
 30
0.0
  0
SPLINE
  5
14c
100
AcDbEntity
  8
reindeer_cut_copy
 62
7
100
AcDbSpline
 70
8
 71
3
 72
8
 73
4
 74
0
 40
0
 40
0
 40
0
 40
0
 40
1
 40
1
 40
1
 40
1
 10
81.379870
 20
35.720125
 30
0.0
 10
80.697614
 20
35.401362
 30
0.0
 10
80.037909
 20
35.127460
 30
0.0
 10
79.525488
 20
34.926630
 30
0.0
  0
SPLINE
  5
14d
100
AcDbEntity
  8
reindeer_cut_copy
 62
7
100
AcDbSpline
 70
8
 71
3
 72
8
 73
4
 74
0
 40
0
 40
0
 40
0
 40
0
 40
1
 40
1
 40
1
 40
1
 10
79.525488
 20
34.926630
 30
0.0
 10
79.029988
 20
34.732435
 30
0.0
 10
78.722992
 20
34.622603
 30
0.0
 10
78.572606
 20
34.579524
 30
0.0
  0
SPLINE
  5
14e
100
AcDbEntity
  8
reindeer_cut_copy
 62
7
100
AcDbSpline
 70
8
 71
3
 72
8
 73
4
 74
0
 40
0
 40
0
 40
0
 40
0
 40
1
 40
1
 40
1
 40
1
 10
78.572606
 20
34.579524
 30
0.0
 10
78.525461
 20
34.556970
 30
0.0
 10
78.488878
 20
34.546572
 30
0.0
 10
78.456354
 20
34.538282
 30
0.0
  0
SPLINE
  5
14f
100
AcDbEntity
  8
reindeer_cut_copy
 62
7
100
AcDbSpline
 70
8
 71
3
 72
8
 73
4
 74
0
 40
0
 40
0
 40
0
 40
0
 40
1
 40
1
 40
1
 40
1
 10
78.456354
 20
34.538282
 30
0.0
 10
78.421043
 20
34.529279
 30
0.0
 10
78.390764
 20
34.523049
 30
0.0
 10
78.362386
 20
34.516841
 30
0.0
  0
SPLINE
  5
150
100
AcDbEntity
  8
reindeer_cut_copy
 62
7
100
AcDbSpline
 70
8
 71
3
 72
8
 73
4
 74
0
 40
0
 40
0
 40
0
 40
0
 40
1
 40
1
 40
1
 40
1
 10
78.362386
 20
34.516841
 30
0.0
 10
78.258138
 20
34.478396
 30
0.0
 10
78.147437
 20
34.432770
 30
0.0
 10
78.023287
 20
34.390446
 30
0.0
  0
SPLINE
  5
151
100
AcDbEntity
  8
reindeer_cut_copy
 62
7
100
AcDbSpline
 70
8
 71
3
 72
8
 73
4
 74
0
 40
0
 40
0
 40
0
 40
0
 40
1
 40
1
 40
1
 40
1
 10
78.023287
 20
34.390446
 30
0.0
 10
78.001159
 20
34.382888
 30
0.0
 10
77.978227
 20
34.377927
 30
0.0
 10
77.954953
 20
34.375665
 30
0.0
  0
SPLINE
  5
152
100
AcDbEntity
  8
reindeer_cut_copy
 62
7
100
AcDbSpline
 70
8
 71
3
 72
8
 73
4
 74
0
 40
0
 40
0
 40
0
 40
0
 40
1
 40
1
 40
1
 40
1
 10
77.954953
 20
34.375665
 30
0.0
 10
77.468504
 20
34.328664
 30
0.0
 10
76.991768
 20
34.344261
 30
0.0
 10
76.530291
 20
34.356713
 30
0.0
  0
SPLINE
  5
153
100
AcDbEntity
  8
reindeer_cut_copy
 62
7
100
AcDbSpline
 70
8
 71
3
 72
8
 73
4
 74
0
 40
0
 40
0
 40
0
 40
0
 40
1
 40
1
 40
1
 40
1
 10
76.530291
 20
34.356713
 30
0.0
 10
76.529360
 20
34.356722
 30
0.0
 10
76.528428
 20
34.356735
 30
0.0
 10
76.527496
 20
34.356752
 30
0.0
  0
SPLINE
  5
154
100
AcDbEntity
  8
reindeer_cut_copy
 62
7
100
AcDbSpline
 70
8
 71
3
 72
8
 73
4
 74
0
 40
0
 40
0
 40
0
 40
0
 40
1
 40
1
 40
1
 40
1
 10
76.527496
 20
34.356752
 30
0.0
 10
76.185614
 20
34.369147
 30
0.0
 10
75.844087
 20
34.388473
 30
0.0
 10
75.503165
 20
34.414215
 30
0.0
  0
SPLINE
  5
155
100
AcDbEntity
  8
reindeer_cut_copy
 62
7
100
AcDbSpline
 70
8
 71
3
 72
8
 73
4
 74
0
 40
0
 40
0
 40
0
 40
0
 40
1
 40
1
 40
1
 40
1
 10
75.503165
 20
34.414215
 30
0.0
 10
75.501931
 20
34.414299
 30
0.0
 10
75.500698
 20
34.414391
 30
0.0
 10
75.499465
 20
34.414491
 30
0.0
  0
SPLINE
  5
156
100
AcDbEntity
  8
reindeer_cut_copy
 62
7
100
AcDbSpline
 70
8
 71
3
 72
8
 73
4
 74
0
 40
0
 40
0
 40
0
 40
0
 40
1
 40
1
 40
1
 40
1
 10
75.499465
 20
34.414491
 30
0.0
 10
75.479366
 20
34.416246
 30
0.0
 10
75.441583
 20
34.419085
 30
0.0
 10
75.410850
 20
34.421602
 30
0.0
  0
SPLINE
  5
157
100
AcDbEntity
  8
reindeer_cut_copy
 62
7
100
AcDbSpline
 70
8
 71
3
 72
8
 73
4
 74
0
 40
0
 40
0
 40
0
 40
0
 40
1
 40
1
 40
1
 40
1
 10
75.410850
 20
34.421602
 30
0.0
 10
74.712728
 20
34.478186
 30
0.0
 10
74.013543
 20
34.561200
 30
0.0
 10
73.319323
 20
34.689131
 30
0.0
  0
SPLINE
  5
158
100
AcDbEntity
  8
reindeer_cut_copy
 62
7
100
AcDbSpline
 70
8
 71
3
 72
8
 73
4
 74
0
 40
0
 40
0
 40
0
 40
0
 40
1
 40
1
 40
1
 40
1
 10
73.319323
 20
34.689131
 30
0.0
 10
73.318272
 20
34.689323
 30
0.0
 10
73.317222
 20
34.689521
 30
0.0
 10
73.316173
 20
34.689725
 30
0.0
  0
SPLINE
  5
159
100
AcDbEntity
  8
reindeer_cut_copy
 62
7
100
AcDbSpline
 70
8
 71
3
 72
8
 73
4
 74
0
 40
0
 40
0
 40
0
 40
0
 40
1
 40
1
 40
1
 40
1
 10
73.316173
 20
34.689725
 30
0.0
 10
73.238898
 20
34.704805
 30
0.0
 10
73.153567
 20
34.708713
 30
0.0
 10
73.065299
 20
34.708379
 30
0.0
  0
SPLINE
  5
15a
100
AcDbEntity
  8
reindeer_cut_copy
 62
7
100
AcDbSpline
 70
8
 71
3
 72
8
 73
4
 74
0
 40
0
 40
0
 40
0
 40
0
 40
1
 40
1
 40
1
 40
1
 10
73.065299
 20
34.708379
 30
0.0
 10
72.705598
 20
34.196623
 30
0.0
 10
72.075315
 20
33.161677
 30
0.0
 10
71.062248
 20
32.062190
 30
0.0
  0
SPLINE
  5
15b
100
AcDbEntity
  8
reindeer_cut_copy
 62
7
100
AcDbSpline
 70
8
 71
3
 72
8
 73
4
 74
0
 40
0
 40
0
 40
0
 40
0
 40
1
 40
1
 40
1
 40
1
 10
71.062248
 20
32.062190
 30
0.0
 10
70.165882
 20
31.089357
 30
0.0
 10
68.958500
 20
30.078407
 30
0.0
 10
67.358760
 20
29.338927
 30
0.0
  0
LWPOLYLINE
  5
15c
100
AcDbEntity
  8
reindeer_cut_copy
 62
7
100
AcDbPolyline
 90
2
 70
0
 10
84.613717
 20
38.508978
 30
0.0
 10
84.738354
 20
38.389778
 30
0.0
  0
SPLINE
  5
15d
100
AcDbEntity
  8
reindeer_cut_copy
 62
7
100
AcDbSpline
 70
8
 71
3
 72
8
 73
4
 74
0
 40
0
 40
0
 40
0
 40
0
 40
1
 40
1
 40
1
 40
1
 10
42.424413
 20
1.980055
 30
0.0
 10
42.421579
 20
1.983480
 30
0.0
 10
42.418390
 20
1.986594
 30
0.0
 10
42.415555
 20
1.989992
 30
0.0
  0
LWPOLYLINE
  5
15e
100
AcDbEntity
  8
reindeer_cut_copy
 62
7
100
AcDbPolyline
 90
2
 70
0
 10
67.358760
 20
29.338927
 30
0.0
 10
42.424413
 20
1.980055
 30
0.0
  0
SPLINE
  5
15f
100
AcDbEntity
  8
reindeer_cut_copy
 62
7
100
AcDbSpline
 70
8
 71
3
 72
8
 73
4
 74
0
 40
0
 40
0
 40
0
 40
0
 40
1
 40
1
 40
1
 40
1
 10
42.087929
 20
2.123291
 30
0.0
 10
42.085409
 20
2.124276
 30
0.0
 10
42.082984
 20
2.125220
 30
0.0
 10
42.080484
 20
2.126205
 30
0.0
  0
SPLINE
  5
160
100
AcDbEntity
  8
reindeer_cut_copy
 62
7
100
AcDbSpline
 70
8
 71
3
 72
8
 73
4
 74
0
 40
0
 40
0
 40
0
 40
0
 40
1
 40
1
 40
1
 40
1
 10
42.080484
 20
2.126205
 30
0.0
 10
41.818445
 20
2.232594
 30
0.0
 10
41.561189
 20
2.317154
 30
0.0
 10
41.304780
 20
2.397756
 30
0.0
  0
SPLINE
  5
161
100
AcDbEntity
  8
reindeer_cut_copy
 62
7
100
AcDbSpline
 70
8
 71
3
 72
8
 73
4
 74
0
 40
0
 40
0
 40
0
 40
0
 40
1
 40
1
 40
1
 40
1
 10
41.304780
 20
2.397756
 30
0.0
 10
41.108752
 20
2.456756
 30
0.0
 10
40.913366
 20
2.509543
 30
0.0
 10
40.717819
 20
2.557906
 30
0.0
  0
LWPOLYLINE
  5
162
100
AcDbEntity
  8
reindeer_cut_copy
 62
7
100
AcDbPolyline
 90
2
 70
0
 10
42.415555
 20
1.989992
 30
0.0
 10
42.087929
 20
2.123291
 30
0.0
  0
SPLINE
  5
163
100
AcDbEntity
  8
reindeer_cut_copy
 62
7
100
AcDbSpline
 70
8
 71
3
 72
8
 73
4
 74
0
 40
0
 40
0
 40
0
 40
0
 40
1
 40
1
 40
1
 40
1
 10
40.541303
 20
2.601551
 30
0.0
 10
38.553261
 20
3.055327
 30
0.0
 10
36.703757
 20
2.840059
 30
0.0
 10
34.814387
 20
2.586520
 30
0.0
  0
SPLINE
  5
164
100
AcDbEntity
  8
reindeer_cut_copy
 62
7
100
AcDbSpline
 70
8
 71
3
 72
8
 73
4
 74
0
 40
0
 40
0
 40
0
 40
0
 40
1
 40
1
 40
1
 40
1
 10
34.814387
 20
2.586520
 30
0.0
 10
34.695425
 20
2.570542
 30
0.0
 10
34.578307
 20
2.626598
 30
0.0
 10
34.516135
 20
2.729272
 30
0.0
  0
SPLINE
  5
165
100
AcDbEntity
  8
reindeer_cut_copy
 62
7
100
AcDbSpline
 70
8
 71
3
 72
8
 73
4
 74
0
 40
0
 40
0
 40
0
 40
0
 40
1
 40
1
 40
1
 40
1
 10
34.516135
 20
2.729272
 30
0.0
 10
33.957438
 20
3.652654
 30
0.0
 10
32.966930
 20
4.895106
 30
0.0
 10
32.181135
 20
5.975327
 30
0.0
  0
SPLINE
  5
166
100
AcDbEntity
  8
reindeer_cut_copy
 62
7
100
AcDbSpline
 70
8
 71
3
 72
8
 73
4
 74
0
 40
0
 40
0
 40
0
 40
0
 40
1
 40
1
 40
1
 40
1
 10
32.181135
 20
5.975327
 30
0.0
 10
31.788233
 20
6.515441
 30
0.0
 10
31.446013
 20
7.014154
 30
0.0
 10
31.226107
 20
7.436748
 30
0.0
  0
SPLINE
  5
167
100
AcDbEntity
  8
reindeer_cut_copy
 62
7
100
AcDbSpline
 70
8
 71
3
 72
8
 73
4
 74
0
 40
0
 40
0
 40
0
 40
0
 40
1
 40
1
 40
1
 40
1
 10
31.226107
 20
7.436748
 30
0.0
 10
31.116155
 20
7.648039
 30
0.0
 10
31.034796
 20
7.838803
 30
0.0
 10
30.998210
 20
8.028697
 30
0.0
  0
SPLINE
  5
168
100
AcDbEntity
  8
reindeer_cut_copy
 62
7
100
AcDbSpline
 70
8
 71
3
 72
8
 73
4
 74
0
 40
0
 40
0
 40
0
 40
0
 40
1
 40
1
 40
1
 40
1
 10
30.998210
 20
8.028697
 30
0.0
 10
30.961619
 20
8.218591
 30
0.0
 10
30.973765
 20
8.449984
 30
0.0
 10
31.135537
 20
8.615146
 30
0.0
  0
LWPOLYLINE
  5
169
100
AcDbEntity
  8
reindeer_cut_copy
 62
7
100
AcDbPolyline
 90
2
 70
0
 10
40.717819
 20
2.557906
 30
0.0
 10
40.541303
 20
2.601551
 30
0.0
  0
SPLINE
  5
16a
100
AcDbEntity
  8
reindeer_cut_copy
 62
7
100
AcDbSpline
 70
8
 71
3
 72
8
 73
4
 74
0
 40
0
 40
0
 40
0
 40
0
 40
1
 40
1
 40
1
 40
1
 10
31.106178
 20
8.580331
 30
0.0
 10
31.753529
 20
9.479870
 30
0.0
 10
33.374958
 20
12.898496
 30
0.0
 10
33.753001
 20
14.198741
 30
0.0
  0
SPLINE
  5
16b
100
AcDbEntity
  8
reindeer_cut_copy
 62
7
100
AcDbSpline
 70
8
 71
3
 72
8
 73
4
 74
0
 40
0
 40
0
 40
0
 40
0
 40
1
 40
1
 40
1
 40
1
 10
33.753001
 20
14.198741
 30
0.0
 10
33.979584
 20
15.131191
 30
0.0
 10
33.783631
 20
15.965502
 30
0.0
 10
33.441088
 20
16.665100
 30
0.0
  0
SPLINE
  5
16c
100
AcDbEntity
  8
reindeer_cut_copy
 62
7
100
AcDbSpline
 70
8
 71
3
 72
8
 73
4
 74
0
 40
0
 40
0
 40
0
 40
0
 40
1
 40
1
 40
1
 40
1
 10
33.441088
 20
16.665100
 30
0.0
 10
33.401206
 20
16.635793
 30
0.0
 10
33.351777
 20
16.618049
 30
0.0
 10
33.304340
 20
16.619154
 30
0.0
  0
SPLINE
  5
16d
100
AcDbEntity
  8
reindeer_cut_copy
 62
7
100
AcDbSpline
 70
8
 71
3
 72
8
 73
4
 74
0
 40
0
 40
0
 40
0
 40
0
 40
1
 40
1
 40
1
 40
1
 10
33.304340
 20
16.619154
 30
0.0
 10
33.242245
 20
16.620602
 30
0.0
 10
33.190072
 20
16.645466
 30
0.0
 10
33.143367
 20
16.676962
 30
0.0
  0
SPLINE
  5
16e
100
AcDbEntity
  8
reindeer_cut_copy
 62
7
100
AcDbSpline
 70
8
 71
3
 72
8
 73
4
 74
0
 40
0
 40
0
 40
0
 40
0
 40
1
 40
1
 40
1
 40
1
 10
33.143367
 20
16.676962
 30
0.0
 10
33.049958
 20
16.739946
 30
0.0
 10
32.967981
 20
16.837198
 30
0.0
 10
32.883273
 20
16.950788
 30
0.0
  0
SPLINE
  5
16f
100
AcDbEntity
  8
reindeer_cut_copy
 62
7
100
AcDbSpline
 70
8
 71
3
 72
8
 73
4
 74
0
 40
0
 40
0
 40
0
 40
0
 40
1
 40
1
 40
1
 40
1
 10
32.883273
 20
16.950788
 30
0.0
 10
32.863800
 20
16.976905
 30
0.0
 10
32.808812
 20
17.044853
 30
0.0
 10
32.775371
 20
17.088012
 30
0.0
  0
SPLINE
  5
170
100
AcDbEntity
  8
reindeer_cut_copy
 62
7
100
AcDbSpline
 70
8
 71
3
 72
8
 73
4
 74
0
 40
0
 40
0
 40
0
 40
0
 40
1
 40
1
 40
1
 40
1
 10
32.775371
 20
17.088012
 30
0.0
 10
32.347194
 20
16.905702
 30
0.0
 10
31.837182
 20
17.000636
 30
0.0
 10
31.527974
 20
17.377863
 30
0.0
  0
SPLINE
  5
171
100
AcDbEntity
  8
reindeer_cut_copy
 62
7
100
AcDbSpline
 70
8
 71
3
 72
8
 73
4
 74
0
 40
0
 40
0
 40
0
 40
0
 40
1
 40
1
 40
1
 40
1
 10
31.527974
 20
17.377863
 30
0.0
 10
31.250781
 20
17.716025
 30
0.0
 10
31.219607
 20
18.172839
 30
0.0
 10
31.404568
 20
18.540939
 30
0.0
  0
SPLINE
  5
172
100
AcDbEntity
  8
reindeer_cut_copy
 62
7
100
AcDbSpline
 70
8
 71
3
 72
8
 73
4
 74
0
 40
0
 40
0
 40
0
 40
0
 40
1
 40
1
 40
1
 40
1
 10
31.404568
 20
18.540939
 30
0.0
 10
31.270261
 20
18.649756
 30
0.0
 10
31.135785
 20
18.747102
 30
0.0
 10
31.005285
 20
18.822943
 30
0.0
  0
SPLINE
  5
173
100
AcDbEntity
  8
reindeer_cut_copy
 62
7
100
AcDbSpline
 70
8
 71
3
 72
8
 73
4
 74
0
 40
0
 40
0
 40
0
 40
0
 40
1
 40
1
 40
1
 40
1
 10
31.005285
 20
18.822943
 30
0.0
 10
30.936631
 20
18.862843
 30
0.0
 10
30.876521
 20
18.925570
 30
0.0
 10
30.853647
 20
19.007068
 30
0.0
  0
SPLINE
  5
174
100
AcDbEntity
  8
reindeer_cut_copy
 62
7
100
AcDbSpline
 70
8
 71
3
 72
8
 73
4
 74
0
 40
0
 40
0
 40
0
 40
0
 40
1
 40
1
 40
1
 40
1
 10
30.853647
 20
19.007068
 30
0.0
 10
30.837434
 20
19.064850
 30
0.0
 10
30.840438
 20
19.125665
 30
0.0
 10
30.856245
 20
19.188384
 30
0.0
  0
SPLINE
  5
175
100
AcDbEntity
  8
reindeer_cut_copy
 62
7
100
AcDbSpline
 70
8
 71
3
 72
8
 73
4
 74
0
 40
0
 40
0
 40
0
 40
0
 40
1
 40
1
 40
1
 40
1
 10
30.856245
 20
19.188384
 30
0.0
 10
30.463852
 20
19.331711
 30
0.0
 10
30.009970
 20
19.481575
 30
0.0
 10
29.482442
 20
19.637728
 30
0.0
  0
SPLINE
  5
176
100
AcDbEntity
  8
reindeer_cut_copy
 62
7
100
AcDbSpline
 70
8
 71
3
 72
8
 73
4
 74
0
 40
0
 40
0
 40
0
 40
0
 40
1
 40
1
 40
1
 40
1
 10
29.482442
 20
19.637728
 30
0.0
 10
28.298202
 20
19.988237
 30
0.0
 10
26.899887
 20
20.355837
 30
0.0
 10
25.784580
 20
20.698977
 30
0.0
  0
SPLINE
  5
177
100
AcDbEntity
  8
reindeer_cut_copy
 62
7
100
AcDbSpline
 70
8
 71
3
 72
8
 73
4
 74
0
 40
0
 40
0
 40
0
 40
0
 40
1
 40
1
 40
1
 40
1
 10
25.784580
 20
20.698977
 30
0.0
 10
24.534123
 20
20.879431
 30
0.0
 10
23.935182
 20
20.531211
 30
0.0
 10
23.461237
 20
20.080909
 30
0.0
  0
SPLINE
  5
178
100
AcDbEntity
  8
reindeer_cut_copy
 62
7
100
AcDbSpline
 70
8
 71
3
 72
8
 73
4
 74
0
 40
0
 40
0
 40
0
 40
0
 40
1
 40
1
 40
1
 40
1
 10
23.461237
 20
20.080909
 30
0.0
 10
22.577470
 20
18.949817
 30
0.0
 10
21.688667
 20
17.803200
 30
0.0
 10
20.579749
 20
16.984496
 30
0.0
  0
SPLINE
  5
179
100
AcDbEntity
  8
reindeer_cut_copy
 62
7
100
AcDbSpline
 70
8
 71
3
 72
8
 73
4
 74
0
 40
0
 40
0
 40
0
 40
0
 40
1
 40
1
 40
1
 40
1
 10
20.579749
 20
16.984496
 30
0.0
 10
19.551698
 20
16.225493
 30
0.0
 10
18.315552
 20
15.769124
 30
0.0
 10
16.788733
 20
15.896451
 30
0.0
  0
SPLINE
  5
17a
100
AcDbEntity
  8
reindeer_cut_copy
 62
7
100
AcDbSpline
 70
8
 71
3
 72
8
 73
4
 74
0
 40
0
 40
0
 40
0
 40
0
 40
1
 40
1
 40
1
 40
1
 10
16.788733
 20
15.896451
 30
0.0
 10
16.676856
 20
15.750505
 30
0.0
 10
16.544489
 20
15.616228
 30
0.0
 10
16.399438
 20
15.497327
 30
0.0
  0
SPLINE
  5
17b
100
AcDbEntity
  8
reindeer_cut_copy
 62
7
100
AcDbSpline
 70
8
 71
3
 72
8
 73
4
 74
0
 40
0
 40
0
 40
0
 40
0
 40
1
 40
1
 40
1
 40
1
 10
16.399438
 20
15.497327
 30
0.0
 10
16.077800
 20
15.233685
 30
0.0
 10
15.702021
 20
15.120773
 30
0.0
 10
15.341509
 20
15.164588
 30
0.0
  0
SPLINE
  5
17c
100
AcDbEntity
  8
reindeer_cut_copy
 62
7
100
AcDbSpline
 70
8
 71
3
 72
8
 73
4
 74
0
 40
0
 40
0
 40
0
 40
0
 40
1
 40
1
 40
1
 40
1
 10
15.341509
 20
15.164588
 30
0.0
 10
14.980974
 20
15.208381
 30
0.0
 10
14.642025
 20
15.405846
 30
0.0
 10
14.380450
 20
15.724953
 30
0.0
  0
SPLINE
  5
17d
100
AcDbEntity
  8
reindeer_cut_copy
 62
7
100
AcDbSpline
 70
8
 71
3
 72
8
 73
4
 74
0
 40
0
 40
0
 40
0
 40
0
 40
1
 40
1
 40
1
 40
1
 10
14.380450
 20
15.724953
 30
0.0
 10
14.111989
 20
16.052465
 30
0.0
 10
14.030060
 20
16.442210
 30
0.0
 10
14.105871
 20
16.802519
 30
0.0
  0
SPLINE
  5
17e
100
AcDbEntity
  8
reindeer_cut_copy
 62
7
100
AcDbSpline
 70
8
 71
3
 72
8
 73
4
 74
0
 40
0
 40
0
 40
0
 40
0
 40
1
 40
1
 40
1
 40
1
 10
14.105871
 20
16.802519
 30
0.0
 10
14.181678
 20
17.162827
 30
0.0
 10
14.404261
 20
17.493174
 30
0.0
 10
14.719170
 20
17.751304
 30
0.0
  0
SPLINE
  5
17f
100
AcDbEntity
  8
reindeer_cut_copy
 62
7
100
AcDbSpline
 70
8
 71
3
 72
8
 73
4
 74
0
 40
0
 40
0
 40
0
 40
0
 40
1
 40
1
 40
1
 40
1
 10
14.719170
 20
17.751304
 30
0.0
 10
15.060076
 20
18.030743
 30
0.0
 10
15.486993
 20
18.137863
 30
0.0
 10
15.893478
 20
18.083943
 30
0.0
  0
SPLINE
  5
180
100
AcDbEntity
  8
reindeer_cut_copy
 62
7
100
AcDbSpline
 70
8
 71
3
 72
8
 73
4
 74
0
 40
0
 40
0
 40
0
 40
0
 40
1
 40
1
 40
1
 40
1
 10
15.893478
 20
18.083943
 30
0.0
 10
15.930454
 20
18.167780
 30
0.0
 10
15.961867
 20
18.259750
 30
0.0
 10
15.980407
 20
18.375895
 30
0.0
  0
SPLINE
  5
181
100
AcDbEntity
  8
reindeer_cut_copy
 62
7
100
AcDbSpline
 70
8
 71
3
 72
8
 73
4
 74
0
 40
0
 40
0
 40
0
 40
0
 40
1
 40
1
 40
1
 40
1
 10
15.980407
 20
18.375895
 30
0.0
 10
16.022867
 20
18.641924
 30
0.0
 10
16.008903
 20
18.984906
 30
0.0
 10
15.957485
 20
19.356909
 30
0.0
  0
SPLINE
  5
182
100
AcDbEntity
  8
reindeer_cut_copy
 62
7
100
AcDbSpline
 70
8
 71
3
 72
8
 73
4
 74
0
 40
0
 40
0
 40
0
 40
0
 40
1
 40
1
 40
1
 40
1
 10
15.957485
 20
19.356909
 30
0.0
 10
15.854978
 20
20.098535
 30
0.0
 10
15.610332
 20
20.947057
 30
0.0
 10
15.480182
 20
21.641257
 30
0.0
  0
SPLINE
  5
183
100
AcDbEntity
  8
reindeer_cut_copy
 62
7
100
AcDbSpline
 70
8
 71
3
 72
8
 73
4
 74
0
 40
0
 40
0
 40
0
 40
0
 40
1
 40
1
 40
1
 40
1
 10
15.480182
 20
21.641257
 30
0.0
 10
15.413190
 20
21.953310
 30
0.0
 10
15.508273
 20
22.267824
 30
0.0
 10
15.657289
 20
22.667972
 30
0.0
  0
SPLINE
  5
184
100
AcDbEntity
  8
reindeer_cut_copy
 62
7
100
AcDbSpline
 70
8
 71
3
 72
8
 73
4
 74
0
 40
0
 40
0
 40
0
 40
0
 40
1
 40
1
 40
1
 40
1
 10
15.657289
 20
22.667972
 30
0.0
 10
15.806470
 20
23.068548
 30
0.0
 10
16.032915
 20
23.533001
 30
0.0
 10
16.317415
 20
24.016783
 30
0.0
  0
SPLINE
  5
185
100
AcDbEntity
  8
reindeer_cut_copy
 62
7
100
AcDbSpline
 70
8
 71
3
 72
8
 73
4
 74
0
 40
0
 40
0
 40
0
 40
0
 40
1
 40
1
 40
1
 40
1
 10
16.317415
 20
24.016783
 30
0.0
 10
16.399706
 20
24.156715
 30
0.0
 10
16.496348
 20
24.299106
 30
0.0
 10
16.587745
 20
24.440896
 30
0.0
  0
SPLINE
  5
186
100
AcDbEntity
  8
reindeer_cut_copy
 62
7
100
AcDbSpline
 70
8
 71
3
 72
8
 73
4
 74
0
 40
0
 40
0
 40
0
 40
0
 40
1
 40
1
 40
1
 40
1
 10
16.587745
 20
24.440896
 30
0.0
 10
16.306056
 20
24.758139
 30
0.0
 10
15.936332
 20
25.171398
 30
0.0
 10
15.555033
 20
25.587277
 30
0.0
  0
SPLINE
  5
187
100
AcDbEntity
  8
reindeer_cut_copy
 62
7
100
AcDbSpline
 70
8
 71
3
 72
8
 73
4
 74
0
 40
0
 40
0
 40
0
 40
0
 40
1
 40
1
 40
1
 40
1
 10
15.555033
 20
25.587277
 30
0.0
 10
15.166218
 20
26.011355
 30
0.0
 10
14.768848
 20
26.434308
 30
0.0
 10
14.457745
 20
26.743615
 30
0.0
  0
SPLINE
  5
188
100
AcDbEntity
  8
reindeer_cut_copy
 62
7
100
AcDbSpline
 70
8
 71
3
 72
8
 73
4
 74
0
 40
0
 40
0
 40
0
 40
0
 40
1
 40
1
 40
1
 40
1
 10
14.457745
 20
26.743615
 30
0.0
 10
14.302198
 20
26.898270
 30
0.0
 10
14.167072
 20
27.025062
 30
0.0
 10
14.073505
 20
27.103802
 30
0.0
  0
SPLINE
  5
189
100
AcDbEntity
  8
reindeer_cut_copy
 62
7
100
AcDbSpline
 70
8
 71
3
 72
8
 73
4
 74
0
 40
0
 40
0
 40
0
 40
0
 40
1
 40
1
 40
1
 40
1
 10
14.073505
 20
27.103802
 30
0.0
 10
14.041694
 20
27.130584
 30
0.0
 10
14.025686
 20
27.141502
 30
0.0
 10
14.007139
 20
27.155031
 30
0.0
  0
SPLINE
  5
18a
100
AcDbEntity
  8
reindeer_cut_copy
 62
7
100
AcDbSpline
 70
8
 71
3
 72
8
 73
4
 74
0
 40
0
 40
0
 40
0
 40
0
 40
1
 40
1
 40
1
 40
1
 10
14.007139
 20
27.155031
 30
0.0
 10
13.527285
 20
27.132828
 30
0.0
 10
12.863037
 20
27.246776
 30
0.0
 10
12.199962
 20
27.469536
 30
0.0
  0
SPLINE
  5
18b
100
AcDbEntity
  8
reindeer_cut_copy
 62
7
100
AcDbSpline
 70
8
 71
3
 72
8
 73
4
 74
0
 40
0
 40
0
 40
0
 40
0
 40
1
 40
1
 40
1
 40
1
 10
12.199962
 20
27.469536
 30
0.0
 10
11.841265
 20
27.590043
 30
0.0
 10
11.494824
 20
27.741915
 30
0.0
 10
11.204718
 20
27.941326
 30
0.0
  0
SPLINE
  5
18c
100
AcDbEntity
  8
reindeer_cut_copy
 62
7
100
AcDbSpline
 70
8
 71
3
 72
8
 73
4
 74
0
 40
0
 40
0
 40
0
 40
0
 40
1
 40
1
 40
1
 40
1
 10
11.204718
 20
27.941326
 30
0.0
 10
10.914611
 20
28.140738
 30
0.0
 10
10.659812
 20
28.397332
 30
0.0
 10
10.583730
 20
28.757304
 30
0.0
  0
SPLINE
  5
18d
100
AcDbEntity
  8
reindeer_cut_copy
 62
7
100
AcDbSpline
 70
8
 71
3
 72
8
 73
4
 74
0
 40
0
 40
0
 40
0
 40
0
 40
1
 40
1
 40
1
 40
1
 10
10.583730
 20
28.757304
 30
0.0
 10
10.508694
 20
29.112342
 30
0.0
 10
10.705576
 20
29.461454
 30
0.0
 10
10.948269
 20
29.635039
 30
0.0
  0
SPLINE
  5
18e
100
AcDbEntity
  8
reindeer_cut_copy
 62
7
100
AcDbSpline
 70
8
 71
3
 72
8
 73
4
 74
0
 40
0
 40
0
 40
0
 40
0
 40
1
 40
1
 40
1
 40
1
 10
10.948269
 20
29.635039
 30
0.0
 10
11.190962
 20
29.808624
 30
0.0
 10
11.472159
 20
29.890624
 30
0.0
 10
11.746852
 20
29.948205
 30
0.0
  0
SPLINE
  5
18f
100
AcDbEntity
  8
reindeer_cut_copy
 62
7
100
AcDbSpline
 70
8
 71
3
 72
8
 73
4
 74
0
 40
0
 40
0
 40
0
 40
0
 40
1
 40
1
 40
1
 40
1
 10
11.746852
 20
29.948205
 30
0.0
 10
11.835064
 20
29.966693
 30
0.0
 10
11.919859
 20
29.977430
 30
0.0
 10
12.005659
 20
29.990105
 30
0.0
  0
SPLINE
  5
190
100
AcDbEntity
  8
reindeer_cut_copy
 62
7
100
AcDbSpline
 70
8
 71
3
 72
8
 73
4
 74
0
 40
0
 40
0
 40
0
 40
0
 40
1
 40
1
 40
1
 40
1
 10
12.005659
 20
29.990105
 30
0.0
 10
10.647635
 20
31.185944
 30
0.0
 10
9.121552
 20
31.576841
 30
0.0
 10
7.920135
 20
32.086110
 30
0.0
  0
SPLINE
  5
191
100
AcDbEntity
  8
reindeer_cut_copy
 62
7
100
AcDbSpline
 70
8
 71
3
 72
8
 73
4
 74
0
 40
0
 40
0
 40
0
 40
0
 40
1
 40
1
 40
1
 40
1
 10
7.920135
 20
32.086110
 30
0.0
 10
7.361088
 20
32.267049
 30
0.0
 10
6.847391
 20
32.524575
 30
0.0
 10
6.432163
 20
32.802220
 30
0.0
  0
SPLINE
  5
192
100
AcDbEntity
  8
reindeer_cut_copy
 62
7
100
AcDbSpline
 70
8
 71
3
 72
8
 73
4
 74
0
 40
0
 40
0
 40
0
 40
0
 40
1
 40
1
 40
1
 40
1
 10
6.432163
 20
32.802220
 30
0.0
 10
6.011757
 20
33.083330
 30
0.0
 10
5.690454
 20
33.363874
 30
0.0
 10
5.515218
 20
33.695291
 30
0.0
  0
SPLINE
  5
193
100
AcDbEntity
  8
reindeer_cut_copy
 62
7
100
AcDbSpline
 70
8
 71
3
 72
8
 73
4
 74
0
 40
0
 40
0
 40
0
 40
0
 40
1
 40
1
 40
1
 40
1
 10
5.515218
 20
33.695291
 30
0.0
 10
5.427607
 20
33.861002
 30
0.0
 10
5.364096
 20
34.080152
 30
0.0
 10
5.461493
 20
34.303418
 30
0.0
  0
SPLINE
  5
194
100
AcDbEntity
  8
reindeer_cut_copy
 62
7
100
AcDbSpline
 70
8
 71
3
 72
8
 73
4
 74
0
 40
0
 40
0
 40
0
 40
0
 40
1
 40
1
 40
1
 40
1
 10
5.461493
 20
34.303418
 30
0.0
 10
5.558891
 20
34.526678
 30
0.0
 10
5.782265
 20
34.640079
 30
0.0
 10
5.991300
 20
34.680612
 30
0.0
  0
SPLINE
  5
195
100
AcDbEntity
  8
reindeer_cut_copy
 62
7
100
AcDbSpline
 70
8
 71
3
 72
8
 73
4
 74
0
 40
0
 40
0
 40
0
 40
0
 40
1
 40
1
 40
1
 40
1
 10
5.991300
 20
34.680612
 30
0.0
 10
6.409324
 20
34.761644
 30
0.0
 10
6.949793
 20
34.674670
 30
0.0
 10
7.797611
 20
34.426056
 30
0.0
  0
SPLINE
  5
196
100
AcDbEntity
  8
reindeer_cut_copy
 62
7
100
AcDbSpline
 70
8
 71
3
 72
8
 73
4
 74
0
 40
0
 40
0
 40
0
 40
0
 40
1
 40
1
 40
1
 40
1
 10
7.797611
 20
34.426056
 30
0.0
 10
7.962332
 20
34.377756
 30
0.0
 10
8.061773
 20
34.370348
 30
0.0
 10
8.128367
 20
34.370286
 30
0.0
  0
SPLINE
  5
197
100
AcDbEntity
  8
reindeer_cut_copy
 62
7
100
AcDbSpline
 70
8
 71
3
 72
8
 73
4
 74
0
 40
0
 40
0
 40
0
 40
0
 40
1
 40
1
 40
1
 40
1
 10
8.128367
 20
34.370286
 30
0.0
 10
8.075793
 20
34.496461
 30
0.0
 10
7.922765
 20
34.774035
 30
0.0
 10
7.666722
 20
35.000529
 30
0.0
  0
SPLINE
  5
198
100
AcDbEntity
  8
reindeer_cut_copy
 62
7
100
AcDbSpline
 70
8
 71
3
 72
8
 73
4
 74
0
 40
0
 40
0
 40
0
 40
0
 40
1
 40
1
 40
1
 40
1
 10
7.666722
 20
35.000529
 30
0.0
 10
5.409981
 20
36.578104
 30
0.0
 10
4.276871
 20
37.616779
 30
0.0
 10
3.834584
 20
38.367225
 30
0.0
  0
SPLINE
  5
199
100
AcDbEntity
  8
reindeer_cut_copy
 62
7
100
AcDbSpline
 70
8
 71
3
 72
8
 73
4
 74
0
 40
0
 40
0
 40
0
 40
0
 40
1
 40
1
 40
1
 40
1
 10
3.834584
 20
38.367225
 30
0.0
 10
3.723584
 20
38.555570
 30
0.0
 10
3.649635
 20
38.731694
 30
0.0
 10
3.640245
 20
38.929272
 30
0.0
  0
SPLINE
  5
19a
100
AcDbEntity
  8
reindeer_cut_copy
 62
7
100
AcDbSpline
 70
8
 71
3
 72
8
 73
4
 74
0
 40
0
 40
0
 40
0
 40
0
 40
1
 40
1
 40
1
 40
1
 10
3.640245
 20
38.929272
 30
0.0
 10
3.630852
 20
39.126852
 30
0.0
 10
3.726604
 20
39.355175
 30
0.0
 10
3.886938
 20
39.477380
 30
0.0
  0
SPLINE
  5
19b
100
AcDbEntity
  8
reindeer_cut_copy
 62
7
100
AcDbSpline
 70
8
 71
3
 72
8
 73
4
 74
0
 40
0
 40
0
 40
0
 40
0
 40
1
 40
1
 40
1
 40
1
 10
3.886938
 20
39.477380
 30
0.0
 10
4.207588
 20
39.721779
 30
0.0
 10
4.567328
 20
39.671343
 30
0.0
 10
4.982588
 20
39.583124
 30
0.0
  0
SPLINE
  5
19c
100
AcDbEntity
  8
reindeer_cut_copy
 62
7
100
AcDbSpline
 70
8
 71
3
 72
8
 73
4
 74
0
 40
0
 40
0
 40
0
 40
0
 40
1
 40
1
 40
1
 40
1
 10
4.982588
 20
39.583124
 30
0.0
 10
5.813119
 20
39.406689
 30
0.0
 10
6.942737
 20
38.875583
 30
0.0
 10
8.068285
 20
38.062847
 30
0.0
  0
SPLINE
  5
19d
100
AcDbEntity
  8
reindeer_cut_copy
 62
7
100
AcDbSpline
 70
8
 71
3
 72
8
 73
4
 74
0
 40
0
 40
0
 40
0
 40
0
 40
1
 40
1
 40
1
 40
1
 10
8.068285
 20
38.062847
 30
0.0
 10
8.859568
 20
37.491480
 30
0.0
 10
9.640107
 20
36.777595
 30
0.0
 10
10.279887
 20
35.944533
 30
0.0
  0
SPLINE
  5
19e
100
AcDbEntity
  8
reindeer_cut_copy
 62
7
100
AcDbSpline
 70
8
 71
3
 72
8
 73
4
 74
0
 40
0
 40
0
 40
0
 40
0
 40
1
 40
1
 40
1
 40
1
 10
10.279887
 20
35.944533
 30
0.0
 10
10.288387
 20
36.005450
 30
0.0
 10
10.294230
 20
36.069024
 30
0.0
 10
10.305824
 20
36.126684
 30
0.0
  0
SPLINE
  5
19f
100
AcDbEntity
  8
reindeer_cut_copy
 62
7
100
AcDbSpline
 70
8
 71
3
 72
8
 73
4
 74
0
 40
0
 40
0
 40
0
 40
0
 40
1
 40
1
 40
1
 40
1
 10
10.305824
 20
36.126684
 30
0.0
 10
10.350119
 20
36.346856
 30
0.0
 10
10.414025
 20
36.543235
 30
0.0
 10
10.528017
 20
36.715074
 30
0.0
  0
SPLINE
  5
1a0
100
AcDbEntity
  8
reindeer_cut_copy
 62
7
100
AcDbSpline
 70
8
 71
3
 72
8
 73
4
 74
0
 40
0
 40
0
 40
0
 40
0
 40
1
 40
1
 40
1
 40
1
 10
10.528017
 20
36.715074
 30
0.0
 10
10.642044
 20
36.886941
 30
0.0
 10
10.848615
 20
37.052894
 30
0.0
 10
11.101170
 20
37.053131
 30
0.0
  0
SPLINE
  5
1a1
100
AcDbEntity
  8
reindeer_cut_copy
 62
7
100
AcDbSpline
 70
8
 71
3
 72
8
 73
4
 74
0
 40
0
 40
0
 40
0
 40
0
 40
1
 40
1
 40
1
 40
1
 10
11.101170
 20
37.053131
 30
0.0
 10
11.353730
 20
37.053367
 30
0.0
 10
11.555718
 20
36.913280
 30
0.0
 10
11.723529
 20
36.730867
 30
0.0
  0
SPLINE
  5
1a2
100
AcDbEntity
  8
reindeer_cut_copy
 62
7
100
AcDbSpline
 70
8
 71
3
 72
8
 73
4
 74
0
 40
0
 40
0
 40
0
 40
0
 40
1
 40
1
 40
1
 40
1
 10
11.723529
 20
36.730867
 30
0.0
 10
11.891336
 20
36.548453
 30
0.0
 10
12.044793
 20
36.302845
 30
0.0
 10
12.205316
 20
35.970467
 30
0.0
  0
SPLINE
  5
1a3
100
AcDbEntity
  8
reindeer_cut_copy
 62
7
100
AcDbSpline
 70
8
 71
3
 72
8
 73
4
 74
0
 40
0
 40
0
 40
0
 40
0
 40
1
 40
1
 40
1
 40
1
 10
12.205316
 20
35.970467
 30
0.0
 10
12.320273
 20
35.732441
 30
0.0
 10
12.438907
 20
35.430867
 30
0.0
 10
12.559304
 20
35.096442
 30
0.0
  0
SPLINE
  5
1a4
100
AcDbEntity
  8
reindeer_cut_copy
 62
7
100
AcDbSpline
 70
8
 71
3
 72
8
 73
4
 74
0
 40
0
 40
0
 40
0
 40
0
 40
1
 40
1
 40
1
 40
1
 10
12.559304
 20
35.096442
 30
0.0
 10
12.771659
 20
35.223168
 30
0.0
 10
13.025446
 20
35.267135
 30
0.0
 10
13.316151
 20
35.258371
 30
0.0
  0
SPLINE
  5
1a5
100
AcDbEntity
  8
reindeer_cut_copy
 62
7
100
AcDbSpline
 70
8
 71
3
 72
8
 73
4
 74
0
 40
0
 40
0
 40
0
 40
0
 40
1
 40
1
 40
1
 40
1
 10
13.316151
 20
35.258371
 30
0.0
 10
13.832623
 20
35.242803
 30
0.0
 10
14.500222
 20
35.063195
 30
0.0
 10
15.346820
 20
34.690560
 30
0.0
  0
SPLINE
  5
1a6
100
AcDbEntity
  8
reindeer_cut_copy
 62
7
100
AcDbSpline
 70
8
 71
3
 72
8
 73
4
 74
0
 40
0
 40
0
 40
0
 40
0
 40
1
 40
1
 40
1
 40
1
 10
15.346820
 20
34.690560
 30
0.0
 10
15.061655
 20
35.476296
 30
0.0
 10
14.720332
 20
35.961311
 30
0.0
 10
14.324501
 20
36.319585
 30
0.0
  0
SPLINE
  5
1a7
100
AcDbEntity
  8
reindeer_cut_copy
 62
7
100
AcDbSpline
 70
8
 71
3
 72
8
 73
4
 74
0
 40
0
 40
0
 40
0
 40
0
 40
1
 40
1
 40
1
 40
1
 10
14.324501
 20
36.319585
 30
0.0
 10
13.811017
 20
36.784354
 30
0.0
 10
13.168009
 20
37.054337
 30
0.0
 10
12.377446
 20
37.430437
 30
0.0
  0
SPLINE
  5
1a8
100
AcDbEntity
  8
reindeer_cut_copy
 62
7
100
AcDbSpline
 70
8
 71
3
 72
8
 73
4
 74
0
 40
0
 40
0
 40
0
 40
0
 40
1
 40
1
 40
1
 40
1
 10
12.377446
 20
37.430437
 30
0.0
 10
10.924017
 20
38.055497
 30
0.0
 10
10.065824
 20
38.556731
 30
0.0
 10
9.592639
 20
38.998963
 30
0.0
  0
SPLINE
  5
1a9
100
AcDbEntity
  8
reindeer_cut_copy
 62
7
100
AcDbSpline
 70
8
 71
3
 72
8
 73
4
 74
0
 40
0
 40
0
 40
0
 40
0
 40
1
 40
1
 40
1
 40
1
 10
9.592639
 20
38.998963
 30
0.0
 10
9.355265
 20
39.220800
 30
0.0
 10
9.188576
 20
39.433517
 30
0.0
 10
9.165300
 20
39.720188
 30
0.0
  0
SPLINE
  5
1aa
100
AcDbEntity
  8
reindeer_cut_copy
 62
7
100
AcDbSpline
 70
8
 71
3
 72
8
 73
4
 74
0
 40
0
 40
0
 40
0
 40
0
 40
1
 40
1
 40
1
 40
1
 10
9.165300
 20
39.720188
 30
0.0
 10
9.142033
 20
40.006866
 30
0.0
 10
9.357462
 20
40.272481
 30
0.0
 10
9.577722
 20
40.378769
 30
0.0
  0
SPLINE
  5
1ab
100
AcDbEntity
  8
reindeer_cut_copy
 62
7
100
AcDbSpline
 70
8
 71
3
 72
8
 73
4
 74
0
 40
0
 40
0
 40
0
 40
0
 40
1
 40
1
 40
1
 40
1
 10
9.577722
 20
40.378769
 30
0.0
 10
10.018237
 20
40.591348
 30
0.0
 10
10.583706
 20
40.561580
 30
0.0
 10
11.248911
 20
40.432806
 30
0.0
  0
SPLINE
  5
1ac
100
AcDbEntity
  8
reindeer_cut_copy
 62
7
100
AcDbSpline
 70
8
 71
3
 72
8
 73
4
 74
0
 40
0
 40
0
 40
0
 40
0
 40
1
 40
1
 40
1
 40
1
 10
11.248911
 20
40.432806
 30
0.0
 10
11.581379
 20
40.368450
 30
0.0
 10
11.933438
 20
40.270650
 30
0.0
 10
12.285572
 20
40.137261
 30
0.0
  0
SPLINE
  5
1ad
100
AcDbEntity
  8
reindeer_cut_copy
 62
7
100
AcDbSpline
 70
8
 71
3
 72
8
 73
4
 74
0
 40
0
 40
0
 40
0
 40
0
 40
1
 40
1
 40
1
 40
1
 10
12.285572
 20
40.137261
 30
0.0
 10
12.179981
 20
40.307991
 30
0.0
 10
12.067529
 20
40.483209
 30
0.0
 10
11.947529
 20
40.656614
 30
0.0
  0
SPLINE
  5
1ae
100
AcDbEntity
  8
reindeer_cut_copy
 62
7
100
AcDbSpline
 70
8
 71
3
 72
8
 73
4
 74
0
 40
0
 40
0
 40
0
 40
0
 40
1
 40
1
 40
1
 40
1
 10
11.947529
 20
40.656614
 30
0.0
 10
11.540962
 20
41.244145
 30
0.0
 10
11.079383
 20
41.830358
 30
0.0
 10
10.840848
 20
42.084806
 30
0.0
  0
SPLINE
  5
1af
100
AcDbEntity
  8
reindeer_cut_copy
 62
7
100
AcDbSpline
 70
8
 71
3
 72
8
 73
4
 74
0
 40
0
 40
0
 40
0
 40
0
 40
1
 40
1
 40
1
 40
1
 10
10.840848
 20
42.084806
 30
0.0
 10
10.269021
 20
42.694781
 30
0.0
 10
9.787426
 20
43.329185
 30
0.0
 10
9.455135
 20
43.879791
 30
0.0
  0
SPLINE
  5
1b0
100
AcDbEntity
  8
reindeer_cut_copy
 62
7
100
AcDbSpline
 70
8
 71
3
 72
8
 73
4
 74
0
 40
0
 40
0
 40
0
 40
0
 40
1
 40
1
 40
1
 40
1
 10
9.455135
 20
43.879791
 30
0.0
 10
9.288989
 20
44.155093
 30
0.0
 10
9.159859
 20
44.408427
 30
0.0
 10
9.075131
 20
44.639337
 30
0.0
  0
SPLINE
  5
1b1
100
AcDbEntity
  8
reindeer_cut_copy
 62
7
100
AcDbSpline
 70
8
 71
3
 72
8
 73
4
 74
0
 40
0
 40
0
 40
0
 40
0
 40
1
 40
1
 40
1
 40
1
 10
9.075131
 20
44.639337
 30
0.0
 10
8.990399
 20
44.870244
 30
0.0
 10
8.925659
 20
45.073366
 30
0.0
 10
8.997639
 20
45.326621
 30
0.0
  0
SPLINE
  5
1b2
100
AcDbEntity
  8
reindeer_cut_copy
 62
7
100
AcDbSpline
 70
8
 71
3
 72
8
 73
4
 74
0
 40
0
 40
0
 40
0
 40
0
 40
1
 40
1
 40
1
 40
1
 10
8.997639
 20
45.326621
 30
0.0
 10
9.024627
 20
45.421591
 30
0.0
 10
9.087769
 20
45.525446
 30
0.0
 10
9.175104
 20
45.601021
 30
0.0
  0
LWPOLYLINE
  5
1b3
100
AcDbEntity
  8
reindeer_cut_copy
 62
7
100
AcDbPolyline
 90
2
 70
0
 10
31.135537
 20
8.615146
 30
0.0
 10
31.106178
 20
8.580331
 30
0.0
  0
SPLINE
  5
1b4
100
AcDbEntity
  8
reindeer_cut_copy
 62
7
100
AcDbSpline
 70
8
 71
3
 72
8
 73
4
 74
0
 40
0
 40
0
 40
0
 40
0
 40
1
 40
1
 40
1
 40
1
 10
13.210572
 20
32.862831
 30
0.0
 10
13.216285
 20
32.839334
 30
0.0
 10
13.221714
 20
32.820868
 30
0.0
 10
13.227438
 20
32.797127
 30
0.0
  0
SPLINE
  5
1b5
100
AcDbEntity
  8
reindeer_cut_copy
 62
7
100
AcDbSpline
 70
8
 71
3
 72
8
 73
4
 74
0
 40
0
 40
0
 40
0
 40
0
 40
1
 40
1
 40
1
 40
1
 10
13.227438
 20
32.797127
 30
0.0
 10
13.677718
 20
31.224137
 30
0.0
 10
15.344895
 20
29.391918
 30
0.0
 10
17.142726
 20
27.688198
 30
0.0
  0
SPLINE
  5
1b6
100
AcDbEntity
  8
reindeer_cut_copy
 62
7
100
AcDbSpline
 70
8
 71
3
 72
8
 73
4
 74
0
 40
0
 40
0
 40
0
 40
0
 40
1
 40
1
 40
1
 40
1
 10
17.142726
 20
27.688198
 30
0.0
 10
17.143119
 20
27.924615
 30
0.0
 10
17.171840
 20
28.146678
 30
0.0
 10
17.225312
 20
28.367259
 30
0.0
  0
SPLINE
  5
1b7
100
AcDbEntity
  8
reindeer_cut_copy
 62
7
100
AcDbSpline
 70
8
 71
3
 72
8
 73
4
 74
0
 40
0
 40
0
 40
0
 40
0
 40
1
 40
1
 40
1
 40
1
 10
17.225312
 20
28.367259
 30
0.0
 10
17.236379
 20
28.412900
 30
0.0
 10
17.248958
 20
28.458335
 30
0.0
 10
17.261895
 20
28.503762
 30
0.0
  0
LWPOLYLINE
  5
1b8
100
AcDbEntity
  8
reindeer_cut_copy
 62
7
100
AcDbPolyline
 90
2
 70
0
 10
9.175104
 20
45.601021
 30
0.0
 10
9.174596
 20
45.601366
 30
0.0
  0
SPLINE
  5
1b9
100
AcDbEntity
  8
reindeer_cut_copy
 62
7
100
AcDbSpline
 70
8
 71
3
 72
8
 73
4
 74
0
 40
0
 40
0
 40
0
 40
0
 40
1
 40
1
 40
1
 40
1
 10
16.041017
 20
31.425388
 30
0.0
 10
14.896285
 20
31.797535
 30
0.0
 10
13.991285
 20
32.267253
 30
0.0
 10
13.348206
 20
32.749315
 30
0.0
  0
SPLINE
  5
1ba
100
AcDbEntity
  8
reindeer_cut_copy
 62
7
100
AcDbSpline
 70
8
 71
3
 72
8
 73
4
 74
0
 40
0
 40
0
 40
0
 40
0
 40
1
 40
1
 40
1
 40
1
 10
13.348206
 20
32.749315
 30
0.0
 10
13.297426
 20
32.787376
 30
0.0
 10
13.258454
 20
32.824942
 30
0.0
 10
13.210572
 20
32.862831
 30
0.0
  0
LWPOLYLINE
  5
1bb
100
AcDbEntity
  8
reindeer_cut_copy
 62
7
100
AcDbPolyline
 90
2
 70
0
 10
17.261895
 20
28.503762
 30
0.0
 10
16.041017
 20
31.425388
 30
0.0
  0
LWPOLYLINE
  5
1bc
100
AcDbEntity
  8
reindeer_cut_copy
 62
7
100
AcDbPolyline
 90
1
 70
1
 10
13.210572
 20
32.862831
 30
0.0
  0
LWPOLYLINE
  5
1bd
100
AcDbEntity
  8
fiducials
 62
7
100
AcDbPolyline
 90
4
 70
1
 10
95.038516
 20
46.350075
 30
0.0
 10
1.058217
 20
46.350075
 30
0.0
 10
1.058217
 20
1.369780
 30
0.0
 10
95.038516
 20
1.369780
 30
0.0
  0
ENDSEC
  0
SECTION
  2
OBJECTS
  0
DICTIONARY
  5
C
330
0
100
AcDbDictionary
  3
ACAD_GROUP
350
D
  3
ACAD_MLINESTYLE
350
17
  0
DICTIONARY
  5
D
330
C
100
AcDbDictionary
  0
DICTIONARY
  5
1A
330
C
100
AcDbDictionary
  0
DICTIONARY
  5
17
330
C
100
AcDbDictionary
  3
STANDARD
350
18
  0
DICTIONARY
  5
19
330
C
100
AcDbDictionary
  0
ENDSEC
  0
EOF
