999
"DXF R12 Output" (www.mydxf.blogspot.com)
 0 
SECTION
 2 
HEADER
 9 
$ACADVER
 1 
AC1009
 9 
$EXTMIN
 10 
 0 
 20 
 0 
 9 
$EXTMAX
 10 
 8.5 
 20 
 11 
 0 
ENDSEC
 0 
SECTION
 2 
ENTITIES
0
LINE
8
sleigh cut
10
2272.057400
20
1055.774890
11
2278.303879
21
1050.858889
0
LINE
8
sleigh cut
10
2278.303879
20
1050.858889
11
2284.402431
21
1045.720549
0
LINE
8
sleigh cut
10
2284.402431
20
1045.720549
11
2290.337345
21
1040.360215
0
LINE
8
sleigh cut
10
2290.337345
20
1040.360215
11
2296.092914
21
1034.778229
0
LINE
8
sleigh cut
10
2296.092914
20
1034.778229
11
2301.653427
21
1028.974937
0
LINE
8
sleigh cut
10
2301.653427
20
1028.974937
11
2307.003175
21
1022.950682
0
LINE
8
sleigh cut
10
2307.003175
20
1022.950682
11
2312.126448
21
1016.705808
0
LINE
8
sleigh cut
10
2312.126448
20
1016.705808
11
2317.007537
21
1010.240658
0
LINE
8
sleigh cut
10
2317.007537
20
1010.240658
11
2321.630734
21
1003.555576
0
LINE
8
sleigh cut
10
2321.630734
20
1003.555576
11
2325.980327
21
996.650906
0
LINE
8
sleigh cut
10
2325.980327
20
996.650906
11
2330.040608
21
989.526993
0
LINE
8
sleigh cut
10
2330.040608
20
989.526993
11
2333.795867
21
982.184179
0
LINE
8
sleigh cut
10
2333.795867
20
982.184179
11
2337.230396
21
974.622809
0
LINE
8
sleigh cut
10
2337.230396
20
974.622809
11
2340.328483
21
966.843227
0
LINE
8
sleigh cut
10
2340.328483
20
966.843227
11
2343.074421
21
958.845776
0
LINE
8
sleigh cut
10
2343.074421
20
958.845776
11
2345.452500
21
950.630800
0
LINE
8
sleigh cut
10
2345.452500
20
950.630800
11
2347.408299
21
942.368732
0
LINE
8
sleigh cut
10
2347.408299
20
942.368732
11
2348.968989
21
933.957163
0
LINE
8
sleigh cut
10
2348.968989
20
933.957163
11
2350.132406
21
925.400852
0
LINE
8
sleigh cut
10
2350.132406
20
925.400852
11
2350.896386
21
916.704559
0
LINE
8
sleigh cut
10
2350.896386
20
916.704559
11
2351.258764
21
907.873043
0
LINE
8
sleigh cut
10
2351.258764
20
907.873043
11
2351.217374
21
898.911064
0
LINE
8
sleigh cut
10
2351.217374
20
898.911064
11
2350.770054
21
889.823382
0
LINE
8
sleigh cut
10
2350.770054
20
889.823382
11
2349.914638
21
880.614756
0
LINE
8
sleigh cut
10
2349.914638
20
880.614756
11
2348.648961
21
871.289946
0
LINE
8
sleigh cut
10
2348.648961
20
871.289946
11
2346.970858
21
861.853711
0
LINE
8
sleigh cut
10
2346.970858
20
861.853711
11
2344.878167
21
852.310811
0
LINE
8
sleigh cut
10
2344.878167
20
852.310811
11
2342.368720
21
842.666005
0
LINE
8
sleigh cut
10
2342.368720
20
842.666005
11
2339.440355
21
832.924054
0
LINE
8
sleigh cut
10
2339.440355
20
832.924054
11
2336.090906
21
823.089716
0
LINE
8
sleigh cut
10
2336.090906
20
823.089716
11
2332.318210
21
813.167752
0
LINE
8
sleigh cut
10
2332.318210
20
813.167752
11
2328.120100
21
803.162920
0
LINE
8
sleigh cut
10
2328.120100
20
803.162920
11
2328.110100
21
803.141220
0
LINE
8
sleigh cut
10
2328.110100
20
803.141220
11
2323.163975
21
788.815729
0
LINE
8
sleigh cut
10
2323.163975
20
788.815729
11
2318.298292
21
773.959113
0
LINE
8
sleigh cut
10
2318.298292
20
773.959113
11
2313.627151
21
758.623044
0
LINE
8
sleigh cut
10
2313.627151
20
758.623044
11
2309.264653
21
742.859195
0
LINE
8
sleigh cut
10
2309.264653
20
742.859195
11
2305.324899
21
726.719236
0
LINE
8
sleigh cut
10
2305.324899
20
726.719236
11
2303.549206
21
718.524364
0
LINE
8
sleigh cut
10
2303.549206
20
718.524364
11
2301.921988
21
710.254842
0
LINE
8
sleigh cut
10
2301.921988
20
710.254842
11
2300.457505
21
701.917130
0
LINE
8
sleigh cut
10
2300.457505
20
701.917130
11
2299.170022
21
693.517685
0
LINE
8
sleigh cut
10
2299.170022
20
693.517685
11
2298.073799
21
685.062967
0
LINE
8
sleigh cut
10
2298.073799
20
685.062967
11
2297.183100
21
676.559436
0
LINE
8
sleigh cut
10
2297.183100
20
676.559436
11
2296.512187
21
668.013550
0
LINE
8
sleigh cut
10
2296.512187
20
668.013550
11
2296.075324
21
659.431769
0
LINE
8
sleigh cut
10
2296.075324
20
659.431769
11
2295.886772
21
650.820551
0
LINE
8
sleigh cut
10
2295.886772
20
650.820551
11
2295.960793
21
642.186355
0
LINE
8
sleigh cut
10
2295.960793
20
642.186355
11
2296.311652
21
633.535641
0
LINE
8
sleigh cut
10
2296.311652
20
633.535641
11
2296.953609
21
624.874867
0
LINE
8
sleigh cut
10
2296.953609
20
624.874867
11
2297.900928
21
616.210493
0
LINE
8
sleigh cut
10
2297.900928
20
616.210493
11
2299.167872
21
607.548977
0
LINE
8
sleigh cut
10
2299.167872
20
607.548977
11
2300.768702
21
598.896780
0
LINE
8
sleigh cut
10
2300.768702
20
598.896780
11
2302.717682
21
590.260358
0
LINE
8
sleigh cut
10
2302.717682
20
590.260358
11
2305.029073
21
581.646173
0
LINE
8
sleigh cut
10
2305.029073
20
581.646173
11
2307.717139
21
573.060683
0
LINE
8
sleigh cut
10
2307.717139
20
573.060683
11
2310.796143
21
564.510346
0
LINE
8
sleigh cut
10
2310.796143
20
564.510346
11
2314.280345
21
556.001622
0
LINE
8
sleigh cut
10
2314.280345
20
556.001622
11
2318.184010
21
547.540971
0
LINE
8
sleigh cut
10
2318.184010
20
547.540971
11
2322.521400
21
539.134850
0
LINE
8
sleigh cut
10
2322.521400
20
539.134850
11
2322.309700
21
539.497210
0
LINE
8
sleigh cut
10
2322.309700
20
539.497210
11
2324.987428
21
535.019766
0
LINE
8
sleigh cut
10
2324.987428
20
535.019766
11
2327.527936
21
530.425264
0
LINE
8
sleigh cut
10
2327.527936
20
530.425264
11
2329.929625
21
525.718110
0
LINE
8
sleigh cut
10
2329.929625
20
525.718110
11
2332.190899
21
520.902710
0
LINE
8
sleigh cut
10
2332.190899
20
520.902710
11
2334.310159
21
515.983468
0
LINE
8
sleigh cut
10
2334.310159
20
515.983468
11
2336.285809
21
510.964789
0
LINE
8
sleigh cut
10
2336.285809
20
510.964789
11
2338.116252
21
505.851080
0
LINE
8
sleigh cut
10
2338.116252
20
505.851080
11
2339.799889
21
500.646744
0
LINE
8
sleigh cut
10
2339.799889
20
500.646744
11
2341.335124
21
495.356187
0
LINE
8
sleigh cut
10
2341.335124
20
495.356187
11
2342.720358
21
489.983815
0
LINE
8
sleigh cut
10
2342.720358
20
489.983815
11
2343.953996
21
484.534032
0
LINE
8
sleigh cut
10
2343.953996
20
484.534032
11
2345.034438
21
479.011243
0
LINE
8
sleigh cut
10
2345.034438
20
479.011243
11
2345.960088
21
473.419854
0
LINE
8
sleigh cut
10
2345.960088
20
473.419854
11
2346.729349
21
467.764271
0
LINE
8
sleigh cut
10
2346.729349
20
467.764271
11
2347.340623
21
462.048897
0
LINE
8
sleigh cut
10
2347.340623
20
462.048897
11
2347.792313
21
456.278139
0
LINE
8
sleigh cut
10
2347.792313
20
456.278139
11
2348.082820
21
450.456401
0
LINE
8
sleigh cut
10
2348.082820
20
450.456401
11
2348.210549
21
444.588089
0
LINE
8
sleigh cut
10
2348.210549
20
444.588089
11
2348.173901
21
438.677607
0
LINE
8
sleigh cut
10
2348.173901
20
438.677607
11
2347.971279
21
432.729362
0
LINE
8
sleigh cut
10
2347.971279
20
432.729362
11
2347.601086
21
426.747758
0
LINE
8
sleigh cut
10
2347.601086
20
426.747758
11
2347.061724
21
420.737200
0
LINE
8
sleigh cut
10
2347.061724
20
420.737200
11
2346.351596
21
414.702094
0
LINE
8
sleigh cut
10
2346.351596
20
414.702094
11
2345.469105
21
408.646844
0
LINE
8
sleigh cut
10
2345.469105
20
408.646844
11
2344.412652
21
402.575857
0
LINE
8
sleigh cut
10
2344.412652
20
402.575857
11
2343.180642
21
396.493536
0
LINE
8
sleigh cut
10
2343.180642
20
396.493536
11
2341.771475
21
390.404287
0
LINE
8
sleigh cut
10
2341.771475
20
390.404287
11
2340.183556
21
384.312516
0
LINE
8
sleigh cut
10
2340.183556
20
384.312516
11
2338.415286
21
378.222628
0
LINE
8
sleigh cut
10
2338.415286
20
378.222628
11
2336.465069
21
372.139027
0
LINE
8
sleigh cut
10
2336.465069
20
372.139027
11
2334.331306
21
366.066120
0
LINE
8
sleigh cut
10
2334.331306
20
366.066120
11
2332.012400
21
360.008310
0
LINE
8
sleigh cut
10
2332.012400
20
360.008310
11
2329.182020
21
353.350610
0
LINE
8
sleigh cut
10
2329.182020
20
353.350610
11
2326.047563
21
346.766111
0
LINE
8
sleigh cut
10
2326.047563
20
346.766111
11
2322.635848
21
340.254709
0
LINE
8
sleigh cut
10
2322.635848
20
340.254709
11
2318.973700
21
333.816300
0
LINE
8
sleigh cut
10
2318.973700
20
333.816300
11
2320.069735
21
324.976629
0
LINE
8
sleigh cut
10
2320.069735
20
324.976629
11
2321.716127
21
316.269304
0
LINE
8
sleigh cut
10
2321.716127
20
316.269304
11
2323.863539
21
307.693756
0
LINE
8
sleigh cut
10
2323.863539
20
307.693756
11
2326.462638
21
299.249416
0
LINE
8
sleigh cut
10
2326.462638
20
299.249416
11
2329.464088
21
290.935718
0
LINE
8
sleigh cut
10
2329.464088
20
290.935718
11
2332.818555
21
282.752093
0
LINE
8
sleigh cut
10
2332.818555
20
282.752093
11
2336.476704
21
274.697973
0
LINE
8
sleigh cut
10
2336.476704
20
274.697973
11
2340.389200
21
266.772790
0
LINE
8
sleigh cut
10
2340.389200
20
266.772790
11
2343.703797
21
264.720190
0
LINE
8
sleigh cut
10
2343.703797
20
264.720190
11
2346.926239
21
262.548404
0
LINE
8
sleigh cut
10
2346.926239
20
262.548404
11
2350.050903
21
260.258993
0
LINE
8
sleigh cut
10
2350.050903
20
260.258993
11
2353.072166
21
257.853517
0
LINE
8
sleigh cut
10
2353.072166
20
257.853517
11
2355.984402
21
255.333534
0
LINE
8
sleigh cut
10
2355.984402
20
255.333534
11
2358.781990
21
252.700606
0
LINE
8
sleigh cut
10
2358.781990
20
252.700606
11
2361.459306
21
249.956292
0
LINE
8
sleigh cut
10
2361.459306
20
249.956292
11
2364.010725
21
247.102152
0
LINE
8
sleigh cut
10
2364.010725
20
247.102152
11
2366.430625
21
244.139747
0
LINE
8
sleigh cut
10
2366.430625
20
244.139747
11
2368.713382
21
241.070635
0
LINE
8
sleigh cut
10
2368.713382
20
241.070635
11
2370.853372
21
237.896377
0
LINE
8
sleigh cut
10
2370.853372
20
237.896377
11
2372.844972
21
234.618532
0
LINE
8
sleigh cut
10
2372.844972
20
234.618532
11
2374.682558
21
231.238661
0
LINE
8
sleigh cut
10
2374.682558
20
231.238661
11
2376.360507
21
227.758324
0
LINE
8
sleigh cut
10
2376.360507
20
227.758324
11
2377.873196
21
224.179080
0
LINE
8
sleigh cut
10
2377.873196
20
224.179080
11
2379.215000
21
220.502490
0
LINE
8
sleigh cut
10
2379.215000
20
220.502490
11
2381.150496
21
213.943775
0
LINE
8
sleigh cut
10
2381.150496
20
213.943775
11
2382.532546
21
207.455588
0
LINE
8
sleigh cut
10
2382.532546
20
207.455588
11
2383.382245
21
201.051819
0
LINE
8
sleigh cut
10
2383.382245
20
201.051819
11
2383.720686
21
194.746358
0
LINE
8
sleigh cut
10
2383.720686
20
194.746358
11
2383.568964
21
188.553098
0
LINE
8
sleigh cut
10
2383.568964
20
188.553098
11
2382.948174
21
182.485928
0
LINE
8
sleigh cut
10
2382.948174
20
182.485928
11
2381.879408
21
176.558740
0
LINE
8
sleigh cut
10
2381.879408
20
176.558740
11
2380.383763
21
170.785424
0
LINE
8
sleigh cut
10
2380.383763
20
170.785424
11
2378.482330
21
165.179871
0
LINE
8
sleigh cut
10
2378.482330
20
165.179871
11
2376.196206
21
159.755972
0
LINE
8
sleigh cut
10
2376.196206
20
159.755972
11
2373.546484
21
154.527618
0
LINE
8
sleigh cut
10
2373.546484
20
154.527618
11
2370.554258
21
149.508700
0
LINE
8
sleigh cut
10
2370.554258
20
149.508700
11
2367.240622
21
144.713108
0
LINE
8
sleigh cut
10
2367.240622
20
144.713108
11
2363.626671
21
140.154734
0
LINE
8
sleigh cut
10
2363.626671
20
140.154734
11
2359.733499
21
135.847467
0
LINE
8
sleigh cut
10
2359.733499
20
135.847467
11
2355.582200
21
131.805200
0
LINE
8
sleigh cut
10
2355.582200
20
131.805200
11
2351.526546
21
128.280311
0
LINE
8
sleigh cut
10
2351.526546
20
128.280311
11
2347.288540
21
124.948039
0
LINE
8
sleigh cut
10
2347.288540
20
124.948039
11
2342.876895
21
121.811230
0
LINE
8
sleigh cut
10
2342.876895
20
121.811230
11
2338.300322
21
118.872728
0
LINE
8
sleigh cut
10
2338.300322
20
118.872728
11
2333.567532
21
116.135377
0
LINE
8
sleigh cut
10
2333.567532
20
116.135377
11
2328.687236
21
113.602021
0
LINE
8
sleigh cut
10
2328.687236
20
113.602021
11
2323.668147
21
111.275506
0
LINE
8
sleigh cut
10
2323.668147
20
111.275506
11
2318.518975
21
109.158675
0
LINE
8
sleigh cut
10
2318.518975
20
109.158675
11
2313.248432
21
107.254373
0
LINE
8
sleigh cut
10
2313.248432
20
107.254373
11
2307.865229
21
105.565444
0
LINE
8
sleigh cut
10
2307.865229
20
105.565444
11
2302.378078
21
104.094733
0
LINE
8
sleigh cut
10
2302.378078
20
104.094733
11
2296.795691
21
102.845084
0
LINE
8
sleigh cut
10
2296.795691
20
102.845084
11
2291.126777
21
101.819342
0
LINE
8
sleigh cut
10
2291.126777
20
101.819342
11
2285.380050
21
101.020351
0
LINE
8
sleigh cut
10
2285.380050
20
101.020351
11
2279.564221
21
100.450956
0
LINE
8
sleigh cut
10
2279.564221
20
100.450956
11
2273.688000
21
100.114000
0
LINE
8
sleigh cut
10
2273.688000
20
100.114000
11
2273.785000
21
99.745300
0
LINE
8
sleigh cut
10
2273.785000
20
99.745300
11
290.738680
21
99.767300
0
LINE
8
sleigh cut
10
290.738680
20
99.767300
11
290.738680
21
100.127300
0
LINE
8
sleigh cut
10
290.738680
20
100.127300
11
282.605168
21
100.703308
0
LINE
8
sleigh cut
10
282.605168
20
100.703308
11
274.474124
21
101.529764
0
LINE
8
sleigh cut
10
274.474124
20
101.529764
11
266.353825
21
102.606002
0
LINE
8
sleigh cut
10
266.353825
20
102.606002
11
258.252547
21
103.931353
0
LINE
8
sleigh cut
10
258.252547
20
103.931353
11
250.178566
21
105.505153
0
LINE
8
sleigh cut
10
250.178566
20
105.505153
11
242.140158
21
107.326734
0
LINE
8
sleigh cut
10
242.140158
20
107.326734
11
234.145600
21
109.395430
0
LINE
8
sleigh cut
10
234.145600
20
109.395430
11
226.203168
21
111.710575
0
LINE
8
sleigh cut
10
226.203168
20
111.710575
11
218.321137
21
114.271502
0
LINE
8
sleigh cut
10
218.321137
20
114.271502
11
210.507784
21
117.077544
0
LINE
8
sleigh cut
10
210.507784
20
117.077544
11
202.771386
21
120.128035
0
LINE
8
sleigh cut
10
202.771386
20
120.128035
11
195.120219
21
123.422309
0
LINE
8
sleigh cut
10
195.120219
20
123.422309
11
187.562558
21
126.959699
0
LINE
8
sleigh cut
10
187.562558
20
126.959699
11
180.106681
21
130.739539
0
LINE
8
sleigh cut
10
180.106681
20
130.739539
11
172.760863
21
134.761161
0
LINE
8
sleigh cut
10
172.760863
20
134.761161
11
165.533380
21
139.023900
0
LINE
8
sleigh cut
10
165.533380
20
139.023900
11
156.556983
21
144.785917
0
LINE
8
sleigh cut
10
156.556983
20
144.785917
11
147.887279
21
150.895472
0
LINE
8
sleigh cut
10
147.887279
20
150.895472
11
139.534822
21
157.334963
0
LINE
8
sleigh cut
10
139.534822
20
157.334963
11
131.510169
21
164.086786
0
LINE
8
sleigh cut
10
131.510169
20
164.086786
11
123.823874
21
171.133340
0
LINE
8
sleigh cut
10
123.823874
20
171.133340
11
116.486493
21
178.457022
0
LINE
8
sleigh cut
10
116.486493
20
178.457022
11
109.508580
21
186.040230
0
LINE
8
sleigh cut
10
109.508580
20
186.040230
11
102.900692
21
193.865361
0
LINE
8
sleigh cut
10
102.900692
20
193.865361
11
96.673383
21
201.914814
0
LINE
8
sleigh cut
10
96.673383
20
201.914814
11
90.837208
21
210.170986
0
LINE
8
sleigh cut
10
90.837208
20
210.170986
11
85.402724
21
218.616275
0
LINE
8
sleigh cut
10
85.402724
20
218.616275
11
80.380484
21
227.233079
0
LINE
8
sleigh cut
10
80.380484
20
227.233079
11
75.781044
21
236.003794
0
LINE
8
sleigh cut
10
75.781044
20
236.003794
11
71.614960
21
244.910819
0
LINE
8
sleigh cut
10
71.614960
20
244.910819
11
67.892787
21
253.936552
0
LINE
8
sleigh cut
10
67.892787
20
253.936552
11
64.625079
21
263.063390
0
LINE
8
sleigh cut
10
64.625079
20
263.063390
11
61.824074
21
272.276139
0
LINE
8
sleigh cut
10
61.824074
20
272.276139
11
59.502414
21
281.558630
0
LINE
8
sleigh cut
10
59.502414
20
281.558630
11
57.671095
21
290.891723
0
LINE
8
sleigh cut
10
57.671095
20
290.891723
11
56.341113
21
300.256276
0
LINE
8
sleigh cut
10
56.341113
20
300.256276
11
55.523465
21
309.633148
0
LINE
8
sleigh cut
10
55.523465
20
309.633148
11
55.229146
21
319.003198
0
LINE
8
sleigh cut
10
55.229146
20
319.003198
11
55.469152
21
328.347285
0
LINE
8
sleigh cut
10
55.469152
20
328.347285
11
56.254479
21
337.646267
0
LINE
8
sleigh cut
10
56.254479
20
337.646267
11
57.596123
21
346.881004
0
LINE
8
sleigh cut
10
57.596123
20
346.881004
11
59.505081
21
356.032354
0
LINE
8
sleigh cut
10
59.505081
20
356.032354
11
61.992348
21
365.081175
0
LINE
8
sleigh cut
10
61.992348
20
365.081175
11
63.456283
21
369.561157
0
LINE
8
sleigh cut
10
63.456283
20
369.561157
11
65.068920
21
374.008328
0
LINE
8
sleigh cut
10
65.068920
20
374.008328
11
66.831631
21
378.420296
0
LINE
8
sleigh cut
10
66.831631
20
378.420296
11
68.745793
21
382.794670
0
LINE
8
sleigh cut
10
68.745793
20
382.794670
11
70.812778
21
387.129055
0
LINE
8
sleigh cut
10
70.812778
20
387.129055
11
73.033963
21
391.421060
0
LINE
8
sleigh cut
10
73.033963
20
391.421060
11
75.410721
21
395.668291
0
LINE
8
sleigh cut
10
75.410721
20
395.668291
11
77.944426
21
399.868357
0
LINE
8
sleigh cut
10
77.944426
20
399.868357
11
80.636454
21
404.018864
0
LINE
8
sleigh cut
10
80.636454
20
404.018864
11
83.488179
21
408.117420
0
LINE
8
sleigh cut
10
83.488179
20
408.117420
11
87.458008
21
413.355541
0
LINE
8
sleigh cut
10
87.458008
20
413.355541
11
91.677583
21
418.397415
0
LINE
8
sleigh cut
10
91.677583
20
418.397415
11
96.136534
21
423.238817
0
LINE
8
sleigh cut
10
96.136534
20
423.238817
11
100.824494
21
427.875524
0
LINE
8
sleigh cut
10
100.824494
20
427.875524
11
105.731093
21
432.303311
0
LINE
8
sleigh cut
10
105.731093
20
432.303311
11
110.845963
21
436.517952
0
LINE
8
sleigh cut
10
110.845963
20
436.517952
11
116.158736
21
440.515225
0
LINE
8
sleigh cut
10
116.158736
20
440.515225
11
121.659042
21
444.290904
0
LINE
8
sleigh cut
10
121.659042
20
444.290904
11
127.336514
21
447.840765
0
LINE
8
sleigh cut
10
127.336514
20
447.840765
11
133.180782
21
451.160583
0
LINE
8
sleigh cut
10
133.180782
20
451.160583
11
139.181479
21
454.246134
0
LINE
8
sleigh cut
10
139.181479
20
454.246134
11
145.328235
21
457.093194
0
LINE
8
sleigh cut
10
145.328235
20
457.093194
11
151.610681
21
459.697538
0
LINE
8
sleigh cut
10
151.610681
20
459.697538
11
158.018450
21
462.054942
0
LINE
8
sleigh cut
10
158.018450
20
462.054942
11
164.541173
21
464.161180
0
LINE
8
sleigh cut
10
164.541173
20
464.161180
11
171.168480
21
466.012030
0
LINE
8
sleigh cut
10
171.168480
20
466.012030
11
166.655101
21
468.367973
0
LINE
8
sleigh cut
10
166.655101
20
468.367973
11
162.293750
21
470.869744
0
LINE
8
sleigh cut
10
162.293750
20
470.869744
11
158.085193
21
473.508764
0
LINE
8
sleigh cut
10
158.085193
20
473.508764
11
154.030199
21
476.276455
0
LINE
8
sleigh cut
10
154.030199
20
476.276455
11
150.129533
21
479.164241
0
LINE
8
sleigh cut
10
150.129533
20
479.164241
11
146.383964
21
482.163543
0
LINE
8
sleigh cut
10
146.383964
20
482.163543
11
142.794257
21
485.265783
0
LINE
8
sleigh cut
10
142.794257
20
485.265783
11
139.361180
21
488.462384
0
LINE
8
sleigh cut
10
139.361180
20
488.462384
11
136.085500
21
491.744768
0
LINE
8
sleigh cut
10
136.085500
20
491.744768
11
132.967984
21
495.104357
0
LINE
8
sleigh cut
10
132.967984
20
495.104357
11
130.009399
21
498.532574
0
LINE
8
sleigh cut
10
130.009399
20
498.532574
11
127.210511
21
502.020840
0
LINE
8
sleigh cut
10
127.210511
20
502.020840
11
124.572089
21
505.560579
0
LINE
8
sleigh cut
10
124.572089
20
505.560579
11
122.094898
21
509.143212
0
LINE
8
sleigh cut
10
122.094898
20
509.143212
11
119.779706
21
512.760161
0
LINE
8
sleigh cut
10
119.779706
20
512.760161
11
117.627280
21
516.402850
0
LINE
8
sleigh cut
10
117.627280
20
516.402850
11
115.046980
21
521.156995
0
LINE
8
sleigh cut
10
115.046980
20
521.156995
11
112.691440
21
525.911310
0
LINE
8
sleigh cut
10
112.691440
20
525.911310
11
110.556134
21
530.660986
0
LINE
8
sleigh cut
10
110.556134
20
530.660986
11
108.636536
21
535.401212
0
LINE
8
sleigh cut
10
108.636536
20
535.401212
11
106.928122
21
540.127178
0
LINE
8
sleigh cut
10
106.928122
20
540.127178
11
105.426366
21
544.834074
0
LINE
8
sleigh cut
10
105.426366
20
544.834074
11
104.126744
21
549.517088
0
LINE
8
sleigh cut
10
104.126744
20
549.517088
11
103.024730
21
554.171410
0
LINE
8
sleigh cut
10
103.024730
20
554.171410
11
102.115798
21
558.792230
0
LINE
8
sleigh cut
10
102.115798
20
558.792230
11
101.395424
21
563.374738
0
LINE
8
sleigh cut
10
101.395424
20
563.374738
11
100.859083
21
567.914123
0
LINE
8
sleigh cut
10
100.859083
20
567.914123
11
100.502248
21
572.405575
0
LINE
8
sleigh cut
10
100.502248
20
572.405575
11
100.320396
21
576.844283
0
LINE
8
sleigh cut
10
100.320396
20
576.844283
11
100.309001
21
581.225437
0
LINE
8
sleigh cut
10
100.309001
20
581.225437
11
100.463537
21
585.544226
0
LINE
8
sleigh cut
10
100.463537
20
585.544226
11
100.779480
21
589.795840
0
LINE
8
sleigh cut
10
100.779480
20
589.795840
11
101.767107
21
599.067809
0
LINE
8
sleigh cut
10
101.767107
20
599.067809
11
103.108413
21
608.181939
0
LINE
8
sleigh cut
10
103.108413
20
608.181939
11
104.791865
21
617.138759
0
LINE
8
sleigh cut
10
104.791865
20
617.138759
11
106.805929
21
625.938801
0
LINE
8
sleigh cut
10
106.805929
20
625.938801
11
109.139074
21
634.582594
0
LINE
8
sleigh cut
10
109.139074
20
634.582594
11
111.779765
21
643.070668
0
LINE
8
sleigh cut
10
111.779765
20
643.070668
11
114.716472
21
651.403555
0
LINE
8
sleigh cut
10
114.716472
20
651.403555
11
117.937660
21
659.581783
0
LINE
8
sleigh cut
10
117.937660
20
659.581783
11
121.431797
21
667.605883
0
LINE
8
sleigh cut
10
121.431797
20
667.605883
11
125.187350
21
675.476386
0
LINE
8
sleigh cut
10
125.187350
20
675.476386
11
129.192786
21
683.193821
0
LINE
8
sleigh cut
10
129.192786
20
683.193821
11
133.436572
21
690.758719
0
LINE
8
sleigh cut
10
133.436572
20
690.758719
11
137.907177
21
698.171611
0
LINE
8
sleigh cut
10
137.907177
20
698.171611
11
142.593066
21
705.433026
0
LINE
8
sleigh cut
10
142.593066
20
705.433026
11
147.482707
21
712.543494
0
LINE
8
sleigh cut
10
147.482707
20
712.543494
11
152.564568
21
719.503546
0
LINE
8
sleigh cut
10
152.564568
20
719.503546
11
157.827114
21
726.313713
0
LINE
8
sleigh cut
10
157.827114
20
726.313713
11
163.258815
21
732.974523
0
LINE
8
sleigh cut
10
163.258815
20
732.974523
11
168.848136
21
739.486508
0
LINE
8
sleigh cut
10
168.848136
20
739.486508
11
174.583545
21
745.850198
0
LINE
8
sleigh cut
10
174.583545
20
745.850198
11
180.453510
21
752.066123
0
LINE
8
sleigh cut
10
180.453510
20
752.066123
11
186.446497
21
758.134813
0
LINE
8
sleigh cut
10
186.446497
20
758.134813
11
192.550973
21
764.056798
0
LINE
8
sleigh cut
10
192.550973
20
764.056798
11
198.755407
21
769.832609
0
LINE
8
sleigh cut
10
198.755407
20
769.832609
11
205.048264
21
775.462776
0
LINE
8
sleigh cut
10
205.048264
20
775.462776
11
211.418012
21
780.947829
0
LINE
8
sleigh cut
10
211.418012
20
780.947829
11
224.342051
21
791.484715
0
LINE
8
sleigh cut
10
224.342051
20
791.484715
11
237.435261
21
801.447508
0
LINE
8
sleigh cut
10
237.435261
20
801.447508
11
250.605380
21
810.840450
0
LINE
8
sleigh cut
10
250.605380
20
810.840450
11
263.753509
21
819.686815
0
LINE
8
sleigh cut
10
263.753509
20
819.686815
11
276.827251
21
828.020482
0
LINE
8
sleigh cut
10
276.827251
20
828.020482
11
289.781422
21
835.846054
0
LINE
8
sleigh cut
10
289.781422
20
835.846054
11
302.570841
21
843.168133
0
LINE
8
sleigh cut
10
302.570841
20
843.168133
11
315.150325
21
849.991322
0
LINE
8
sleigh cut
10
315.150325
20
849.991322
11
327.474691
21
856.320224
0
LINE
8
sleigh cut
10
327.474691
20
856.320224
11
339.498758
21
862.159441
0
LINE
8
sleigh cut
10
339.498758
20
862.159441
11
351.177343
21
867.513576
0
LINE
8
sleigh cut
10
351.177343
20
867.513576
11
362.465263
21
872.387232
0
LINE
8
sleigh cut
10
362.465263
20
872.387232
11
373.317336
21
876.785011
0
LINE
8
sleigh cut
10
373.317336
20
876.785011
11
383.688380
21
880.711516
0
LINE
8
sleigh cut
10
383.688380
20
880.711516
11
393.533213
21
884.171349
0
LINE
8
sleigh cut
10
393.533213
20
884.171349
11
402.806651
21
887.169113
0
LINE
8
sleigh cut
10
402.806651
20
887.169113
11
411.463514
21
889.709412
0
LINE
8
sleigh cut
10
411.463514
20
889.709412
11
419.458617
21
891.796846
0
LINE
8
sleigh cut
10
419.458617
20
891.796846
11
426.746780
21
893.436020
0
LINE
8
sleigh cut
10
426.746780
20
893.436020
11
426.757780
21
893.436020
0
LINE
8
sleigh cut
10
426.757780
20
893.436020
11
427.673980
21
893.621460
0
LINE
8
sleigh cut
10
427.673980
20
893.621460
11
428.593380
21
893.768120
0
LINE
8
sleigh cut
10
428.593380
20
893.768120
11
428.604380
21
893.768120
0
LINE
8
sleigh cut
10
428.604380
20
893.768120
11
437.930003
21
895.138319
0
LINE
8
sleigh cut
10
437.930003
20
895.138319
11
447.133799
21
896.305284
0
LINE
8
sleigh cut
10
447.133799
20
896.305284
11
456.213753
21
897.270379
0
LINE
8
sleigh cut
10
456.213753
20
897.270379
11
465.167850
21
898.034970
0
LINE
8
sleigh cut
10
465.167850
20
898.034970
11
473.994075
21
898.600421
0
LINE
8
sleigh cut
10
473.994075
20
898.600421
11
482.690415
21
898.968100
0
LINE
8
sleigh cut
10
482.690415
20
898.968100
11
491.254855
21
899.139369
0
LINE
8
sleigh cut
10
491.254855
20
899.139369
11
499.685380
21
899.115595
0
LINE
8
sleigh cut
10
499.685380
20
899.115595
11
507.979976
21
898.898143
0
LINE
8
sleigh cut
10
507.979976
20
898.898143
11
516.136628
21
898.488379
0
LINE
8
sleigh cut
10
516.136628
20
898.488379
11
524.153321
21
897.887666
0
LINE
8
sleigh cut
10
524.153321
20
897.887666
11
532.028042
21
897.097372
0
LINE
8
sleigh cut
10
532.028042
20
897.097372
11
539.758775
21
896.118860
0
LINE
8
sleigh cut
10
539.758775
20
896.118860
11
547.343506
21
894.953496
0
LINE
8
sleigh cut
10
547.343506
20
894.953496
11
554.780221
21
893.602645
0
LINE
8
sleigh cut
10
554.780221
20
893.602645
11
562.066905
21
892.067672
0
LINE
8
sleigh cut
10
562.066905
20
892.067672
11
569.201543
21
890.349944
0
LINE
8
sleigh cut
10
569.201543
20
890.349944
11
576.182122
21
888.450824
0
LINE
8
sleigh cut
10
576.182122
20
888.450824
11
583.006625
21
886.371679
0
LINE
8
sleigh cut
10
583.006625
20
886.371679
11
589.673040
21
884.113873
0
LINE
8
sleigh cut
10
589.673040
20
884.113873
11
596.179351
21
881.678771
0
LINE
8
sleigh cut
10
596.179351
20
881.678771
11
602.523544
21
879.067739
0
LINE
8
sleigh cut
10
602.523544
20
879.067739
11
608.703604
21
876.282142
0
LINE
8
sleigh cut
10
608.703604
20
876.282142
11
614.717518
21
873.323346
0
LINE
8
sleigh cut
10
614.717518
20
873.323346
11
620.563269
21
870.192715
0
LINE
8
sleigh cut
10
620.563269
20
870.192715
11
626.238844
21
866.891615
0
LINE
8
sleigh cut
10
626.238844
20
866.891615
11
631.742228
21
863.421410
0
LINE
8
sleigh cut
10
631.742228
20
863.421410
11
637.071407
21
859.783467
0
LINE
8
sleigh cut
10
637.071407
20
859.783467
11
642.224367
21
855.979150
0
LINE
8
sleigh cut
10
642.224367
20
855.979150
11
647.199091
21
852.009825
0
LINE
8
sleigh cut
10
647.199091
20
852.009825
11
651.993567
21
847.876856
0
LINE
8
sleigh cut
10
651.993567
20
847.876856
11
656.605780
21
843.581610
0
LINE
8
sleigh cut
10
656.605780
20
843.581610
11
661.036126
21
839.095263
0
LINE
8
sleigh cut
10
661.036126
20
839.095263
11
665.223233
21
834.454075
0
LINE
8
sleigh cut
10
665.223233
20
834.454075
11
669.166653
21
829.665652
0
LINE
8
sleigh cut
10
669.166653
20
829.665652
11
672.865937
21
824.737601
0
LINE
8
sleigh cut
10
672.865937
20
824.737601
11
676.320638
21
819.677529
0
LINE
8
sleigh cut
10
676.320638
20
819.677529
11
679.530306
21
814.493042
0
LINE
8
sleigh cut
10
679.530306
20
814.493042
11
682.494493
21
809.191747
0
LINE
8
sleigh cut
10
682.494493
20
809.191747
11
685.212750
21
803.781250
0
LINE
8
sleigh cut
10
685.212750
20
803.781250
11
687.684630
21
798.269159
0
LINE
8
sleigh cut
10
687.684630
20
798.269159
11
689.909684
21
792.663080
0
LINE
8
sleigh cut
10
689.909684
20
792.663080
11
691.887463
21
786.970619
0
LINE
8
sleigh cut
10
691.887463
20
786.970619
11
693.617519
21
781.199384
0
LINE
8
sleigh cut
10
693.617519
20
781.199384
11
695.099403
21
775.356980
0
LINE
8
sleigh cut
10
695.099403
20
775.356980
11
696.332668
21
769.451015
0
LINE
8
sleigh cut
10
696.332668
20
769.451015
11
697.316863
21
763.489095
0
LINE
8
sleigh cut
10
697.316863
20
763.489095
11
698.051543
21
757.478827
0
LINE
8
sleigh cut
10
698.051543
20
757.478827
11
698.536256
21
751.427818
0
LINE
8
sleigh cut
10
698.536256
20
751.427818
11
698.770556
21
745.343674
0
LINE
8
sleigh cut
10
698.770556
20
745.343674
11
698.753994
21
739.234002
0
LINE
8
sleigh cut
10
698.753994
20
739.234002
11
698.486121
21
733.106408
0
LINE
8
sleigh cut
10
698.486121
20
733.106408
11
697.966489
21
726.968499
0
LINE
8
sleigh cut
10
697.966489
20
726.968499
11
697.194649
21
720.827882
0
LINE
8
sleigh cut
10
697.194649
20
720.827882
11
696.170153
21
714.692164
0
LINE
8
sleigh cut
10
696.170153
20
714.692164
11
694.892553
21
708.568951
0
LINE
8
sleigh cut
10
694.892553
20
708.568951
11
693.361400
21
702.465850
0
LINE
8
sleigh cut
10
693.361400
20
702.465850
11
691.576246
21
696.390467
0
LINE
8
sleigh cut
10
691.576246
20
696.390467
11
689.536642
21
690.350409
0
LINE
8
sleigh cut
10
689.536642
20
690.350409
11
687.242140
21
684.353283
0
LINE
8
sleigh cut
10
687.242140
20
684.353283
11
684.692291
21
678.406695
0
LINE
8
sleigh cut
10
684.692291
20
678.406695
11
681.886647
21
672.518253
0
LINE
8
sleigh cut
10
681.886647
20
672.518253
11
678.824760
21
666.695562
0
LINE
8
sleigh cut
10
678.824760
20
666.695562
11
675.506180
21
660.946230
0
LINE
8
sleigh cut
10
675.506180
20
660.946230
11
674.785980
21
659.753610
0
LINE
8
sleigh cut
10
674.785980
20
659.753610
11
673.983980
21
658.612350
0
LINE
8
sleigh cut
10
673.983980
20
658.612350
11
670.808886
21
653.879997
0
LINE
8
sleigh cut
10
670.808886
20
653.879997
11
666.662253
21
647.321953
0
LINE
8
sleigh cut
10
666.662253
20
647.321953
11
661.672483
21
639.088415
0
LINE
8
sleigh cut
10
661.672483
20
639.088415
11
655.967974
21
629.329581
0
LINE
8
sleigh cut
10
655.967974
20
629.329581
11
649.677126
21
618.195650
0
LINE
8
sleigh cut
10
649.677126
20
618.195650
11
642.928341
21
605.836817
0
LINE
8
sleigh cut
10
642.928341
20
605.836817
11
635.850017
21
592.403282
0
LINE
8
sleigh cut
10
635.850017
20
592.403282
11
628.570555
21
578.045241
0
LINE
8
sleigh cut
10
628.570555
20
578.045241
11
621.218355
21
562.912893
0
LINE
8
sleigh cut
10
621.218355
20
562.912893
11
613.921816
21
547.156434
0
LINE
8
sleigh cut
10
613.921816
20
547.156434
11
606.809339
21
530.926062
0
LINE
8
sleigh cut
10
606.809339
20
530.926062
11
600.009324
21
514.371975
0
LINE
8
sleigh cut
10
600.009324
20
514.371975
11
593.650170
21
497.644371
0
LINE
8
sleigh cut
10
593.650170
20
497.644371
11
587.860278
21
480.893447
0
LINE
8
sleigh cut
10
587.860278
20
480.893447
11
585.218931
21
472.556177
0
LINE
8
sleigh cut
10
585.218931
20
472.556177
11
582.768048
21
464.269401
0
LINE
8
sleigh cut
10
582.768048
20
464.269401
11
580.523681
21
456.051894
0
LINE
8
sleigh cut
10
580.523681
20
456.051894
11
578.501880
21
447.922430
0
LINE
8
sleigh cut
10
578.501880
20
447.922430
11
576.730140
21
439.916452
0
LINE
8
sleigh cut
10
576.730140
20
439.916452
11
575.218288
21
432.048709
0
LINE
8
sleigh cut
10
575.218288
20
432.048709
11
573.963239
21
424.338084
0
LINE
8
sleigh cut
10
573.963239
20
424.338084
11
572.961907
21
416.803462
0
LINE
8
sleigh cut
10
572.961907
20
416.803462
11
572.211206
21
409.463728
0
LINE
8
sleigh cut
10
572.211206
20
409.463728
11
571.708052
21
402.337766
0
LINE
8
sleigh cut
10
571.708052
20
402.337766
11
571.449360
21
395.444459
0
LINE
8
sleigh cut
10
571.449360
20
395.444459
11
571.432043
21
388.802694
0
LINE
8
sleigh cut
10
571.432043
20
388.802694
11
571.653016
21
382.431353
0
LINE
8
sleigh cut
10
571.653016
20
382.431353
11
572.109193
21
376.349322
0
LINE
8
sleigh cut
10
572.109193
20
376.349322
11
572.797491
21
370.575485
0
LINE
8
sleigh cut
10
572.797491
20
370.575485
11
573.714822
21
365.128726
0
LINE
8
sleigh cut
10
573.714822
20
365.128726
11
574.858102
21
360.027929
0
LINE
8
sleigh cut
10
574.858102
20
360.027929
11
576.224245
21
355.291980
0
LINE
8
sleigh cut
10
576.224245
20
355.291980
11
577.810166
21
350.939762
0
LINE
8
sleigh cut
10
577.810166
20
350.939762
11
579.612780
21
346.990160
0
LINE
8
sleigh cut
10
579.612780
20
346.990160
11
581.695834
21
343.166453
0
LINE
8
sleigh cut
10
581.695834
20
343.166453
11
583.966074
21
339.555648
0
LINE
8
sleigh cut
10
583.966074
20
339.555648
11
586.474654
21
336.153412
0
LINE
8
sleigh cut
10
586.474654
20
336.153412
11
589.272730
21
332.955414
0
LINE
8
sleigh cut
10
589.272730
20
332.955414
11
592.411456
21
329.957322
0
LINE
8
sleigh cut
10
592.411456
20
329.957322
11
595.941986
21
327.154805
0
LINE
8
sleigh cut
10
595.941986
20
327.154805
11
599.915476
21
324.543532
0
LINE
8
sleigh cut
10
599.915476
20
324.543532
11
604.383080
21
322.119170
0
LINE
8
sleigh cut
10
604.383080
20
322.119170
11
609.413974
21
319.890724
0
LINE
8
sleigh cut
10
609.413974
20
319.890724
11
615.071778
21
317.883588
0
LINE
8
sleigh cut
10
615.071778
20
317.883588
11
621.399536
21
316.117931
0
LINE
8
sleigh cut
10
621.399536
20
316.117931
11
628.440293
21
314.613925
0
LINE
8
sleigh cut
10
628.440293
20
314.613925
11
636.237091
21
313.391741
0
LINE
8
sleigh cut
10
636.237091
20
313.391741
11
644.832975
21
312.471550
0
LINE
8
sleigh cut
10
644.832975
20
312.471550
11
654.270990
21
311.873522
0
LINE
8
sleigh cut
10
654.270990
20
311.873522
11
664.594180
21
311.617830
0
LINE
8
sleigh cut
10
664.594180
20
311.617830
11
1049.191400
21
310.707660
0
LINE
8
sleigh cut
10
1049.191400
20
310.707660
11
1040.759200
21
618.534000
0
LINE
8
sleigh cut
10
1040.759200
20
618.534000
11
1040.759200
21
619.286670
0
LINE
8
sleigh cut
10
1040.759200
20
619.286670
11
1040.759200
21
619.323770
0
LINE
8
sleigh cut
10
1040.759200
20
619.323770
11
1041.116991
21
628.453118
0
LINE
8
sleigh cut
10
1041.116991
20
628.453118
11
1042.008729
21
637.637964
0
LINE
8
sleigh cut
10
1042.008729
20
637.637964
11
1043.430890
21
646.856814
0
LINE
8
sleigh cut
10
1043.430890
20
646.856814
11
1045.379951
21
656.088173
0
LINE
8
sleigh cut
10
1045.379951
20
656.088173
11
1047.852389
21
665.310546
0
LINE
8
sleigh cut
10
1047.852389
20
665.310546
11
1050.844681
21
674.502437
0
LINE
8
sleigh cut
10
1050.844681
20
674.502437
11
1054.353304
21
683.642352
0
LINE
8
sleigh cut
10
1054.353304
20
683.642352
11
1058.374736
21
692.708795
0
LINE
8
sleigh cut
10
1058.374736
20
692.708795
11
1062.905452
21
701.680272
0
LINE
8
sleigh cut
10
1062.905452
20
701.680272
11
1067.941931
21
710.535287
0
LINE
8
sleigh cut
10
1067.941931
20
710.535287
11
1073.480648
21
719.252346
0
LINE
8
sleigh cut
10
1073.480648
20
719.252346
11
1079.518081
21
727.809954
0
LINE
8
sleigh cut
10
1079.518081
20
727.809954
11
1086.050708
21
736.186615
0
LINE
8
sleigh cut
10
1086.050708
20
736.186615
11
1093.075003
21
744.360834
0
LINE
8
sleigh cut
10
1093.075003
20
744.360834
11
1100.587446
21
752.311117
0
LINE
8
sleigh cut
10
1100.587446
20
752.311117
11
1108.584513
21
760.015969
0
LINE
8
sleigh cut
10
1108.584513
20
760.015969
11
1117.062680
21
767.453894
0
LINE
8
sleigh cut
10
1117.062680
20
767.453894
11
1126.018424
21
774.603397
0
LINE
8
sleigh cut
10
1126.018424
20
774.603397
11
1135.448224
21
781.442984
0
LINE
8
sleigh cut
10
1135.448224
20
781.442984
11
1145.348554
21
787.951159
0
LINE
8
sleigh cut
10
1145.348554
20
787.951159
11
1155.715894
21
794.106428
0
LINE
8
sleigh cut
10
1155.715894
20
794.106428
11
1166.546719
21
799.887294
0
LINE
8
sleigh cut
10
1166.546719
20
799.887294
11
1177.837506
21
805.272265
0
LINE
8
sleigh cut
10
1177.837506
20
805.272265
11
1189.584733
21
810.239843
0
LINE
8
sleigh cut
10
1189.584733
20
810.239843
11
1201.784876
21
814.768535
0
LINE
8
sleigh cut
10
1201.784876
20
814.768535
11
1214.434412
21
818.836845
0
LINE
8
sleigh cut
10
1214.434412
20
818.836845
11
1227.529819
21
822.423279
0
LINE
8
sleigh cut
10
1227.529819
20
822.423279
11
1234.243623
21
824.029075
0
LINE
8
sleigh cut
10
1234.243623
20
824.029075
11
1241.067573
21
825.506341
0
LINE
8
sleigh cut
10
1241.067573
20
825.506341
11
1248.001229
21
826.852390
0
LINE
8
sleigh cut
10
1248.001229
20
826.852390
11
1255.044151
21
828.064536
0
LINE
8
sleigh cut
10
1255.044151
20
828.064536
11
1262.195898
21
829.140091
0
LINE
8
sleigh cut
10
1262.195898
20
829.140091
11
1269.456030
21
830.076369
0
LINE
8
sleigh cut
10
1269.456030
20
830.076369
11
1276.824107
21
830.870683
0
LINE
8
sleigh cut
10
1276.824107
20
830.870683
11
1284.299688
21
831.520345
0
LINE
8
sleigh cut
10
1284.299688
20
831.520345
11
1291.882332
21
832.022670
0
LINE
8
sleigh cut
10
1291.882332
20
832.022670
11
1299.571600
21
832.374970
0
LINE
8
sleigh cut
10
1299.571600
20
832.374970
11
1300.935400
21
832.422370
0
LINE
8
sleigh cut
10
1300.935400
20
832.422370
11
1302.299600
21
832.381870
0
LINE
8
sleigh cut
10
1302.299600
20
832.381870
11
1331.776054
21
831.543856
0
LINE
8
sleigh cut
10
1331.776054
20
831.543856
11
1358.095761
21
831.050371
0
LINE
8
sleigh cut
10
1358.095761
20
831.050371
11
1381.595016
21
830.973489
0
LINE
8
sleigh cut
10
1381.595016
20
830.973489
11
1402.610113
21
831.385284
0
LINE
8
sleigh cut
10
1402.610113
20
831.385284
11
1412.291193
21
831.796958
0
LINE
8
sleigh cut
10
1412.291193
20
831.796958
11
1421.477345
21
832.357828
0
LINE
8
sleigh cut
10
1421.477345
20
832.357828
11
1430.210604
21
833.076905
0
LINE
8
sleigh cut
10
1430.210604
20
833.076905
11
1438.533008
21
833.963197
0
LINE
8
sleigh cut
10
1438.533008
20
833.963197
11
1446.486592
21
835.025713
0
LINE
8
sleigh cut
10
1446.486592
20
835.025713
11
1454.113395
21
836.273463
0
LINE
8
sleigh cut
10
1454.113395
20
836.273463
11
1461.455452
21
837.715455
0
LINE
8
sleigh cut
10
1461.455452
20
837.715455
11
1468.554800
21
839.360700
0
LINE
8
sleigh cut
10
1468.554800
20
839.360700
11
1475.461005
21
841.218544
0
LINE
8
sleigh cut
10
1475.461005
20
841.218544
11
1482.236483
21
843.302406
0
LINE
8
sleigh cut
10
1482.236483
20
843.302406
11
1488.924102
21
845.623395
0
LINE
8
sleigh cut
10
1488.924102
20
845.623395
11
1495.566728
21
848.192622
0
LINE
8
sleigh cut
10
1495.566728
20
848.192622
11
1502.207227
21
851.021197
0
LINE
8
sleigh cut
10
1502.207227
20
851.021197
11
1508.888465
21
854.120230
0
LINE
8
sleigh cut
10
1508.888465
20
854.120230
11
1515.653309
21
857.500831
0
LINE
8
sleigh cut
10
1515.653309
20
857.500831
11
1522.544625
21
861.174111
0
LINE
8
sleigh cut
10
1522.544625
20
861.174111
11
1529.605279
21
865.151180
0
LINE
8
sleigh cut
10
1529.605279
20
865.151180
11
1536.878138
21
869.443147
0
LINE
8
sleigh cut
10
1536.878138
20
869.443147
11
1552.231934
21
879.016217
0
LINE
8
sleigh cut
10
1552.231934
20
879.016217
11
1568.948945
21
889.982205
0
LINE
8
sleigh cut
10
1568.948945
20
889.982205
11
1587.372100
21
902.429990
0
LINE
8
sleigh cut
10
1587.372100
20
902.429990
11
1593.544652
21
907.019301
0
LINE
8
sleigh cut
10
1593.544652
20
907.019301
11
1599.483389
21
911.619856
0
LINE
8
sleigh cut
10
1599.483389
20
911.619856
11
1610.713794
21
920.850128
0
LINE
8
sleigh cut
10
1610.713794
20
920.850128
11
1621.172065
21
930.111668
0
LINE
8
sleigh cut
10
1621.172065
20
930.111668
11
1630.966953
21
939.395337
0
LINE
8
sleigh cut
10
1630.966953
20
939.395337
11
1640.207208
21
948.691996
0
LINE
8
sleigh cut
10
1640.207208
20
948.691996
11
1649.001579
21
957.992507
0
LINE
8
sleigh cut
10
1649.001579
20
957.992507
11
1657.458818
21
967.287731
0
LINE
8
sleigh cut
10
1657.458818
20
967.287731
11
1665.687675
21
976.568529
0
LINE
8
sleigh cut
10
1665.687675
20
976.568529
11
1681.895243
21
995.050292
0
LINE
8
sleigh cut
10
1681.895243
20
995.050292
11
1690.091454
21
1004.232979
0
LINE
8
sleigh cut
10
1690.091454
20
1004.232979
11
1698.494284
21
1013.364686
0
LINE
8
sleigh cut
10
1698.494284
20
1013.364686
11
1707.212484
21
1022.436273
0
LINE
8
sleigh cut
10
1707.212484
20
1022.436273
11
1716.354803
21
1031.438602
0
LINE
8
sleigh cut
10
1716.354803
20
1031.438602
11
1726.029991
21
1040.362534
0
LINE
8
sleigh cut
10
1726.029991
20
1040.362534
11
1736.346800
21
1049.198930
0
LINE
8
sleigh cut
10
1736.346800
20
1049.198930
11
1741.800857
21
1053.573206
0
LINE
8
sleigh cut
10
1741.800857
20
1053.573206
11
1747.421616
21
1057.843888
0
LINE
8
sleigh cut
10
1747.421616
20
1057.843888
11
1753.218937
21
1062.008656
0
LINE
8
sleigh cut
10
1753.218937
20
1062.008656
11
1759.202682
21
1066.065190
0
LINE
8
sleigh cut
10
1759.202682
20
1066.065190
11
1765.382714
21
1070.011170
0
LINE
8
sleigh cut
10
1765.382714
20
1070.011170
11
1771.768893
21
1073.844276
0
LINE
8
sleigh cut
10
1771.768893
20
1073.844276
11
1778.371082
21
1077.562190
0
LINE
8
sleigh cut
10
1778.371082
20
1077.562190
11
1785.199141
21
1081.162590
0
LINE
8
sleigh cut
10
1785.199141
20
1081.162590
11
1792.262932
21
1084.643157
0
LINE
8
sleigh cut
10
1792.262932
20
1084.643157
11
1799.572317
21
1088.001572
0
LINE
8
sleigh cut
10
1799.572317
20
1088.001572
11
1807.137158
21
1091.235514
0
LINE
8
sleigh cut
10
1807.137158
20
1091.235514
11
1814.967316
21
1094.342664
0
LINE
8
sleigh cut
10
1814.967316
20
1094.342664
11
1823.072653
21
1097.320701
0
LINE
8
sleigh cut
10
1823.072653
20
1097.320701
11
1831.463029
21
1100.167307
0
LINE
8
sleigh cut
10
1831.463029
20
1100.167307
11
1840.148308
21
1102.880161
0
LINE
8
sleigh cut
10
1840.148308
20
1102.880161
11
1849.138350
21
1105.456943
0
LINE
8
sleigh cut
10
1849.138350
20
1105.456943
11
1858.443017
21
1107.895334
0
LINE
8
sleigh cut
10
1858.443017
20
1107.895334
11
1868.072171
21
1110.193013
0
LINE
8
sleigh cut
10
1868.072171
20
1110.193013
11
1878.035672
21
1112.347662
0
LINE
8
sleigh cut
10
1878.035672
20
1112.347662
11
1888.343384
21
1114.356960
0
LINE
8
sleigh cut
10
1888.343384
20
1114.356960
11
1899.005167
21
1116.218587
0
LINE
8
sleigh cut
10
1899.005167
20
1116.218587
11
1910.030883
21
1117.930224
0
LINE
8
sleigh cut
10
1910.030883
20
1117.930224
11
1921.430393
21
1119.489551
0
LINE
8
sleigh cut
10
1921.430393
20
1119.489551
11
1933.213559
21
1120.894247
0
LINE
8
sleigh cut
10
1933.213559
20
1120.894247
11
1945.390243
21
1122.141994
0
LINE
8
sleigh cut
10
1945.390243
20
1122.141994
11
1957.970307
21
1123.230471
0
LINE
8
sleigh cut
10
1957.970307
20
1123.230471
11
1970.963611
21
1124.157359
0
LINE
8
sleigh cut
10
1970.963611
20
1124.157359
11
1984.380018
21
1124.920338
0
LINE
8
sleigh cut
10
1984.380018
20
1124.920338
11
1998.229388
21
1125.517087
0
LINE
8
sleigh cut
10
1998.229388
20
1125.517087
11
2012.521584
21
1125.945288
0
LINE
8
sleigh cut
10
2012.521584
20
1125.945288
11
2027.266468
21
1126.202620
0
LINE
8
sleigh cut
10
2027.266468
20
1126.202620
11
2042.473900
21
1126.286763
0
LINE
8
sleigh cut
10
2042.473900
20
1126.286763
11
2058.027101
21
1125.911091
0
LINE
8
sleigh cut
10
2058.027101
20
1125.911091
11
2073.562328
21
1125.033975
0
LINE
8
sleigh cut
10
2073.562328
20
1125.033975
11
2089.049022
21
1123.647687
0
LINE
8
sleigh cut
10
2089.049022
20
1123.647687
11
2104.456620
21
1121.744499
0
LINE
8
sleigh cut
10
2104.456620
20
1121.744499
11
2119.754562
21
1119.316682
0
LINE
8
sleigh cut
10
2119.754562
20
1119.316682
11
2134.912287
21
1116.356507
0
LINE
8
sleigh cut
10
2134.912287
20
1116.356507
11
2149.899232
21
1112.856248
0
LINE
8
sleigh cut
10
2149.899232
20
1112.856248
11
2164.684838
21
1108.808174
0
LINE
8
sleigh cut
10
2164.684838
20
1108.808174
11
2171.992587
21
1106.576292
0
LINE
8
sleigh cut
10
2171.992587
20
1106.576292
11
2179.238542
21
1104.204558
0
LINE
8
sleigh cut
10
2179.238542
20
1104.204558
11
2186.418881
21
1101.692007
0
LINE
8
sleigh cut
10
2186.418881
20
1101.692007
11
2193.529784
21
1099.037672
0
LINE
8
sleigh cut
10
2193.529784
20
1099.037672
11
2200.567431
21
1096.240588
0
LINE
8
sleigh cut
10
2200.567431
20
1096.240588
11
2207.528002
21
1093.299787
0
LINE
8
sleigh cut
10
2207.528002
20
1093.299787
11
2214.407677
21
1090.214305
0
LINE
8
sleigh cut
10
2214.407677
20
1090.214305
11
2221.202636
21
1086.983175
0
LINE
8
sleigh cut
10
2221.202636
20
1086.983175
11
2227.909058
21
1083.605432
0
LINE
8
sleigh cut
10
2227.909058
20
1083.605432
11
2234.523124
21
1080.080108
0
LINE
8
sleigh cut
10
2234.523124
20
1080.080108
11
2241.041013
21
1076.406238
0
LINE
8
sleigh cut
10
2241.041013
20
1076.406238
11
2247.458904
21
1072.582857
0
LINE
8
sleigh cut
10
2247.458904
20
1072.582857
11
2253.772979
21
1068.608997
0
LINE
8
sleigh cut
10
2253.772979
20
1068.608997
11
2259.979417
21
1064.483694
0
LINE
8
sleigh cut
10
2259.979417
20
1064.483694
11
2266.074397
21
1060.205980
0
LINE
8
sleigh cut
10
2266.074397
20
1060.205980
11
2272.054100
21
1055.774890
0
LINE
8
sleigh cut
10
2272.054100
20
1055.774890
11
2272.057400
21
1055.774890
0
LINE
8
fiducials
10
2413.978300
20
1177.291915
11
26.878700
21
1177.291915
0
LINE
8
fiducials
10
26.878700
20
1177.291915
11
26.878700
21
34.792415
0
LINE
8
fiducials
10
26.878700
20
34.792415
11
2413.978300
21
34.792415
0
LINE
8
fiducials
10
2413.978300
20
34.792415
11
2413.978300
21
1177.291915
 0 
ENDSEC
 0 
EOF