  0
SECTION
  2
HEADER
  9
$ACADVER
  1
AC1014
  9
$HANDSEED
  5
FFFF
  9
$INSUNITS
 70
     4
  9
$MEASUREMENT
 70
     1
  0
ENDSEC
  0
SECTION
  2
TABLES
  0
TABLE
  2
VPORT
  5
8
330
0
100
AcDbSymbolTable
 70
     4
  0
VPORT
  5
2E
330
8
100
AcDbSymbolTableRecord
100
AcDbViewportTableRecord
  2
*ACTIVE
 70
     0
 10
0.0
 20
0.0
 11
1.0
 21
1.0
 12
210.0
 22
148.5
 13
0.0
 23
0.0
 14
10.0
 24
10.0
 15
10.0
 25
10.0
 16
0.0
 26
0.0
 36
1.0
 17
0.0
 27
0.0
 37
0.0
 40
341.0
 41
1.24
 42
50.0
 43
0.0
 44
0.0
 50
0.0
 51
0.0
 71
     0
 72
   100
 73
     1
 74
     3
 75
     0
 76
     0
 77
     0
 78
     0
  0
ENDTAB
  0
TABLE
  2
LTYPE
  5
5
330
0
100
AcDbSymbolTable
 70
     1
  0
LTYPE
  5
14
330
5
100
AcDbSymbolTableRecord
100
AcDbLinetypeTableRecord
  2
BYBLOCK
 70
     0
  3

 72
    65
 73
     0
 40
0.0
  0
LTYPE
  5
15
330
5
100
AcDbSymbolTableRecord
100
AcDbLinetypeTableRecord
  2
BYLAYER
 70
     0
  3

 72
    65
 73
     0
 40
0.0
  0
LTYPE
  5
16
330
5
100
AcDbSymbolTableRecord
100
AcDbLinetypeTableRecord
  2
CONTINUOUS
 70
     0
  3
Solid line
 72
    65
 73
     0
 40
0.0
  0
ENDTAB
  0
TABLE
  2
LAYER
  5
2
100
AcDbSymbolTable
 70
3
  0
LAYER
  5
50
100
AcDbSymbolTableRecord
100
AcDbLayerTableRecord
  2
0
 70
0
  6
CONTINUOUS
  0
LAYER
  5
51
100
AcDbSymbolTableRecord
100
AcDbLayerTableRecord
  2
sleigh_cut
 70
0
  6
CONTINUOUS
  0
LAYER
  5
52
100
AcDbSymbolTableRecord
100
AcDbLayerTableRecord
  2
fiducials
 70
0
  6
CONTINUOUS
  0
ENDTAB
  0
TABLE
  2
STYLE
  5
3
330
0
100
AcDbSymbolTable
 70
     1
  0
STYLE
  5
11
330
3
100
AcDbSymbolTableRecord
100
AcDbTextStyleTableRecord
  2
STANDARD
 70
     0
 40
0.0
 41
1.0
 50
0.0
 71
     0
 42
2.5
  3
txt
  4

  0
ENDTAB
  0
TABLE
  2
VIEW
  5
6
330
0
100
AcDbSymbolTable
 70
     0
  0
ENDTAB
  0
TABLE
  2
UCS
  5
7
330
0
100
AcDbSymbolTable
 70
     0
  0
ENDTAB
  0
TABLE
  2
APPID
  5
9
330
0
100
AcDbSymbolTable
 70
     2
  0
APPID
  5
12
330
9
100
AcDbSymbolTableRecord
100
AcDbRegAppTableRecord
  2
ACAD
 70
     0
  0
ENDTAB
  0
TABLE
  2
DIMSTYLE
  5
A
330
0
100
AcDbSymbolTable
 70
     1
  0
DIMSTYLE
105
27
330
A
100
AcDbSymbolTableRecord
100
AcDbDimStyleTableRecord
  2
ISO-25
 70
     0
  3

  4

  5

  6

  7

 40
1.0
 41
2.5
 42
0.625
 43
3.75
 44
1.25
 45
0.0
 46
0.0
 47
0.0
 48
0.0
140
2.5
141
2.5
142
0.0
143
0.03937007874016
144
1.0
145
0.0
146
1.0
147
0.625
 71
     0
 72
     0
 73
     0
 74
     0
 75
     0
 76
     0
 77
     1
 78
     8
170
     0
171
     3
172
     1
173
     0
174
     0
175
     0
176
     0
177
     0
178
     0
270
     2
271
     2
272
     2
273
     2
274
     3
340
11
275
     0
280
     0
281
     0
282
     0
283
     0
284
     8
285
     0
286
     0
287
     3
288
     0
  0
ENDTAB
  0
TABLE
  2
BLOCK_RECORD
  5
1
330
0
100
AcDbSymbolTable
 70
     1
  0
BLOCK_RECORD
  5
1F
330
1
100
AcDbSymbolTableRecord
100
AcDbBlockTableRecord
  2
*MODEL_SPACE
  0
BLOCK_RECORD
  5
1B
330
1
100
AcDbSymbolTableRecord
100
AcDbBlockTableRecord
  2
*PAPER_SPACE
  0
ENDTAB
  0
ENDSEC
  0
SECTION
  2
BLOCKS
  0
BLOCK
  5
20
330
1F
100
AcDbEntity
  8
0
100
AcDbBlockBegin
  2
*MODEL_SPACE
 70
     0
 10
0.0
 20
0.0
 30
0.0
  3
*MODEL_SPACE
  1

  0
ENDBLK
  5
21
330
1F
100
AcDbEntity
  8
0
100
AcDbBlockEnd
  0
BLOCK
  5
1C
330
1B
100
AcDbEntity
 67
     1
  8
0
100
AcDbBlockBegin
  2
*PAPER_SPACE
  1

  0
ENDBLK
  5
1D
330
1B
100
AcDbEntity
 67
     1
  8
0
100
AcDbBlockEnd
  0
ENDSEC
  0
SECTION
  2
ENTITIES
  0
SPLINE
  5
100
100
AcDbEntity
  8
sleigh_cut
 62
6
100
AcDbSpline
 70
8
 71
3
 72
8
 73
4
 74
0
 40
0
 40
0
 40
0
 40
0
 40
1
 40
1
 40
1
 40
1
 10
6.645651
 20
41.565941
 30
0.0
 10
5.319623
 20
40.557076
 30
0.0
 10
4.215694
 20
39.174152
 30
0.0
 10
3.756080
 20
37.426409
 30
0.0
  0
SPLINE
  5
101
100
AcDbEntity
  8
sleigh_cut
 62
6
100
AcDbSpline
 70
8
 71
3
 72
8
 73
4
 74
0
 40
0
 40
0
 40
0
 40
0
 40
1
 40
1
 40
1
 40
1
 10
3.756080
 20
37.426409
 30
0.0
 10
3.304084
 20
35.707621
 30
0.0
 10
3.512151
 20
33.729706
 30
0.0
 10
4.438458
 20
31.620587
 30
0.0
  0
SPLINE
  5
102
100
AcDbEntity
  8
sleigh_cut
 62
6
100
AcDbSpline
 70
8
 71
3
 72
8
 73
4
 74
0
 40
0
 40
0
 40
0
 40
0
 40
1
 40
1
 40
1
 40
1
 10
4.438458
 20
31.620587
 30
0.0
 10
4.438458
 20
31.620351
 30
0.0
 10
4.438458
 20
31.620009
 30
0.0
 10
4.438852
 20
31.619733
 30
0.0
  0
SPLINE
  5
103
100
AcDbEntity
  8
sleigh_cut
 62
6
100
AcDbSpline
 70
8
 71
3
 72
8
 73
4
 74
0
 40
0
 40
0
 40
0
 40
0
 40
1
 40
1
 40
1
 40
1
 10
4.438852
 20
31.619733
 30
0.0
 10
5.477867
 20
28.671134
 30
0.0
 10
6.573422
 20
24.743557
 30
0.0
 10
4.658879
 20
21.225781
 30
0.0
  0
SPLINE
  5
104
100
AcDbEntity
  8
sleigh_cut
 62
6
100
AcDbSpline
 70
8
 71
3
 72
8
 73
4
 74
0
 40
0
 40
0
 40
0
 40
0
 40
1
 40
1
 40
1
 40
1
 10
4.667214
 20
21.240048
 30
0.0
 10
3.514119
 20
19.384952
 30
0.0
 10
3.272301
 20
16.713731
 30
0.0
 10
4.285218
 20
14.173556
 30
0.0
  0
SPLINE
  5
105
100
AcDbEntity
  8
sleigh_cut
 62
6
100
AcDbSpline
 70
8
 71
3
 72
8
 73
4
 74
0
 40
0
 40
0
 40
0
 40
0
 40
1
 40
1
 40
1
 40
1
 10
4.285218
 20
14.173556
 30
0.0
 10
4.425344
 20
13.822147
 30
0.0
 10
4.600210
 20
13.478434
 30
0.0
 10
4.798552
 20
13.142374
 30
0.0
  0
SPLINE
  5
106
100
AcDbEntity
  8
sleigh_cut
 62
6
100
AcDbSpline
 70
8
 71
3
 72
8
 73
4
 74
0
 40
0
 40
0
 40
0
 40
0
 40
1
 40
1
 40
1
 40
1
 10
4.798552
 20
13.142374
 30
0.0
 10
4.714100
 20
12.207357
 30
0.0
 10
4.377808
 20
11.328157
 30
0.0
 10
3.955422
 20
10.502866
 30
0.0
  0
SPLINE
  5
107
100
AcDbEntity
  8
sleigh_cut
 62
6
100
AcDbSpline
 70
8
 71
3
 72
8
 73
4
 74
0
 40
0
 40
0
 40
0
 40
0
 40
1
 40
1
 40
1
 40
1
 10
3.955422
 20
10.502866
 30
0.0
 10
3.250163
 20
10.084496
 30
0.0
 10
2.690257
 20
9.463299
 30
0.0
 10
2.426848
 20
8.681200
 30
0.0
  0
SPLINE
  5
108
100
AcDbEntity
  8
sleigh_cut
 62
6
100
AcDbSpline
 70
8
 71
3
 72
8
 73
4
 74
0
 40
0
 40
0
 40
0
 40
0
 40
1
 40
1
 40
1
 40
1
 10
2.426848
 20
8.681200
 30
0.0
 10
1.960864
 20
7.297610
 30
0.0
 10
2.459986
 20
6.009157
 30
0.0
 10
3.357273
 20
5.189181
 30
0.0
  0
SPLINE
  5
109
100
AcDbEntity
  8
sleigh_cut
 62
6
100
AcDbSpline
 70
8
 71
3
 72
8
 73
4
 74
0
 40
0
 40
0
 40
0
 40
0
 40
1
 40
1
 40
1
 40
1
 10
3.357273
 20
5.189181
 30
0.0
 10
4.189100
 20
4.429024
 30
0.0
 10
5.341871
 20
3.987646
 30
0.0
 10
6.581454
 20
3.941496
 30
0.0
  0
LWPOLYLINE
  5
10a
100
AcDbEntity
  8
sleigh_cut
 62
6
100
AcDbPolyline
 90
2
 70
0
 10
4.658879
 20
21.225781
 30
0.0
 10
4.667214
 20
21.240048
 30
0.0
  0
SPLINE
  5
10b
100
AcDbEntity
  8
sleigh_cut
 62
6
100
AcDbSpline
 70
8
 71
3
 72
8
 73
4
 74
0
 40
0
 40
0
 40
0
 40
0
 40
1
 40
1
 40
1
 40
1
 10
84.650327
 20
3.942020
 30
0.0
 10
86.357831
 20
4.036626
 30
0.0
 10
88.075091
 20
4.553051
 30
0.0
 10
89.579669
 20
5.473382
 30
0.0
  0
SPLINE
  5
10c
100
AcDbEntity
  8
sleigh_cut
 62
6
100
AcDbSpline
 70
8
 71
3
 72
8
 73
4
 74
0
 40
0
 40
0
 40
0
 40
0
 40
1
 40
1
 40
1
 40
1
 10
89.579669
 20
5.473382
 30
0.0
 10
91.495937
 20
6.645535
 30
0.0
 10
92.914756
 20
8.431047
 30
0.0
 10
93.552437
 20
10.356826
 30
0.0
  0
SPLINE
  5
10d
100
AcDbEntity
  8
sleigh_cut
 62
6
100
AcDbSpline
 70
8
 71
3
 72
8
 73
4
 74
0
 40
0
 40
0
 40
0
 40
0
 40
1
 40
1
 40
1
 40
1
 10
93.552437
 20
10.356826
 30
0.0
 10
94.190130
 20
12.282600
 30
0.0
 10
94.041094
 20
14.357680
 30
0.0
 10
92.809795
 20
16.067615
 30
0.0
  0
SPLINE
  5
10e
100
AcDbEntity
  8
sleigh_cut
 62
6
100
AcDbSpline
 70
8
 71
3
 72
8
 73
4
 74
0
 40
0
 40
0
 40
0
 40
0
 40
1
 40
1
 40
1
 40
1
 10
92.809795
 20
16.067615
 30
0.0
 10
92.003181
 20
17.187791
 30
0.0
 10
90.759630
 20
17.985409
 30
0.0
 10
89.357815
 20
18.346930
 30
0.0
  0
SPLINE
  5
10f
100
AcDbEntity
  8
sleigh_cut
 62
6
100
AcDbSpline
 70
8
 71
3
 72
8
 73
4
 74
0
 40
0
 40
0
 40
0
 40
0
 40
1
 40
1
 40
1
 40
1
 10
89.357815
 20
18.346930
 30
0.0
 10
90.321413
 20
18.825706
 30
0.0
 10
91.030925
 20
19.563850
 30
0.0
 10
91.465736
 20
20.330821
 30
0.0
  0
SPLINE
  5
110
100
AcDbEntity
  8
sleigh_cut
 62
6
100
AcDbSpline
 70
8
 71
3
 72
8
 73
4
 74
0
 40
0
 40
0
 40
0
 40
0
 40
1
 40
1
 40
1
 40
1
 10
91.465736
 20
20.330821
 30
0.0
 10
92.031445
 20
21.328712
 30
0.0
 10
92.212004
 20
22.334970
 30
0.0
 10
92.129035
 20
23.220309
 30
0.0
  0
SPLINE
  5
111
100
AcDbEntity
  8
sleigh_cut
 62
6
100
AcDbSpline
 70
8
 71
3
 72
8
 73
4
 74
0
 40
0
 40
0
 40
0
 40
0
 40
1
 40
1
 40
1
 40
1
 10
92.129035
 20
23.220309
 30
0.0
 10
91.790161
 20
27.147265
 30
0.0
 10
88.997374
 20
30.010111
 30
0.0
 10
86.230378
 20
31.922852
 30
0.0
  0
SPLINE
  5
112
100
AcDbEntity
  8
sleigh_cut
 62
6
100
AcDbSpline
 70
8
 71
3
 72
8
 73
4
 74
0
 40
0
 40
0
 40
0
 40
0
 40
1
 40
1
 40
1
 40
1
 10
86.230378
 20
31.922852
 30
0.0
 10
83.464969
 20
33.834506
 30
0.0
 10
80.748618
 20
34.877202
 30
0.0
 10
79.295677
 20
35.174646
 30
0.0
  0
LWPOLYLINE
  5
113
100
AcDbEntity
  8
sleigh_cut
 62
6
100
AcDbPolyline
 90
4
 70
0
 10
6.581454
 20
3.941496
 30
0.0
 10
6.577635
 20
3.926980
 30
0.0
 10
84.650327
 20
3.927846
 30
0.0
 10
84.650327
 20
3.942020
 30
0.0
  0
SPLINE
  5
114
100
AcDbEntity
  8
sleigh_cut
 62
6
100
AcDbSpline
 70
8
 71
3
 72
8
 73
4
 74
0
 40
0
 40
0
 40
0
 40
0
 40
1
 40
1
 40
1
 40
1
 10
79.222543
 20
35.187721
 30
0.0
 10
75.280972
 20
35.805998
 30
0.0
 10
72.144445
 20
35.049535
 30
0.0
 10
70.246110
 20
33.211874
 30
0.0
  0
SPLINE
  5
115
100
AcDbEntity
  8
sleigh_cut
 62
6
100
AcDbSpline
 70
8
 71
3
 72
8
 73
4
 74
0
 40
0
 40
0
 40
0
 40
0
 40
1
 40
1
 40
1
 40
1
 10
70.246110
 20
33.211874
 30
0.0
 10
68.334587
 20
31.361422
 30
0.0
 10
68.054409
 20
28.419455
 30
0.0
 10
69.502000
 20
26.021505
 30
0.0
  0
LWPOLYLINE
  5
116
100
AcDbEntity
  8
sleigh_cut
 62
6
100
AcDbPolyline
 90
5
 70
0
 10
79.295677
 20
35.174646
 30
0.0
 10
79.295244
 20
35.174646
 30
0.0
 10
79.259173
 20
35.181947
 30
0.0
 10
79.222976
 20
35.187721
 30
0.0
 10
79.222543
 20
35.187721
 30
0.0
  0
SPLINE
  5
117
100
AcDbEntity
  8
sleigh_cut
 62
6
100
AcDbSpline
 70
8
 71
3
 72
8
 73
4
 74
0
 40
0
 40
0
 40
0
 40
0
 40
1
 40
1
 40
1
 40
1
 10
69.561929
 20
25.929620
 30
0.0
 10
70.117630
 20
25.138136
 30
0.0
 10
72.520996
 20
21.027574
 30
0.0
 10
73.321067
 20
17.634741
 30
0.0
  0
SPLINE
  5
118
100
AcDbEntity
  8
sleigh_cut
 62
6
100
AcDbSpline
 70
8
 71
3
 72
8
 73
4
 74
0
 40
0
 40
0
 40
0
 40
0
 40
1
 40
1
 40
1
 40
1
 10
73.321067
 20
17.634741
 30
0.0
 10
73.720587
 20
15.940505
 30
0.0
 10
73.678366
 20
14.446752
 30
0.0
 10
73.277331
 20
13.661030
 30
0.0
  0
SPLINE
  5
119
100
AcDbEntity
  8
sleigh_cut
 62
6
100
AcDbSpline
 70
8
 71
3
 72
8
 73
4
 74
0
 40
0
 40
0
 40
0
 40
0
 40
1
 40
1
 40
1
 40
1
 10
73.277331
 20
13.661030
 30
0.0
 10
73.066673
 20
13.248263
 30
0.0
 10
72.798890
 20
12.926723
 30
0.0
 10
72.302122
 20
12.681857
 30
0.0
  0
SPLINE
  5
11a
100
AcDbEntity
  8
sleigh_cut
 62
6
100
AcDbSpline
 70
8
 71
3
 72
8
 73
4
 74
0
 40
0
 40
0
 40
0
 40
0
 40
1
 40
1
 40
1
 40
1
 10
72.302122
 20
12.681857
 30
0.0
 10
71.805346
 20
12.436988
 30
0.0
 10
71.063378
 20
12.276587
 30
0.0
 10
69.931606
 20
12.268419
 30
0.0
  0
LWPOLYLINE
  5
11b
100
AcDbEntity
  8
sleigh_cut
 62
6
100
AcDbPolyline
 90
3
 70
0
 10
69.502000
 20
26.021505
 30
0.0
 10
69.530354
 20
25.974552
 30
0.0
 10
69.561929
 20
25.929620
 30
0.0
  0
SPLINE
  5
11c
100
AcDbEntity
  8
sleigh_cut
 62
6
100
AcDbSpline
 70
8
 71
3
 72
8
 73
4
 74
0
 40
0
 40
0
 40
0
 40
0
 40
1
 40
1
 40
1
 40
1
 10
55.121957
 20
24.382826
 30
0.0
 10
55.084311
 20
28.202010
 30
0.0
 10
51.435323
 20
32.538528
 30
0.0
 10
44.932492
 20
32.770668
 30
0.0
  0
LWPOLYLINE
  5
11d
100
AcDbEntity
  8
sleigh_cut
 62
6
100
AcDbPolyline
 90
5
 70
0
 10
69.931606
 20
12.268419
 30
0.0
 10
54.789980
 20
12.232585
 30
0.0
 10
55.121957
 20
24.351732
 30
0.0
 10
55.121957
 20
24.381365
 30
0.0
 10
55.121957
 20
24.382826
 30
0.0
  0
SPLINE
  5
11e
100
AcDbEntity
  8
sleigh_cut
 62
6
100
AcDbSpline
 70
8
 71
3
 72
8
 73
4
 74
0
 40
0
 40
0
 40
0
 40
0
 40
1
 40
1
 40
1
 40
1
 10
44.825091
 20
32.770940
 30
0.0
 10
41.552972
 20
32.667396
 30
0.0
 10
39.747748
 20
32.678269
 30
0.0
 10
38.279611
 20
33.045697
 30
0.0
  0
SPLINE
  5
11f
100
AcDbEntity
  8
sleigh_cut
 62
6
100
AcDbSpline
 70
8
 71
3
 72
8
 73
4
 74
0
 40
0
 40
0
 40
0
 40
0
 40
1
 40
1
 40
1
 40
1
 10
38.279611
 20
33.045697
 30
0.0
 10
36.812765
 20
33.412844
 30
0.0
 10
35.637517
 20
34.140991
 30
0.0
 10
33.601765
 20
35.528740
 30
0.0
  0
SPLINE
  5
120
100
AcDbEntity
  8
sleigh_cut
 62
6
100
AcDbSpline
 70
8
 71
3
 72
8
 73
4
 74
0
 40
0
 40
0
 40
0
 40
0
 40
1
 40
1
 40
1
 40
1
 10
33.601765
 20
35.528740
 30
0.0
 10
30.958619
 20
37.453489
 30
0.0
 10
29.977852
 20
39.461463
 30
0.0
 10
27.736619
 20
41.307044
 30
0.0
  0
SPLINE
  5
121
100
AcDbEntity
  8
sleigh_cut
 62
6
100
AcDbSpline
 70
8
 71
3
 72
8
 73
4
 74
0
 40
0
 40
0
 40
0
 40
0
 40
1
 40
1
 40
1
 40
1
 10
27.736619
 20
41.307044
 30
0.0
 10
25.479824
 20
43.165438
 30
0.0
 10
22.169198
 20
44.343352
 30
0.0
 10
15.684371
 20
44.341999
 30
0.0
  0
SPLINE
  5
122
100
AcDbEntity
  8
sleigh_cut
 62
6
100
AcDbSpline
 70
8
 71
3
 72
8
 73
4
 74
0
 40
0
 40
0
 40
0
 40
0
 40
1
 40
1
 40
1
 40
1
 10
15.684371
 20
44.341999
 30
0.0
 10
12.418859
 20
44.315221
 30
0.0
 10
9.132202
 20
43.459106
 30
0.0
 10
6.645781
 20
41.565941
 30
0.0
  0
LWPOLYLINE
  5
123
100
AcDbEntity
  8
sleigh_cut
 62
6
100
AcDbPolyline
 90
3
 70
0
 10
44.932492
 20
32.770668
 30
0.0
 10
44.878799
 20
32.772534
 30
0.0
 10
44.825091
 20
32.770940
 30
0.0
  0
LWPOLYLINE
  5
124
100
AcDbEntity
  8
sleigh_cut
 62
6
100
AcDbPolyline
 90
2
 70
0
 10
6.645781
 20
41.565941
 30
0.0
 10
6.645651
 20
41.565941
 30
0.0
  0
LWPOLYLINE
  5
125
100
AcDbEntity
  8
fiducials
 62
7
100
AcDbPolyline
 90
4
 70
1
 10
1.058215
 20
46.350075
 30
0.0
 10
95.038514
 20
46.350075
 30
0.0
 10
95.038514
 20
1.369780
 30
0.0
 10
1.058215
 20
1.369780
 30
0.0
  0
ENDSEC
  0
SECTION
  2
OBJECTS
  0
DICTIONARY
  5
C
330
0
100
AcDbDictionary
  3
ACAD_GROUP
350
D
  3
ACAD_MLINESTYLE
350
17
  0
DICTIONARY
  5
D
330
C
100
AcDbDictionary
  0
DICTIONARY
  5
1A
330
C
100
AcDbDictionary
  0
DICTIONARY
  5
17
330
C
100
AcDbDictionary
  3
STANDARD
350
18
  0
DICTIONARY
  5
19
330
C
100
AcDbDictionary
  0
ENDSEC
  0
EOF
