  0
SECTION
  2
HEADER
  9
$ACADVER
  1
AC1014
  9
$HANDSEED
  5
FFFF
  9
$INSUNITS
 70
     1
  9
$MEASUREMENT
 70
     1
  0
ENDSEC
  0
SECTION
  2
TABLES
  0
TABLE
  2
VPORT
  5
8
330
0
100
AcDbSymbolTable
 70
     4
  0
VPORT
  5
2E
330
8
100
AcDbSymbolTableRecord
100
AcDbViewportTableRecord
  2
*ACTIVE
 70
     0
 10
0.0
 20
0.0
 11
1.0
 21
1.0
 12
210.0
 22
148.5
 13
0.0
 23
0.0
 14
10.0
 24
10.0
 15
10.0
 25
10.0
 16
0.0
 26
0.0
 36
1.0
 17
0.0
 27
0.0
 37
0.0
 40
341.0
 41
1.24
 42
50.0
 43
0.0
 44
0.0
 50
0.0
 51
0.0
 71
     0
 72
   100
 73
     1
 74
     3
 75
     0
 76
     0
 77
     0
 78
     0
  0
ENDTAB
  0
TABLE
  2
LTYPE
  5
5
330
0
100
AcDbSymbolTable
 70
     1
  0
LTYPE
  5
14
330
5
100
AcDbSymbolTableRecord
100
AcDbLinetypeTableRecord
  2
BYBLOCK
 70
     0
  3

 72
    65
 73
     0
 40
0.0
  0
LTYPE
  5
15
330
5
100
AcDbSymbolTableRecord
100
AcDbLinetypeTableRecord
  2
BYLAYER
 70
     0
  3

 72
    65
 73
     0
 40
0.0
  0
LTYPE
  5
16
330
5
100
AcDbSymbolTableRecord
100
AcDbLinetypeTableRecord
  2
CONTINUOUS
 70
     0
  3
Solid line
 72
    65
 73
     0
 40
0.0
  0
ENDTAB
  0
TABLE
  2
LAYER
  5
2
100
AcDbSymbolTable
 70
3
  0
LAYER
  5
50
100
AcDbSymbolTableRecord
100
AcDbLayerTableRecord
  2
0
 70
0
  6
CONTINUOUS
  0
LAYER
  5
51
100
AcDbSymbolTableRecord
100
AcDbLayerTableRecord
  2
sleigh_cut
 70
0
  6
CONTINUOUS
  0
LAYER
  5
52
100
AcDbSymbolTableRecord
100
AcDbLayerTableRecord
  2
fiducials
 70
0
  6
CONTINUOUS
  0
ENDTAB
  0
TABLE
  2
STYLE
  5
3
330
0
100
AcDbSymbolTable
 70
     1
  0
STYLE
  5
11
330
3
100
AcDbSymbolTableRecord
100
AcDbTextStyleTableRecord
  2
STANDARD
 70
     0
 40
0.0
 41
1.0
 50
0.0
 71
     0
 42
2.5
  3
txt
  4

  0
ENDTAB
  0
TABLE
  2
VIEW
  5
6
330
0
100
AcDbSymbolTable
 70
     0
  0
ENDTAB
  0
TABLE
  2
UCS
  5
7
330
0
100
AcDbSymbolTable
 70
     0
  0
ENDTAB
  0
TABLE
  2
APPID
  5
9
330
0
100
AcDbSymbolTable
 70
     2
  0
APPID
  5
12
330
9
100
AcDbSymbolTableRecord
100
AcDbRegAppTableRecord
  2
ACAD
 70
     0
  0
ENDTAB
  0
TABLE
  2
DIMSTYLE
  5
A
330
0
100
AcDbSymbolTable
 70
     1
  0
DIMSTYLE
105
27
330
A
100
AcDbSymbolTableRecord
100
AcDbDimStyleTableRecord
  2
ISO-25
 70
     0
  3

  4

  5

  6

  7

 40
1.0
 41
2.5
 42
0.625
 43
3.75
 44
1.25
 45
0.0
 46
0.0
 47
0.0
 48
0.0
140
2.5
141
2.5
142
0.0
143
0.03937007874016
144
1.0
145
0.0
146
1.0
147
0.625
 71
     0
 72
     0
 73
     0
 74
     0
 75
     0
 76
     0
 77
     1
 78
     8
170
     0
171
     3
172
     1
173
     0
174
     0
175
     0
176
     0
177
     0
178
     0
270
     2
271
     2
272
     2
273
     2
274
     3
340
11
275
     0
280
     0
281
     0
282
     0
283
     0
284
     8
285
     0
286
     0
287
     3
288
     0
  0
ENDTAB
  0
TABLE
  2
BLOCK_RECORD
  5
1
330
0
100
AcDbSymbolTable
 70
     1
  0
BLOCK_RECORD
  5
1F
330
1
100
AcDbSymbolTableRecord
100
AcDbBlockTableRecord
  2
*MODEL_SPACE
  0
BLOCK_RECORD
  5
1B
330
1
100
AcDbSymbolTableRecord
100
AcDbBlockTableRecord
  2
*PAPER_SPACE
  0
ENDTAB
  0
ENDSEC
  0
SECTION
  2
BLOCKS
  0
BLOCK
  5
20
330
1F
100
AcDbEntity
  8
0
100
AcDbBlockBegin
  2
*MODEL_SPACE
 70
     0
 10
0.0
 20
0.0
 30
0.0
  3
*MODEL_SPACE
  1

  0
ENDBLK
  5
21
330
1F
100
AcDbEntity
  8
0
100
AcDbBlockEnd
  0
BLOCK
  5
1C
330
1B
100
AcDbEntity
 67
     1
  8
0
100
AcDbBlockBegin
  2
*PAPER_SPACE
  1

  0
ENDBLK
  5
1D
330
1B
100
AcDbEntity
 67
     1
  8
0
100
AcDbBlockEnd
  0
ENDSEC
  0
SECTION
  2
ENTITIES
  0
SPLINE
  5
100
100
AcDbEntity
  8
sleigh_cut
 62
6
100
AcDbSpline
 70
8
 71
3
 72
8
 73
4
 74
0
 40
0
 40
0
 40
0
 40
0
 40
1
 40
1
 40
1
 40
1
 10
89.451079
 20
41.565941
 30
0.0
 10
90.777106
 20
40.557076
 30
0.0
 10
91.881035
 20
39.174152
 30
0.0
 10
92.340650
 20
37.426409
 30
0.0
  0
SPLINE
  5
101
100
AcDbEntity
  8
sleigh_cut
 62
6
100
AcDbSpline
 70
8
 71
3
 72
8
 73
4
 74
0
 40
0
 40
0
 40
0
 40
0
 40
1
 40
1
 40
1
 40
1
 10
92.340650
 20
37.426409
 30
0.0
 10
92.792646
 20
35.707621
 30
0.0
 10
92.584579
 20
33.729706
 30
0.0
 10
91.658272
 20
31.620587
 30
0.0
  0
SPLINE
  5
102
100
AcDbEntity
  8
sleigh_cut
 62
6
100
AcDbSpline
 70
8
 71
3
 72
8
 73
4
 74
0
 40
0
 40
0
 40
0
 40
0
 40
1
 40
1
 40
1
 40
1
 10
91.657878
 20
31.619733
 30
0.0
 10
90.618862
 20
28.671134
 30
0.0
 10
89.523307
 20
24.743557
 30
0.0
 10
91.437850
 20
21.225781
 30
0.0
  0
LWPOLYLINE
  5
103
100
AcDbEntity
  8
sleigh_cut
 62
6
100
AcDbPolyline
 90
2
 70
0
 10
91.658272
 20
31.620587
 30
0.0
 10
91.657878
 20
31.619733
 30
0.0
  0
SPLINE
  5
104
100
AcDbEntity
  8
sleigh_cut
 62
6
100
AcDbSpline
 70
8
 71
3
 72
8
 73
4
 74
0
 40
0
 40
0
 40
0
 40
0
 40
1
 40
1
 40
1
 40
1
 10
91.429516
 20
21.240048
 30
0.0
 10
92.582610
 20
19.384952
 30
0.0
 10
92.824429
 20
16.713731
 30
0.0
 10
91.811512
 20
14.173556
 30
0.0
  0
SPLINE
  5
105
100
AcDbEntity
  8
sleigh_cut
 62
6
100
AcDbSpline
 70
8
 71
3
 72
8
 73
4
 74
0
 40
0
 40
0
 40
0
 40
0
 40
1
 40
1
 40
1
 40
1
 10
91.811512
 20
14.173556
 30
0.0
 10
91.671386
 20
13.822147
 30
0.0
 10
91.496520
 20
13.478434
 30
0.0
 10
91.298177
 20
13.142374
 30
0.0
  0
SPLINE
  5
106
100
AcDbEntity
  8
sleigh_cut
 62
6
100
AcDbSpline
 70
8
 71
3
 72
8
 73
4
 74
0
 40
0
 40
0
 40
0
 40
0
 40
1
 40
1
 40
1
 40
1
 10
91.298177
 20
13.142374
 30
0.0
 10
91.382630
 20
12.207357
 30
0.0
 10
91.718921
 20
11.328157
 30
0.0
 10
92.141307
 20
10.502866
 30
0.0
  0
SPLINE
  5
107
100
AcDbEntity
  8
sleigh_cut
 62
6
100
AcDbSpline
 70
8
 71
3
 72
8
 73
4
 74
0
 40
0
 40
0
 40
0
 40
0
 40
1
 40
1
 40
1
 40
1
 10
92.141307
 20
10.502866
 30
0.0
 10
92.846567
 20
10.084496
 30
0.0
 10
93.406472
 20
9.463299
 30
0.0
 10
93.669882
 20
8.681200
 30
0.0
  0
SPLINE
  5
108
100
AcDbEntity
  8
sleigh_cut
 62
6
100
AcDbSpline
 70
8
 71
3
 72
8
 73
4
 74
0
 40
0
 40
0
 40
0
 40
0
 40
1
 40
1
 40
1
 40
1
 10
93.669882
 20
8.681200
 30
0.0
 10
94.135866
 20
7.297610
 30
0.0
 10
93.636744
 20
6.009157
 30
0.0
 10
92.739457
 20
5.189181
 30
0.0
  0
SPLINE
  5
109
100
AcDbEntity
  8
sleigh_cut
 62
6
100
AcDbSpline
 70
8
 71
3
 72
8
 73
4
 74
0
 40
0
 40
0
 40
0
 40
0
 40
1
 40
1
 40
1
 40
1
 10
92.739457
 20
5.189181
 30
0.0
 10
91.907630
 20
4.429024
 30
0.0
 10
90.754858
 20
3.987646
 30
0.0
 10
89.515276
 20
3.941496
 30
0.0
  0
LWPOLYLINE
  5
10a
100
AcDbEntity
  8
sleigh_cut
 62
6
100
AcDbPolyline
 90
2
 70
0
 10
91.437850
 20
21.225781
 30
0.0
 10
91.429516
 20
21.240048
 30
0.0
  0
SPLINE
  5
10b
100
AcDbEntity
  8
sleigh_cut
 62
6
100
AcDbSpline
 70
8
 71
3
 72
8
 73
4
 74
0
 40
0
 40
0
 40
0
 40
0
 40
1
 40
1
 40
1
 40
1
 10
11.446405
 20
3.942020
 30
0.0
 10
9.738901
 20
4.036626
 30
0.0
 10
8.021641
 20
4.553051
 30
0.0
 10
6.517062
 20
5.473382
 30
0.0
  0
SPLINE
  5
10c
100
AcDbEntity
  8
sleigh_cut
 62
6
100
AcDbSpline
 70
8
 71
3
 72
8
 73
4
 74
0
 40
0
 40
0
 40
0
 40
0
 40
1
 40
1
 40
1
 40
1
 10
6.517062
 20
5.473382
 30
0.0
 10
4.600794
 20
6.645535
 30
0.0
 10
3.181976
 20
8.431047
 30
0.0
 10
2.544294
 20
10.356826
 30
0.0
  0
SPLINE
  5
10d
100
AcDbEntity
  8
sleigh_cut
 62
6
100
AcDbSpline
 70
8
 71
3
 72
8
 73
4
 74
0
 40
0
 40
0
 40
0
 40
0
 40
1
 40
1
 40
1
 40
1
 10
2.544294
 20
10.356826
 30
0.0
 10
1.906602
 20
12.282600
 30
0.0
 10
2.055637
 20
14.357680
 30
0.0
 10
3.286936
 20
16.067615
 30
0.0
  0
SPLINE
  5
10e
100
AcDbEntity
  8
sleigh_cut
 62
6
100
AcDbSpline
 70
8
 71
3
 72
8
 73
4
 74
0
 40
0
 40
0
 40
0
 40
0
 40
1
 40
1
 40
1
 40
1
 10
3.286936
 20
16.067615
 30
0.0
 10
4.093550
 20
17.187791
 30
0.0
 10
5.337102
 20
17.985409
 30
0.0
 10
6.738917
 20
18.346930
 30
0.0
  0
SPLINE
  5
10f
100
AcDbEntity
  8
sleigh_cut
 62
6
100
AcDbSpline
 70
8
 71
3
 72
8
 73
4
 74
0
 40
0
 40
0
 40
0
 40
0
 40
1
 40
1
 40
1
 40
1
 10
6.738917
 20
18.346930
 30
0.0
 10
5.775318
 20
18.825706
 30
0.0
 10
5.065806
 20
19.563850
 30
0.0
 10
4.630995
 20
20.330821
 30
0.0
  0
SPLINE
  5
110
100
AcDbEntity
  8
sleigh_cut
 62
6
100
AcDbSpline
 70
8
 71
3
 72
8
 73
4
 74
0
 40
0
 40
0
 40
0
 40
0
 40
1
 40
1
 40
1
 40
1
 10
4.630995
 20
20.330821
 30
0.0
 10
4.065287
 20
21.328712
 30
0.0
 10
3.884728
 20
22.334970
 30
0.0
 10
3.967696
 20
23.220309
 30
0.0
  0
SPLINE
  5
111
100
AcDbEntity
  8
sleigh_cut
 62
6
100
AcDbSpline
 70
8
 71
3
 72
8
 73
4
 74
0
 40
0
 40
0
 40
0
 40
0
 40
1
 40
1
 40
1
 40
1
 10
3.967696
 20
23.220309
 30
0.0
 10
4.306570
 20
27.147265
 30
0.0
 10
7.099357
 20
30.010111
 30
0.0
 10
9.866354
 20
31.922852
 30
0.0
  0
SPLINE
  5
112
100
AcDbEntity
  8
sleigh_cut
 62
6
100
AcDbSpline
 70
8
 71
3
 72
8
 73
4
 74
0
 40
0
 40
0
 40
0
 40
0
 40
1
 40
1
 40
1
 40
1
 10
9.866354
 20
31.922852
 30
0.0
 10
12.631763
 20
33.834506
 30
0.0
 10
15.348113
 20
34.877202
 30
0.0
 10
16.801054
 20
35.174646
 30
0.0
  0
LWPOLYLINE
  5
113
100
AcDbEntity
  8
sleigh_cut
 62
6
100
AcDbPolyline
 90
4
 70
0
 10
89.515276
 20
3.941496
 30
0.0
 10
89.519094
 20
3.926980
 30
0.0
 10
11.446405
 20
3.927846
 30
0.0
 10
11.446405
 20
3.942020
 30
0.0
  0
SPLINE
  5
114
100
AcDbEntity
  8
sleigh_cut
 62
6
100
AcDbSpline
 70
8
 71
3
 72
8
 73
4
 74
0
 40
0
 40
0
 40
0
 40
0
 40
1
 40
1
 40
1
 40
1
 10
16.874188
 20
35.187721
 30
0.0
 10
20.815759
 20
35.805998
 30
0.0
 10
23.952287
 20
35.049535
 30
0.0
 10
25.850621
 20
33.211874
 30
0.0
  0
SPLINE
  5
115
100
AcDbEntity
  8
sleigh_cut
 62
6
100
AcDbSpline
 70
8
 71
3
 72
8
 73
4
 74
0
 40
0
 40
0
 40
0
 40
0
 40
1
 40
1
 40
1
 40
1
 10
25.850621
 20
33.211874
 30
0.0
 10
27.762145
 20
31.361422
 30
0.0
 10
28.042322
 20
28.419455
 30
0.0
 10
26.594731
 20
26.021505
 30
0.0
  0
LWPOLYLINE
  5
116
100
AcDbEntity
  8
sleigh_cut
 62
6
100
AcDbPolyline
 90
5
 70
0
 10
16.801054
 20
35.174646
 30
0.0
 10
16.801487
 20
35.174646
 30
0.0
 10
16.837558
 20
35.181947
 30
0.0
 10
16.873755
 20
35.187721
 30
0.0
 10
16.874188
 20
35.187721
 30
0.0
  0
SPLINE
  5
117
100
AcDbEntity
  8
sleigh_cut
 62
6
100
AcDbSpline
 70
8
 71
3
 72
8
 73
4
 74
0
 40
0
 40
0
 40
0
 40
0
 40
1
 40
1
 40
1
 40
1
 10
26.534802
 20
25.929620
 30
0.0
 10
25.979102
 20
25.138136
 30
0.0
 10
23.575735
 20
21.027574
 30
0.0
 10
22.775665
 20
17.634741
 30
0.0
  0
SPLINE
  5
118
100
AcDbEntity
  8
sleigh_cut
 62
6
100
AcDbSpline
 70
8
 71
3
 72
8
 73
4
 74
0
 40
0
 40
0
 40
0
 40
0
 40
1
 40
1
 40
1
 40
1
 10
22.775665
 20
17.634741
 30
0.0
 10
22.376145
 20
15.940505
 30
0.0
 10
22.418365
 20
14.446752
 30
0.0
 10
22.819401
 20
13.661030
 30
0.0
  0
SPLINE
  5
119
100
AcDbEntity
  8
sleigh_cut
 62
6
100
AcDbSpline
 70
8
 71
3
 72
8
 73
4
 74
0
 40
0
 40
0
 40
0
 40
0
 40
1
 40
1
 40
1
 40
1
 10
22.819401
 20
13.661030
 30
0.0
 10
23.030058
 20
13.248263
 30
0.0
 10
23.297842
 20
12.926723
 30
0.0
 10
23.794609
 20
12.681857
 30
0.0
  0
SPLINE
  5
11a
100
AcDbEntity
  8
sleigh_cut
 62
6
100
AcDbSpline
 70
8
 71
3
 72
8
 73
4
 74
0
 40
0
 40
0
 40
0
 40
0
 40
1
 40
1
 40
1
 40
1
 10
23.794609
 20
12.681857
 30
0.0
 10
24.291385
 20
12.436988
 30
0.0
 10
25.033354
 20
12.276587
 30
0.0
 10
26.165125
 20
12.268419
 30
0.0
  0
LWPOLYLINE
  5
11b
100
AcDbEntity
  8
sleigh_cut
 62
6
100
AcDbPolyline
 90
3
 70
0
 10
26.594731
 20
26.021505
 30
0.0
 10
26.566377
 20
25.974552
 30
0.0
 10
26.534802
 20
25.929620
 30
0.0
  0
SPLINE
  5
11c
100
AcDbEntity
  8
sleigh_cut
 62
6
100
AcDbSpline
 70
8
 71
3
 72
8
 73
4
 74
0
 40
0
 40
0
 40
0
 40
0
 40
1
 40
1
 40
1
 40
1
 10
40.974772
 20
24.382826
 30
0.0
 10
41.012417
 20
28.202010
 30
0.0
 10
44.661406
 20
32.538528
 30
0.0
 10
51.164236
 20
32.770668
 30
0.0
  0
LWPOLYLINE
  5
11d
100
AcDbEntity
  8
sleigh_cut
 62
6
100
AcDbPolyline
 90
5
 70
0
 10
26.165125
 20
12.268419
 30
0.0
 10
41.306748
 20
12.232585
 30
0.0
 10
40.974772
 20
24.351732
 30
0.0
 10
40.974772
 20
24.381365
 30
0.0
 10
40.974772
 20
24.382826
 30
0.0
  0
SPLINE
  5
11e
100
AcDbEntity
  8
sleigh_cut
 62
6
100
AcDbSpline
 70
8
 71
3
 72
8
 73
4
 74
0
 40
0
 40
0
 40
0
 40
0
 40
1
 40
1
 40
1
 40
1
 10
51.271638
 20
32.770940
 30
0.0
 10
54.543756
 20
32.667396
 30
0.0
 10
56.348980
 20
32.678269
 30
0.0
 10
57.817118
 20
33.045697
 30
0.0
  0
SPLINE
  5
11f
100
AcDbEntity
  8
sleigh_cut
 62
6
100
AcDbSpline
 70
8
 71
3
 72
8
 73
4
 74
0
 40
0
 40
0
 40
0
 40
0
 40
1
 40
1
 40
1
 40
1
 10
57.817118
 20
33.045697
 30
0.0
 10
59.283965
 20
33.412844
 30
0.0
 10
60.459213
 20
34.140991
 30
0.0
 10
62.494965
 20
35.528740
 30
0.0
  0
SPLINE
  5
120
100
AcDbEntity
  8
sleigh_cut
 62
6
100
AcDbSpline
 70
8
 71
3
 72
8
 73
4
 74
0
 40
0
 40
0
 40
0
 40
0
 40
1
 40
1
 40
1
 40
1
 10
62.494965
 20
35.528740
 30
0.0
 10
65.138110
 20
37.453489
 30
0.0
 10
66.118878
 20
39.461463
 30
0.0
 10
68.360110
 20
41.307044
 30
0.0
  0
SPLINE
  5
121
100
AcDbEntity
  8
sleigh_cut
 62
6
100
AcDbSpline
 70
8
 71
3
 72
8
 73
4
 74
0
 40
0
 40
0
 40
0
 40
0
 40
1
 40
1
 40
1
 40
1
 10
68.360110
 20
41.307044
 30
0.0
 10
70.616906
 20
43.165438
 30
0.0
 10
73.927531
 20
44.343352
 30
0.0
 10
80.412358
 20
44.341999
 30
0.0
  0
SPLINE
  5
122
100
AcDbEntity
  8
sleigh_cut
 62
6
100
AcDbSpline
 70
8
 71
3
 72
8
 73
4
 74
0
 40
0
 40
0
 40
0
 40
0
 40
1
 40
1
 40
1
 40
1
 10
80.412358
 20
44.341999
 30
0.0
 10
83.677870
 20
44.315221
 30
0.0
 10
86.964528
 20
43.459106
 30
0.0
 10
89.450949
 20
41.565941
 30
0.0
  0
LWPOLYLINE
  5
123
100
AcDbEntity
  8
sleigh_cut
 62
6
100
AcDbPolyline
 90
3
 70
0
 10
51.164236
 20
32.770668
 30
0.0
 10
51.217929
 20
32.772534
 30
0.0
 10
51.271638
 20
32.770940
 30
0.0
  0
LWPOLYLINE
  5
124
100
AcDbEntity
  8
sleigh_cut
 62
6
100
AcDbPolyline
 90
2
 70
0
 10
89.450949
 20
41.565941
 30
0.0
 10
89.451079
 20
41.565941
 30
0.0
  0
LWPOLYLINE
  5
125
100
AcDbEntity
  8
fiducials
 62
7
100
AcDbPolyline
 90
4
 70
1
 10
95.038516
 20
46.350075
 30
0.0
 10
1.058217
 20
46.350075
 30
0.0
 10
1.058217
 20
1.369780
 30
0.0
 10
95.038516
 20
1.369780
 30
0.0
  0
ENDSEC
  0
SECTION
  2
OBJECTS
  0
DICTIONARY
  5
C
330
0
100
AcDbDictionary
  3
ACAD_GROUP
350
D
  3
ACAD_MLINESTYLE
350
17
  0
DICTIONARY
  5
D
330
C
100
AcDbDictionary
  0
DICTIONARY
  5
1A
330
C
100
AcDbDictionary
  0
DICTIONARY
  5
17
330
C
100
AcDbDictionary
  3
STANDARD
350
18
  0
DICTIONARY
  5
19
330
C
100
AcDbDictionary
  0
ENDSEC
  0
EOF
