  0
SECTION
  2
HEADER
  9
$ACADVER
  1
AC1014
  9
$HANDSEED
  5
FFFF
  9
$INSUNITS
 70
     4
  9
$MEASUREMENT
 70
     1
  0
ENDSEC
  0
SECTION
  2
TABLES
  0
TABLE
  2
VPORT
  5
8
330
0
100
AcDbSymbolTable
 70
     4
  0
VPORT
  5
2E
330
8
100
AcDbSymbolTableRecord
100
AcDbViewportTableRecord
  2
*ACTIVE
 70
     0
 10
0.0
 20
0.0
 11
1.0
 21
1.0
 12
210.0
 22
148.5
 13
0.0
 23
0.0
 14
10.0
 24
10.0
 15
10.0
 25
10.0
 16
0.0
 26
0.0
 36
1.0
 17
0.0
 27
0.0
 37
0.0
 40
341.0
 41
1.24
 42
50.0
 43
0.0
 44
0.0
 50
0.0
 51
0.0
 71
     0
 72
   100
 73
     1
 74
     3
 75
     0
 76
     0
 77
     0
 78
     0
  0
ENDTAB
  0
TABLE
  2
LTYPE
  5
5
330
0
100
AcDbSymbolTable
 70
     1
  0
LTYPE
  5
14
330
5
100
AcDbSymbolTableRecord
100
AcDbLinetypeTableRecord
  2
BYBLOCK
 70
     0
  3

 72
    65
 73
     0
 40
0.0
  0
LTYPE
  5
15
330
5
100
AcDbSymbolTableRecord
100
AcDbLinetypeTableRecord
  2
BYLAYER
 70
     0
  3

 72
    65
 73
     0
 40
0.0
  0
LTYPE
  5
16
330
5
100
AcDbSymbolTableRecord
100
AcDbLinetypeTableRecord
  2
CONTINUOUS
 70
     0
  3
Solid line
 72
    65
 73
     0
 40
0.0
  0
ENDTAB
  0
TABLE
  2
LAYER
  5
2
100
AcDbSymbolTable
 70
3
  0
LAYER
  5
50
100
AcDbSymbolTableRecord
100
AcDbLayerTableRecord
  2
0
 70
0
  6
CONTINUOUS
  0
LAYER
  5
51
100
AcDbSymbolTableRecord
100
AcDbLayerTableRecord
  2
stars_bg_cut
 70
0
  6
CONTINUOUS
  0
LAYER
  5
52
100
AcDbSymbolTableRecord
100
AcDbLayerTableRecord
  2
fiducials
 70
0
  6
CONTINUOUS
  0
ENDTAB
  0
TABLE
  2
STYLE
  5
3
330
0
100
AcDbSymbolTable
 70
     1
  0
STYLE
  5
11
330
3
100
AcDbSymbolTableRecord
100
AcDbTextStyleTableRecord
  2
STANDARD
 70
     0
 40
0.0
 41
1.0
 50
0.0
 71
     0
 42
2.5
  3
txt
  4

  0
ENDTAB
  0
TABLE
  2
VIEW
  5
6
330
0
100
AcDbSymbolTable
 70
     0
  0
ENDTAB
  0
TABLE
  2
UCS
  5
7
330
0
100
AcDbSymbolTable
 70
     0
  0
ENDTAB
  0
TABLE
  2
APPID
  5
9
330
0
100
AcDbSymbolTable
 70
     2
  0
APPID
  5
12
330
9
100
AcDbSymbolTableRecord
100
AcDbRegAppTableRecord
  2
ACAD
 70
     0
  0
ENDTAB
  0
TABLE
  2
DIMSTYLE
  5
A
330
0
100
AcDbSymbolTable
 70
     1
  0
DIMSTYLE
105
27
330
A
100
AcDbSymbolTableRecord
100
AcDbDimStyleTableRecord
  2
ISO-25
 70
     0
  3

  4

  5

  6

  7

 40
1.0
 41
2.5
 42
0.625
 43
3.75
 44
1.25
 45
0.0
 46
0.0
 47
0.0
 48
0.0
140
2.5
141
2.5
142
0.0
143
0.03937007874016
144
1.0
145
0.0
146
1.0
147
0.625
 71
     0
 72
     0
 73
     0
 74
     0
 75
     0
 76
     0
 77
     1
 78
     8
170
     0
171
     3
172
     1
173
     0
174
     0
175
     0
176
     0
177
     0
178
     0
270
     2
271
     2
272
     2
273
     2
274
     3
340
11
275
     0
280
     0
281
     0
282
     0
283
     0
284
     8
285
     0
286
     0
287
     3
288
     0
  0
ENDTAB
  0
TABLE
  2
BLOCK_RECORD
  5
1
330
0
100
AcDbSymbolTable
 70
     1
  0
BLOCK_RECORD
  5
1F
330
1
100
AcDbSymbolTableRecord
100
AcDbBlockTableRecord
  2
*MODEL_SPACE
  0
BLOCK_RECORD
  5
1B
330
1
100
AcDbSymbolTableRecord
100
AcDbBlockTableRecord
  2
*PAPER_SPACE
  0
ENDTAB
  0
ENDSEC
  0
SECTION
  2
BLOCKS
  0
BLOCK
  5
20
330
1F
100
AcDbEntity
  8
0
100
AcDbBlockBegin
  2
*MODEL_SPACE
 70
     0
 10
0.0
 20
0.0
 30
0.0
  3
*MODEL_SPACE
  1

  0
ENDBLK
  5
21
330
1F
100
AcDbEntity
  8
0
100
AcDbBlockEnd
  0
BLOCK
  5
1C
330
1B
100
AcDbEntity
 67
     1
  8
0
100
AcDbBlockBegin
  2
*PAPER_SPACE
  1

  0
ENDBLK
  5
1D
330
1B
100
AcDbEntity
 67
     1
  8
0
100
AcDbBlockEnd
  0
ENDSEC
  0
SECTION
  2
ENTITIES
  0
SPLINE
  5
100
100
AcDbEntity
  8
stars_bg_cut
 62
6
100
AcDbSpline
 70
8
 71
3
 72
8
 73
4
 74
0
 40
0
 40
0
 40
0
 40
0
 40
1
 40
1
 40
1
 40
1
 10
10.673235
 20
3.890654
 30
0.0
 10
3.745444
 20
3.897315
 30
0.0
 10
2.688554
 20
8.345386
 30
0.0
 10
2.726078
 20
11.279323
 30
0.0
  0
LWPOLYLINE
  5
101
100
AcDbEntity
  8
stars_bg_cut
 62
6
100
AcDbPolyline
 90
2
 70
0
 10
89.482508
 20
3.890654
 30
0.0
 10
10.673235
 20
3.890654
 30
0.0
  0
SPLINE
  5
102
100
AcDbEntity
  8
stars_bg_cut
 62
6
100
AcDbSpline
 70
8
 71
3
 72
8
 73
4
 74
0
 40
0
 40
0
 40
0
 40
0
 40
1
 40
1
 40
1
 40
1
 10
2.726078
 20
24.272610
 30
0.0
 10
2.697649
 20
28.472957
 30
0.0
 10
14.609641
 20
33.694618
 30
0.0
 10
19.289543
 20
34.554659
 30
0.0
  0
SPLINE
  5
103
100
AcDbEntity
  8
stars_bg_cut
 62
6
100
AcDbSpline
 70
8
 71
3
 72
8
 73
4
 74
0
 40
0
 40
0
 40
0
 40
0
 40
1
 40
1
 40
1
 40
1
 10
19.289543
 20
34.554659
 30
0.0
 10
24.117661
 20
35.020659
 30
0.0
 10
27.340629
 20
30.956465
 30
0.0
 10
27.436960
 20
28.583944
 30
0.0
  0
SPLINE
  5
104
100
AcDbEntity
  8
stars_bg_cut
 62
6
100
AcDbSpline
 70
8
 71
3
 72
8
 73
4
 74
0
 40
0
 40
0
 40
0
 40
0
 40
1
 40
1
 40
1
 40
1
 10
27.436960
 20
28.583944
 30
0.0
 10
27.175255
 20
23.395272
 30
0.0
 10
25.926779
 20
22.759279
 30
0.0
 10
22.615747
 20
18.969681
 30
0.0
  0
SPLINE
  5
105
100
AcDbEntity
  8
stars_bg_cut
 62
6
100
AcDbSpline
 70
8
 71
3
 72
8
 73
4
 74
0
 40
0
 40
0
 40
0
 40
0
 40
1
 40
1
 40
1
 40
1
 10
22.615747
 20
18.969681
 30
0.0
 10
19.276342
 20
15.036256
 30
0.0
 10
24.123436
 20
11.628281
 30
0.0
 10
26.722712
 20
11.727100
 30
0.0
  0
LWPOLYLINE
  5
106
100
AcDbEntity
  8
stars_bg_cut
 62
6
100
AcDbPolyline
 90
2
 70
0
 10
2.726078
 20
11.279323
 30
0.0
 10
2.726078
 20
24.272610
 30
0.0
  0
SPLINE
  5
107
100
AcDbEntity
  8
stars_bg_cut
 62
6
100
AcDbSpline
 70
8
 71
3
 72
8
 73
4
 74
0
 40
0
 40
0
 40
0
 40
0
 40
1
 40
1
 40
1
 40
1
 10
42.423618
 20
18.688250
 30
0.0
 10
42.840091
 20
28.038926
 30
0.0
 10
50.286811
 20
30.445881
 30
0.0
 10
54.383693
 20
30.496614
 30
0.0
  0
SPLINE
  5
108
100
AcDbEntity
  8
stars_bg_cut
 62
6
100
AcDbSpline
 70
8
 71
3
 72
8
 73
4
 74
0
 40
0
 40
0
 40
0
 40
0
 40
1
 40
1
 40
1
 40
1
 10
54.383693
 20
30.496614
 30
0.0
 10
57.143224
 20
30.557776
 30
0.0
 10
62.188843
 20
30.839080
 30
0.0
 10
63.619390
 20
33.322761
 30
0.0
  0
SPLINE
  5
109
100
AcDbEntity
  8
stars_bg_cut
 62
6
100
AcDbSpline
 70
8
 71
3
 72
8
 73
4
 74
0
 40
0
 40
0
 40
0
 40
0
 40
1
 40
1
 40
1
 40
1
 10
63.619390
 20
33.322761
 30
0.0
 10
66.432547
 20
44.603984
 30
0.0
 10
75.179244
 20
44.672960
 30
0.0
 10
80.305437
 20
44.665175
 30
0.0
  0
SPLINE
  5
10a
100
AcDbEntity
  8
stars_bg_cut
 62
6
100
AcDbSpline
 70
8
 71
3
 72
8
 73
4
 74
0
 40
0
 40
0
 40
0
 40
0
 40
1
 40
1
 40
1
 40
1
 10
80.305437
 20
44.665175
 30
0.0
 10
86.170094
 20
44.708354
 30
0.0
 10
93.569327
 20
40.463762
 30
0.0
 10
93.456083
 20
30.891231
 30
0.0
  0
LWPOLYLINE
  5
10b
100
AcDbEntity
  8
stars_bg_cut
 62
6
100
AcDbPolyline
 90
3
 70
0
 10
26.722712
 20
11.727100
 30
0.0
 10
42.367240
 20
11.673834
 30
0.0
 10
42.423618
 20
18.688250
 30
0.0
  0
SPLINE
  5
10c
100
AcDbEntity
  8
stars_bg_cut
 62
6
100
AcDbSpline
 70
8
 71
3
 72
8
 73
4
 74
0
 40
0
 40
0
 40
0
 40
0
 40
1
 40
1
 40
1
 40
1
 10
93.456083
 20
6.809634
 30
0.0
 10
93.372469
 20
4.967917
 30
0.0
 10
92.017846
 20
3.842157
 30
0.0
 10
89.482508
 20
3.890654
 30
0.0
  0
LWPOLYLINE
  5
10d
100
AcDbEntity
  8
stars_bg_cut
 62
6
100
AcDbPolyline
 90
2
 70
0
 10
93.456083
 20
30.891231
 30
0.0
 10
93.456083
 20
6.809634
 30
0.0
  0
LWPOLYLINE
  5
10e
100
AcDbEntity
  8
stars_bg_cut
 62
6
100
AcDbPolyline
 90
1
 70
1
 10
89.482508
 20
3.890654
 30
0.0
  0
LWPOLYLINE
  5
10f
100
AcDbEntity
  8
fiducials
 62
7
100
AcDbPolyline
 90
4
 70
1
 10
95.038516
 20
46.350075
 30
0.0
 10
1.058217
 20
46.350075
 30
0.0
 10
1.058217
 20
1.369780
 30
0.0
 10
95.038516
 20
1.369780
 30
0.0
  0
ENDSEC
  0
SECTION
  2
OBJECTS
  0
DICTIONARY
  5
C
330
0
100
AcDbDictionary
  3
ACAD_GROUP
350
D
  3
ACAD_MLINESTYLE
350
17
  0
DICTIONARY
  5
D
330
C
100
AcDbDictionary
  0
DICTIONARY
  5
1A
330
C
100
AcDbDictionary
  0
DICTIONARY
  5
17
330
C
100
AcDbDictionary
  3
STANDARD
350
18
  0
DICTIONARY
  5
19
330
C
100
AcDbDictionary
  0
ENDSEC
  0
EOF
